%TF.GenerationSoftware,KiCad,Pcbnew,9.0.1*%
%TF.CreationDate,2025-04-09T19:32:53+02:00*%
%TF.ProjectId,SuperCPM65,53757065-7243-4504-9d36-352e6b696361,rev?*%
%TF.SameCoordinates,Original*%
%TF.FileFunction,Paste,Top*%
%TF.FilePolarity,Positive*%
%FSLAX46Y46*%
G04 Gerber Fmt 4.6, Leading zero omitted, Abs format (unit mm)*
G04 Created by KiCad (PCBNEW 9.0.1) date 2025-04-09 19:32:53*
%MOMM*%
%LPD*%
G01*
G04 APERTURE LIST*
G04 Aperture macros list*
%AMRoundRect*
0 Rectangle with rounded corners*
0 $1 Rounding radius*
0 $2 $3 $4 $5 $6 $7 $8 $9 X,Y pos of 4 corners*
0 Add a 4 corners polygon primitive as box body*
4,1,4,$2,$3,$4,$5,$6,$7,$8,$9,$2,$3,0*
0 Add four circle primitives for the rounded corners*
1,1,$1+$1,$2,$3*
1,1,$1+$1,$4,$5*
1,1,$1+$1,$6,$7*
1,1,$1+$1,$8,$9*
0 Add four rect primitives between the rounded corners*
20,1,$1+$1,$2,$3,$4,$5,0*
20,1,$1+$1,$4,$5,$6,$7,0*
20,1,$1+$1,$6,$7,$8,$9,0*
20,1,$1+$1,$8,$9,$2,$3,0*%
G04 Aperture macros list end*
%ADD10RoundRect,0.150000X0.150000X-0.825000X0.150000X0.825000X-0.150000X0.825000X-0.150000X-0.825000X0*%
%ADD11RoundRect,0.225000X-0.225000X-0.375000X0.225000X-0.375000X0.225000X0.375000X-0.225000X0.375000X0*%
%ADD12RoundRect,0.150000X-0.150000X0.825000X-0.150000X-0.825000X0.150000X-0.825000X0.150000X0.825000X0*%
%ADD13RoundRect,0.250000X0.337500X0.475000X-0.337500X0.475000X-0.337500X-0.475000X0.337500X-0.475000X0*%
%ADD14RoundRect,0.250000X-0.450000X0.350000X-0.450000X-0.350000X0.450000X-0.350000X0.450000X0.350000X0*%
%ADD15RoundRect,0.250000X-0.475000X0.337500X-0.475000X-0.337500X0.475000X-0.337500X0.475000X0.337500X0*%
%ADD16RoundRect,0.250000X-0.337500X-0.475000X0.337500X-0.475000X0.337500X0.475000X-0.337500X0.475000X0*%
%ADD17R,1.000000X1.500000*%
%ADD18R,0.700000X1.500000*%
%ADD19R,1.500000X2.800000*%
%ADD20RoundRect,0.243750X0.456250X-0.243750X0.456250X0.243750X-0.456250X0.243750X-0.456250X-0.243750X0*%
%ADD21RoundRect,0.150000X0.150000X-0.512500X0.150000X0.512500X-0.150000X0.512500X-0.150000X-0.512500X0*%
%ADD22RoundRect,0.250000X0.450000X-0.350000X0.450000X0.350000X-0.450000X0.350000X-0.450000X-0.350000X0*%
%ADD23RoundRect,0.225000X-0.375000X0.225000X-0.375000X-0.225000X0.375000X-0.225000X0.375000X0.225000X0*%
%ADD24RoundRect,0.250000X-0.350000X-0.450000X0.350000X-0.450000X0.350000X0.450000X-0.350000X0.450000X0*%
G04 APERTURE END LIST*
D10*
%TO.C,U5*%
X71200000Y-64575000D03*
X72470000Y-64575000D03*
X73740000Y-64575000D03*
X75010000Y-64575000D03*
X76280000Y-64575000D03*
X77550000Y-64575000D03*
X78820000Y-64575000D03*
X80090000Y-64575000D03*
X80090000Y-59625000D03*
X78820000Y-59625000D03*
X77550000Y-59625000D03*
X76280000Y-59625000D03*
X75010000Y-59625000D03*
X73740000Y-59625000D03*
X72470000Y-59625000D03*
X71200000Y-59625000D03*
%TD*%
D11*
%TO.C,D3*%
X128850000Y-87300000D03*
X132150000Y-87300000D03*
%TD*%
D12*
%TO.C,U7*%
X149710000Y-73825000D03*
X148440000Y-73825000D03*
X147170000Y-73825000D03*
X145900000Y-73825000D03*
X144630000Y-73825000D03*
X143360000Y-73825000D03*
X142090000Y-73825000D03*
X142090000Y-78775000D03*
X143360000Y-78775000D03*
X144630000Y-78775000D03*
X145900000Y-78775000D03*
X147170000Y-78775000D03*
X148440000Y-78775000D03*
X149710000Y-78775000D03*
%TD*%
D13*
%TO.C,C7*%
X102437500Y-63600000D03*
X100362500Y-63600000D03*
%TD*%
D14*
%TO.C,R5*%
X72800000Y-50200000D03*
X72800000Y-52200000D03*
%TD*%
D15*
%TO.C,C6*%
X153210000Y-73787500D03*
X153210000Y-75862500D03*
%TD*%
D16*
%TO.C,C4*%
X156672500Y-83325000D03*
X158747500Y-83325000D03*
%TD*%
D17*
%TO.C,J4*%
X135575000Y-68100000D03*
X138075000Y-68100000D03*
X140575000Y-68100000D03*
X143075000Y-68100000D03*
X145575000Y-68100000D03*
X148075000Y-68100000D03*
X150500000Y-68100000D03*
X152200000Y-68100000D03*
X133075000Y-68100000D03*
D18*
X153500000Y-68100000D03*
D19*
X156100000Y-66300000D03*
X131000000Y-66300000D03*
X128800000Y-44800000D03*
X156100000Y-44800000D03*
D18*
X154700000Y-68100000D03*
%TD*%
D11*
%TO.C,D2*%
X128950000Y-76600000D03*
X132250000Y-76600000D03*
%TD*%
%TO.C,D8*%
X103750000Y-60100000D03*
X107050000Y-60100000D03*
%TD*%
D13*
%TO.C,C1*%
X142937500Y-102600000D03*
X140862500Y-102600000D03*
%TD*%
D14*
%TO.C,R3*%
X77900000Y-87800000D03*
X77900000Y-89800000D03*
%TD*%
D20*
%TO.C,D7*%
X76200000Y-48037500D03*
X76200000Y-46162500D03*
%TD*%
D15*
%TO.C,C3*%
X66900000Y-69162500D03*
X66900000Y-71237500D03*
%TD*%
D20*
%TO.C,D5*%
X69300000Y-48075000D03*
X69300000Y-46200000D03*
%TD*%
D10*
%TO.C,U6*%
X85255000Y-64575000D03*
X86525000Y-64575000D03*
X87795000Y-64575000D03*
X89065000Y-64575000D03*
X90335000Y-64575000D03*
X91605000Y-64575000D03*
X92875000Y-64575000D03*
X94145000Y-64575000D03*
X94145000Y-59625000D03*
X92875000Y-59625000D03*
X91605000Y-59625000D03*
X90335000Y-59625000D03*
X89065000Y-59625000D03*
X87795000Y-59625000D03*
X86525000Y-59625000D03*
X85255000Y-59625000D03*
%TD*%
D16*
%TO.C,C8*%
X156710000Y-73825000D03*
X158785000Y-73825000D03*
%TD*%
D21*
%TO.C,U8*%
X156760000Y-79462500D03*
X157710000Y-79462500D03*
X158660000Y-79462500D03*
X158660000Y-77187500D03*
X156760000Y-77187500D03*
%TD*%
D11*
%TO.C,D4*%
X128950000Y-72800000D03*
X132250000Y-72800000D03*
%TD*%
D14*
%TO.C,R6*%
X76200000Y-50100000D03*
X76200000Y-52100000D03*
%TD*%
D22*
%TO.C,R1*%
X125800000Y-87300000D03*
X125800000Y-85300000D03*
%TD*%
D14*
%TO.C,R2*%
X125800000Y-72800000D03*
X125800000Y-74800000D03*
%TD*%
D16*
%TO.C,C12*%
X85662500Y-56075000D03*
X87737500Y-56075000D03*
%TD*%
D23*
%TO.C,D9*%
X70900000Y-88850000D03*
X70900000Y-92150000D03*
%TD*%
D15*
%TO.C,C2*%
X83300000Y-93262500D03*
X83300000Y-95337500D03*
%TD*%
D20*
%TO.C,D6*%
X72800000Y-48037500D03*
X72800000Y-46162500D03*
%TD*%
D15*
%TO.C,C10*%
X137210000Y-78325000D03*
X137210000Y-80400000D03*
%TD*%
D16*
%TO.C,C9*%
X122762500Y-64700000D03*
X124837500Y-64700000D03*
%TD*%
D24*
%TO.C,R8*%
X104900000Y-63600000D03*
X106900000Y-63600000D03*
%TD*%
D14*
%TO.C,R4*%
X69300000Y-50200000D03*
X69300000Y-52200000D03*
%TD*%
D12*
%TO.C,U1*%
X119910000Y-59725000D03*
X118640000Y-59725000D03*
X117370000Y-59725000D03*
X116100000Y-59725000D03*
X114830000Y-59725000D03*
X113560000Y-59725000D03*
X112290000Y-59725000D03*
X112290000Y-64675000D03*
X113560000Y-64675000D03*
X114830000Y-64675000D03*
X116100000Y-64675000D03*
X117370000Y-64675000D03*
X118640000Y-64675000D03*
X119910000Y-64675000D03*
%TD*%
D11*
%TO.C,D1*%
X128950000Y-83500000D03*
X132250000Y-83500000D03*
%TD*%
D14*
%TO.C,R7*%
X137210000Y-73825000D03*
X137210000Y-75825000D03*
%TD*%
D16*
%TO.C,C11*%
X71162500Y-56075000D03*
X73237500Y-56075000D03*
%TD*%
D15*
%TO.C,C5*%
X149710000Y-81787500D03*
X149710000Y-83862500D03*
%TD*%
M02*
