M48
; DRILL file {KiCad 9.0.0} date 2025-03-18T20:07:57+0100
; FORMAT={-:-/ absolute / metric / decimal}
; #@! TF.CreationDate,2025-03-18T20:07:57+01:00
; #@! TF.GenerationSoftware,Kicad,Pcbnew,9.0.0
; #@! TF.FileFunction,Plated,1,2,PTH
FMAT,2
METRIC
; #@! TA.AperFunction,Plated,PTH,ViaDrill
T1C0.300
; #@! TA.AperFunction,Plated,PTH,ComponentDrill
T2C0.800
; #@! TA.AperFunction,Plated,PTH,ComponentDrill
T3C0.900
; #@! TA.AperFunction,Plated,PTH,ComponentDrill
T4C1.000
%
G90
G05
T1
X65.5Y-49.9
X65.5Y-51.1
X65.5Y-52.4
X66.9Y-73.0
X68.1Y-91.2
X68.9Y-56.1
X70.9Y-100.9
X72.5Y-66.9
X73.0Y-80.1
X73.2Y-54.3
X73.4Y-98.8
X73.4Y-101.6
X73.7Y-66.8
X74.8Y-54.6
X75.0Y-62.6
X75.5Y-57.3
X75.9Y-71.3
X76.3Y-57.8
X76.3Y-66.8
X77.5Y-66.2
X77.6Y-61.3
X78.5Y-91.2
X78.8Y-56.1
X78.8Y-62.8
X78.9Y-109.4
X79.9Y-100.3
X79.9Y-109.4
X80.1Y-61.925
X80.7Y-76.7
X81.0Y-109.4
X81.5Y-64.6
X82.1Y-109.4
X82.2Y-80.5
X82.4Y-62.6
X82.4Y-76.7
X83.2Y-91.2
X83.2Y-109.4
X83.3Y-56.1
X83.3Y-97.2
X83.6Y-89.0
X84.1Y-76.7
X84.3Y-109.4
X84.8Y-87.1
X84.8Y-104.3
X85.3Y-62.6
X86.0Y-66.825
X86.1Y-89.6
X87.3Y-87.1
X87.8Y-54.0
X87.8Y-61.925
X88.1Y-104.5
X88.6Y-66.2
X88.6Y-90.2
X89.1Y-61.925
X89.4Y-96.5
X89.8Y-87.0
X89.9Y-54.0
X90.3Y-57.8
X90.5Y-103.1
X90.6Y-98.6
X90.7Y-95.4
X91.0Y-63.225
X91.2Y-90.8
X91.6Y-61.3
X92.0Y-97.1
X92.1Y-94.9
X92.4Y-87.3
X92.8Y-95.9
X92.8Y-106.6
X92.9Y-56.1
X93.5Y-99.6
X93.6Y-103.8
X93.7Y-67.1
X93.7Y-91.4
X94.1Y-61.975
X94.2Y-66.3
X94.5Y-97.7
X94.9Y-50.2
X94.9Y-87.2
X95.1Y-104.9
X95.8Y-106.7
X96.2Y-62.6
X97.0Y-98.3
X97.3Y-54.0
X97.3Y-67.1
X97.7Y-103.0
X97.9Y-50.2
X98.0Y-87.2
X98.1Y-103.8
X98.1Y-106.8
X98.3Y-95.9
X98.6Y-67.0
X99.2Y-66.2
X99.6Y-105.3
X100.7Y-87.2
X100.8Y-98.3
X101.1Y-99.6
X101.4Y-65.3
X102.1Y-112.5
X102.4Y-106.1
X103.4Y-97.7
X103.5Y-87.2
X104.5Y-104.5
X104.5Y-112.6
X104.8Y-61.9
X104.9Y-99.7
X105.1Y-56.1
X105.9Y-98.4
X105.95Y-96.45
X106.0Y-87.2
X106.4Y-79.9
X107.0Y-112.7
X107.1Y-44.7
X107.1Y-57.1
X107.8Y-66.4
X107.9Y-80.5
X108.2Y-87.2
X108.4Y-102.4
X108.9Y-76.6
X110.7Y-87.2
X111.0Y-97.1
X111.5Y-77.2
X112.3Y-58.1
X112.6Y-70.8
X112.9Y-44.7
X113.2Y-86.7
X113.6Y-57.625
X113.6Y-88.4
X114.1Y-75.9
X114.9Y-61.8
X115.3Y-80.7
X115.726Y-66.474
X116.1Y-56.2
X116.1Y-57.0
X116.1Y-89.0
X116.15Y-96.9
X116.8Y-99.1
X116.8Y-107.2
X117.4Y-101.0
X117.7Y-82.3
X118.6Y-66.4
X118.6Y-104.4
X118.6Y-106.1
X118.63Y-89.6
X118.7Y-62.6
X119.8Y-95.4
X119.8Y-106.5
X121.17Y-90.2
X121.2Y-96.0
X121.2Y-105.3
X122.5Y-96.0
X122.5Y-106.6
X122.8Y-62.5
X123.7Y-95.4
X123.7Y-103.1
X123.71Y-90.8
X124.95Y-110.55
X125.0Y-104.4
X125.8Y-66.4
X125.8Y-71.4
X125.8Y-88.9
X126.25Y-91.4
X126.5Y-44.7
X126.7Y-64.8
X127.2Y-83.4
X129.6Y-107.4
X129.65Y-96.9
X130.5Y-80.7
X130.5Y-98.4
X130.9Y-102.4
X131.0Y-63.8
X132.2Y-112.5
X132.3Y-70.8
X132.3Y-91.6
X132.3Y-101.9
X133.431Y-98.5
X134.2Y-99.1
X134.6Y-112.7
X135.0Y-97.775
X135.999Y-99.1
X136.7Y-106.4
X136.7Y-112.6
X137.2Y-85.6
X137.4Y-99.7
X138.5Y-100.6
X138.6Y-112.6
X138.7Y-85.6
X139.5Y-102.6
X139.6Y-73.9
X140.2Y-85.6
X140.6Y-66.2
X141.1Y-100.5
X141.2Y-110.6
X141.6Y-85.6
X142.1Y-75.4
X143.2Y-70.7
X144.7Y-80.7
X145.9Y-77.2
X147.2Y-76.6
X148.1Y-66.3
X148.4Y-76.0
X149.7Y-85.5
X153.2Y-70.7
X153.2Y-77.1
X157.5Y-106.5
X157.7Y-78.2
X158.0Y-66.1
X160.2Y-73.8
X160.3Y-83.3
X160.8Y-50.9
X160.8Y-52.4
X160.8Y-54.0
X160.8Y-55.5
X161.0Y-99.5
X161.0Y-101.1
X161.0Y-102.8
X161.0Y-105.1
X161.4Y-62.5
T2
X70.86Y-69.1
X70.86Y-84.34
X73.4Y-69.1
X73.4Y-84.34
X75.94Y-69.1
X75.94Y-84.34
X78.48Y-69.1
X78.48Y-84.34
X81.02Y-69.1
X81.02Y-84.34
X83.56Y-69.1
X83.56Y-84.34
X86.1Y-69.1
X86.1Y-84.34
X88.15Y-93.18
X88.15Y-108.42
X88.64Y-69.1
X88.64Y-84.34
X90.69Y-93.18
X90.69Y-108.42
X91.18Y-69.1
X91.18Y-84.34
X93.23Y-93.18
X93.23Y-108.42
X93.72Y-69.1
X93.72Y-84.34
X95.77Y-93.18
X95.77Y-108.42
X96.26Y-69.1
X96.26Y-84.34
X98.31Y-93.18
X98.31Y-108.42
X98.8Y-69.1
X98.8Y-84.34
X100.85Y-93.18
X100.85Y-108.42
X101.34Y-69.1
X101.34Y-84.34
X103.39Y-93.18
X103.39Y-108.42
X103.88Y-69.1
X103.88Y-84.34
X105.93Y-93.18
X105.93Y-108.42
X106.42Y-69.1
X106.42Y-84.34
X108.47Y-93.18
X108.47Y-108.42
X108.96Y-69.1
X108.96Y-84.34
X111.01Y-93.18
X111.01Y-108.42
X111.5Y-69.1
X111.5Y-84.34
X113.55Y-93.18
X113.55Y-108.42
X114.04Y-69.1
X114.04Y-84.34
X116.09Y-93.18
X116.09Y-108.42
X116.58Y-69.1
X116.58Y-84.34
X118.63Y-93.18
X118.63Y-108.42
X119.12Y-69.1
X119.12Y-84.34
X121.17Y-93.18
X121.17Y-108.42
X123.71Y-93.18
X123.71Y-108.42
X126.25Y-93.18
X126.25Y-108.42
X146.19Y-94.985
X146.19Y-102.605
X148.73Y-94.985
X148.73Y-102.605
X151.27Y-94.985
X151.27Y-102.605
X153.81Y-94.985
X153.81Y-102.605
T3
X112.95Y-50.7
X112.95Y-53.2
X115.2Y-50.7
X117.8Y-50.7
X120.05Y-50.7
X120.05Y-53.2
T4
X76.2Y-96.26
X76.2Y-98.8
X92.34Y-46.8
X94.88Y-46.8
X97.42Y-46.8
X99.96Y-46.8
X102.5Y-46.8
X105.04Y-46.8
X141.1Y-90.9
X143.64Y-90.9
X146.18Y-90.9
X148.72Y-90.9
X151.26Y-90.9
X153.8Y-90.9
M30
