%TF.GenerationSoftware,KiCad,Pcbnew,9.0.1*%
%TF.CreationDate,2025-04-09T19:32:53+02:00*%
%TF.ProjectId,SuperCPM65,53757065-7243-4504-9d36-352e6b696361,rev?*%
%TF.SameCoordinates,Original*%
%TF.FileFunction,Legend,Top*%
%TF.FilePolarity,Positive*%
%FSLAX46Y46*%
G04 Gerber Fmt 4.6, Leading zero omitted, Abs format (unit mm)*
G04 Created by KiCad (PCBNEW 9.0.1) date 2025-04-09 19:32:53*
%MOMM*%
%LPD*%
G01*
G04 APERTURE LIST*
%ADD10C,0.100000*%
%ADD11C,0.150000*%
%ADD12C,0.203200*%
%ADD13C,0.120000*%
%ADD14C,0.127000*%
%ADD15C,0.200000*%
%ADD16C,0.190500*%
%ADD17C,0.000000*%
G04 APERTURE END LIST*
D10*
X141500000Y-95500000D02*
X140500000Y-95500000D01*
X141000000Y-93000000D01*
X141500000Y-95500000D01*
G36*
X141500000Y-95500000D02*
G01*
X140500000Y-95500000D01*
X141000000Y-93000000D01*
X141500000Y-95500000D01*
G37*
X76577180Y-44224687D02*
X76624800Y-44272306D01*
X76624800Y-44272306D02*
X76672419Y-44415163D01*
X76672419Y-44415163D02*
X76672419Y-44510401D01*
X76672419Y-44510401D02*
X76624800Y-44653258D01*
X76624800Y-44653258D02*
X76529561Y-44748496D01*
X76529561Y-44748496D02*
X76434323Y-44796115D01*
X76434323Y-44796115D02*
X76243847Y-44843734D01*
X76243847Y-44843734D02*
X76100990Y-44843734D01*
X76100990Y-44843734D02*
X75910514Y-44796115D01*
X75910514Y-44796115D02*
X75815276Y-44748496D01*
X75815276Y-44748496D02*
X75720038Y-44653258D01*
X75720038Y-44653258D02*
X75672419Y-44510401D01*
X75672419Y-44510401D02*
X75672419Y-44415163D01*
X75672419Y-44415163D02*
X75720038Y-44272306D01*
X75720038Y-44272306D02*
X75767657Y-44224687D01*
X76672419Y-43796115D02*
X75672419Y-43796115D01*
X76577180Y-42748497D02*
X76624800Y-42796116D01*
X76624800Y-42796116D02*
X76672419Y-42938973D01*
X76672419Y-42938973D02*
X76672419Y-43034211D01*
X76672419Y-43034211D02*
X76624800Y-43177068D01*
X76624800Y-43177068D02*
X76529561Y-43272306D01*
X76529561Y-43272306D02*
X76434323Y-43319925D01*
X76434323Y-43319925D02*
X76243847Y-43367544D01*
X76243847Y-43367544D02*
X76100990Y-43367544D01*
X76100990Y-43367544D02*
X75910514Y-43319925D01*
X75910514Y-43319925D02*
X75815276Y-43272306D01*
X75815276Y-43272306D02*
X75720038Y-43177068D01*
X75720038Y-43177068D02*
X75672419Y-43034211D01*
X75672419Y-43034211D02*
X75672419Y-42938973D01*
X75672419Y-42938973D02*
X75720038Y-42796116D01*
X75720038Y-42796116D02*
X75767657Y-42748497D01*
X103072419Y-50996115D02*
X102072419Y-50996115D01*
X102072419Y-50996115D02*
X102072419Y-50615163D01*
X102072419Y-50615163D02*
X102120038Y-50519925D01*
X102120038Y-50519925D02*
X102167657Y-50472306D01*
X102167657Y-50472306D02*
X102262895Y-50424687D01*
X102262895Y-50424687D02*
X102405752Y-50424687D01*
X102405752Y-50424687D02*
X102500990Y-50472306D01*
X102500990Y-50472306D02*
X102548609Y-50519925D01*
X102548609Y-50519925D02*
X102596228Y-50615163D01*
X102596228Y-50615163D02*
X102596228Y-50996115D01*
X102786704Y-50043734D02*
X102786704Y-49567544D01*
X103072419Y-50138972D02*
X102072419Y-49805639D01*
X102072419Y-49805639D02*
X103072419Y-49472306D01*
X102072419Y-48948496D02*
X102072419Y-48853258D01*
X102072419Y-48853258D02*
X102120038Y-48758020D01*
X102120038Y-48758020D02*
X102167657Y-48710401D01*
X102167657Y-48710401D02*
X102262895Y-48662782D01*
X102262895Y-48662782D02*
X102453371Y-48615163D01*
X102453371Y-48615163D02*
X102691466Y-48615163D01*
X102691466Y-48615163D02*
X102881942Y-48662782D01*
X102881942Y-48662782D02*
X102977180Y-48710401D01*
X102977180Y-48710401D02*
X103024800Y-48758020D01*
X103024800Y-48758020D02*
X103072419Y-48853258D01*
X103072419Y-48853258D02*
X103072419Y-48948496D01*
X103072419Y-48948496D02*
X103024800Y-49043734D01*
X103024800Y-49043734D02*
X102977180Y-49091353D01*
X102977180Y-49091353D02*
X102881942Y-49138972D01*
X102881942Y-49138972D02*
X102691466Y-49186591D01*
X102691466Y-49186591D02*
X102453371Y-49186591D01*
X102453371Y-49186591D02*
X102262895Y-49138972D01*
X102262895Y-49138972D02*
X102167657Y-49091353D01*
X102167657Y-49091353D02*
X102120038Y-49043734D01*
X102120038Y-49043734D02*
X102072419Y-48948496D01*
X92677180Y-50724687D02*
X92724800Y-50772306D01*
X92724800Y-50772306D02*
X92772419Y-50915163D01*
X92772419Y-50915163D02*
X92772419Y-51010401D01*
X92772419Y-51010401D02*
X92724800Y-51153258D01*
X92724800Y-51153258D02*
X92629561Y-51248496D01*
X92629561Y-51248496D02*
X92534323Y-51296115D01*
X92534323Y-51296115D02*
X92343847Y-51343734D01*
X92343847Y-51343734D02*
X92200990Y-51343734D01*
X92200990Y-51343734D02*
X92010514Y-51296115D01*
X92010514Y-51296115D02*
X91915276Y-51248496D01*
X91915276Y-51248496D02*
X91820038Y-51153258D01*
X91820038Y-51153258D02*
X91772419Y-51010401D01*
X91772419Y-51010401D02*
X91772419Y-50915163D01*
X91772419Y-50915163D02*
X91820038Y-50772306D01*
X91820038Y-50772306D02*
X91867657Y-50724687D01*
X92486704Y-50343734D02*
X92486704Y-49867544D01*
X92772419Y-50438972D02*
X91772419Y-50105639D01*
X91772419Y-50105639D02*
X92772419Y-49772306D01*
X92772419Y-48915163D02*
X92772419Y-49486591D01*
X92772419Y-49200877D02*
X91772419Y-49200877D01*
X91772419Y-49200877D02*
X91915276Y-49296115D01*
X91915276Y-49296115D02*
X92010514Y-49391353D01*
X92010514Y-49391353D02*
X92058133Y-49486591D01*
X144956265Y-106914856D02*
X145099122Y-106962475D01*
X145099122Y-106962475D02*
X145337217Y-106962475D01*
X145337217Y-106962475D02*
X145432455Y-106914856D01*
X145432455Y-106914856D02*
X145480074Y-106867236D01*
X145480074Y-106867236D02*
X145527693Y-106771998D01*
X145527693Y-106771998D02*
X145527693Y-106676760D01*
X145527693Y-106676760D02*
X145480074Y-106581522D01*
X145480074Y-106581522D02*
X145432455Y-106533903D01*
X145432455Y-106533903D02*
X145337217Y-106486284D01*
X145337217Y-106486284D02*
X145146741Y-106438665D01*
X145146741Y-106438665D02*
X145051503Y-106391046D01*
X145051503Y-106391046D02*
X145003884Y-106343427D01*
X145003884Y-106343427D02*
X144956265Y-106248189D01*
X144956265Y-106248189D02*
X144956265Y-106152951D01*
X144956265Y-106152951D02*
X145003884Y-106057713D01*
X145003884Y-106057713D02*
X145051503Y-106010094D01*
X145051503Y-106010094D02*
X145146741Y-105962475D01*
X145146741Y-105962475D02*
X145384836Y-105962475D01*
X145384836Y-105962475D02*
X145527693Y-106010094D01*
X145956265Y-105962475D02*
X145956265Y-106771998D01*
X145956265Y-106771998D02*
X146003884Y-106867236D01*
X146003884Y-106867236D02*
X146051503Y-106914856D01*
X146051503Y-106914856D02*
X146146741Y-106962475D01*
X146146741Y-106962475D02*
X146337217Y-106962475D01*
X146337217Y-106962475D02*
X146432455Y-106914856D01*
X146432455Y-106914856D02*
X146480074Y-106867236D01*
X146480074Y-106867236D02*
X146527693Y-106771998D01*
X146527693Y-106771998D02*
X146527693Y-105962475D01*
X147003884Y-106962475D02*
X147003884Y-105962475D01*
X147003884Y-105962475D02*
X147384836Y-105962475D01*
X147384836Y-105962475D02*
X147480074Y-106010094D01*
X147480074Y-106010094D02*
X147527693Y-106057713D01*
X147527693Y-106057713D02*
X147575312Y-106152951D01*
X147575312Y-106152951D02*
X147575312Y-106295808D01*
X147575312Y-106295808D02*
X147527693Y-106391046D01*
X147527693Y-106391046D02*
X147480074Y-106438665D01*
X147480074Y-106438665D02*
X147384836Y-106486284D01*
X147384836Y-106486284D02*
X147003884Y-106486284D01*
X148003884Y-106438665D02*
X148337217Y-106438665D01*
X148480074Y-106962475D02*
X148003884Y-106962475D01*
X148003884Y-106962475D02*
X148003884Y-105962475D01*
X148003884Y-105962475D02*
X148480074Y-105962475D01*
X149480074Y-106962475D02*
X149146741Y-106486284D01*
X148908646Y-106962475D02*
X148908646Y-105962475D01*
X148908646Y-105962475D02*
X149289598Y-105962475D01*
X149289598Y-105962475D02*
X149384836Y-106010094D01*
X149384836Y-106010094D02*
X149432455Y-106057713D01*
X149432455Y-106057713D02*
X149480074Y-106152951D01*
X149480074Y-106152951D02*
X149480074Y-106295808D01*
X149480074Y-106295808D02*
X149432455Y-106391046D01*
X149432455Y-106391046D02*
X149384836Y-106438665D01*
X149384836Y-106438665D02*
X149289598Y-106486284D01*
X149289598Y-106486284D02*
X148908646Y-106486284D01*
X151241979Y-106867236D02*
X151194360Y-106914856D01*
X151194360Y-106914856D02*
X151051503Y-106962475D01*
X151051503Y-106962475D02*
X150956265Y-106962475D01*
X150956265Y-106962475D02*
X150813408Y-106914856D01*
X150813408Y-106914856D02*
X150718170Y-106819617D01*
X150718170Y-106819617D02*
X150670551Y-106724379D01*
X150670551Y-106724379D02*
X150622932Y-106533903D01*
X150622932Y-106533903D02*
X150622932Y-106391046D01*
X150622932Y-106391046D02*
X150670551Y-106200570D01*
X150670551Y-106200570D02*
X150718170Y-106105332D01*
X150718170Y-106105332D02*
X150813408Y-106010094D01*
X150813408Y-106010094D02*
X150956265Y-105962475D01*
X150956265Y-105962475D02*
X151051503Y-105962475D01*
X151051503Y-105962475D02*
X151194360Y-106010094D01*
X151194360Y-106010094D02*
X151241979Y-106057713D01*
X151670551Y-106962475D02*
X151670551Y-105962475D01*
X151670551Y-105962475D02*
X152051503Y-105962475D01*
X152051503Y-105962475D02*
X152146741Y-106010094D01*
X152146741Y-106010094D02*
X152194360Y-106057713D01*
X152194360Y-106057713D02*
X152241979Y-106152951D01*
X152241979Y-106152951D02*
X152241979Y-106295808D01*
X152241979Y-106295808D02*
X152194360Y-106391046D01*
X152194360Y-106391046D02*
X152146741Y-106438665D01*
X152146741Y-106438665D02*
X152051503Y-106486284D01*
X152051503Y-106486284D02*
X151670551Y-106486284D01*
X153384836Y-105914856D02*
X152527694Y-107200570D01*
X153718170Y-106962475D02*
X153718170Y-105962475D01*
X153718170Y-105962475D02*
X154051503Y-106676760D01*
X154051503Y-106676760D02*
X154384836Y-105962475D01*
X154384836Y-105962475D02*
X154384836Y-106962475D01*
X154861027Y-106581522D02*
X155622932Y-106581522D01*
X156527693Y-105962475D02*
X156337217Y-105962475D01*
X156337217Y-105962475D02*
X156241979Y-106010094D01*
X156241979Y-106010094D02*
X156194360Y-106057713D01*
X156194360Y-106057713D02*
X156099122Y-106200570D01*
X156099122Y-106200570D02*
X156051503Y-106391046D01*
X156051503Y-106391046D02*
X156051503Y-106771998D01*
X156051503Y-106771998D02*
X156099122Y-106867236D01*
X156099122Y-106867236D02*
X156146741Y-106914856D01*
X156146741Y-106914856D02*
X156241979Y-106962475D01*
X156241979Y-106962475D02*
X156432455Y-106962475D01*
X156432455Y-106962475D02*
X156527693Y-106914856D01*
X156527693Y-106914856D02*
X156575312Y-106867236D01*
X156575312Y-106867236D02*
X156622931Y-106771998D01*
X156622931Y-106771998D02*
X156622931Y-106533903D01*
X156622931Y-106533903D02*
X156575312Y-106438665D01*
X156575312Y-106438665D02*
X156527693Y-106391046D01*
X156527693Y-106391046D02*
X156432455Y-106343427D01*
X156432455Y-106343427D02*
X156241979Y-106343427D01*
X156241979Y-106343427D02*
X156146741Y-106391046D01*
X156146741Y-106391046D02*
X156099122Y-106438665D01*
X156099122Y-106438665D02*
X156051503Y-106533903D01*
X157527693Y-105962475D02*
X157051503Y-105962475D01*
X157051503Y-105962475D02*
X157003884Y-106438665D01*
X157003884Y-106438665D02*
X157051503Y-106391046D01*
X157051503Y-106391046D02*
X157146741Y-106343427D01*
X157146741Y-106343427D02*
X157384836Y-106343427D01*
X157384836Y-106343427D02*
X157480074Y-106391046D01*
X157480074Y-106391046D02*
X157527693Y-106438665D01*
X157527693Y-106438665D02*
X157575312Y-106533903D01*
X157575312Y-106533903D02*
X157575312Y-106771998D01*
X157575312Y-106771998D02*
X157527693Y-106867236D01*
X157527693Y-106867236D02*
X157480074Y-106914856D01*
X157480074Y-106914856D02*
X157384836Y-106962475D01*
X157384836Y-106962475D02*
X157146741Y-106962475D01*
X157146741Y-106962475D02*
X157051503Y-106914856D01*
X157051503Y-106914856D02*
X157003884Y-106867236D01*
X145003884Y-108572419D02*
X145003884Y-107572419D01*
X145003884Y-107572419D02*
X145384836Y-107572419D01*
X145384836Y-107572419D02*
X145480074Y-107620038D01*
X145480074Y-107620038D02*
X145527693Y-107667657D01*
X145527693Y-107667657D02*
X145575312Y-107762895D01*
X145575312Y-107762895D02*
X145575312Y-107905752D01*
X145575312Y-107905752D02*
X145527693Y-108000990D01*
X145527693Y-108000990D02*
X145480074Y-108048609D01*
X145480074Y-108048609D02*
X145384836Y-108096228D01*
X145384836Y-108096228D02*
X145003884Y-108096228D01*
X146575312Y-108477180D02*
X146527693Y-108524800D01*
X146527693Y-108524800D02*
X146384836Y-108572419D01*
X146384836Y-108572419D02*
X146289598Y-108572419D01*
X146289598Y-108572419D02*
X146146741Y-108524800D01*
X146146741Y-108524800D02*
X146051503Y-108429561D01*
X146051503Y-108429561D02*
X146003884Y-108334323D01*
X146003884Y-108334323D02*
X145956265Y-108143847D01*
X145956265Y-108143847D02*
X145956265Y-108000990D01*
X145956265Y-108000990D02*
X146003884Y-107810514D01*
X146003884Y-107810514D02*
X146051503Y-107715276D01*
X146051503Y-107715276D02*
X146146741Y-107620038D01*
X146146741Y-107620038D02*
X146289598Y-107572419D01*
X146289598Y-107572419D02*
X146384836Y-107572419D01*
X146384836Y-107572419D02*
X146527693Y-107620038D01*
X146527693Y-107620038D02*
X146575312Y-107667657D01*
X147337217Y-108048609D02*
X147480074Y-108096228D01*
X147480074Y-108096228D02*
X147527693Y-108143847D01*
X147527693Y-108143847D02*
X147575312Y-108239085D01*
X147575312Y-108239085D02*
X147575312Y-108381942D01*
X147575312Y-108381942D02*
X147527693Y-108477180D01*
X147527693Y-108477180D02*
X147480074Y-108524800D01*
X147480074Y-108524800D02*
X147384836Y-108572419D01*
X147384836Y-108572419D02*
X147003884Y-108572419D01*
X147003884Y-108572419D02*
X147003884Y-107572419D01*
X147003884Y-107572419D02*
X147337217Y-107572419D01*
X147337217Y-107572419D02*
X147432455Y-107620038D01*
X147432455Y-107620038D02*
X147480074Y-107667657D01*
X147480074Y-107667657D02*
X147527693Y-107762895D01*
X147527693Y-107762895D02*
X147527693Y-107858133D01*
X147527693Y-107858133D02*
X147480074Y-107953371D01*
X147480074Y-107953371D02*
X147432455Y-108000990D01*
X147432455Y-108000990D02*
X147337217Y-108048609D01*
X147337217Y-108048609D02*
X147003884Y-108048609D01*
X149337217Y-108572419D02*
X149003884Y-108096228D01*
X148765789Y-108572419D02*
X148765789Y-107572419D01*
X148765789Y-107572419D02*
X149146741Y-107572419D01*
X149146741Y-107572419D02*
X149241979Y-107620038D01*
X149241979Y-107620038D02*
X149289598Y-107667657D01*
X149289598Y-107667657D02*
X149337217Y-107762895D01*
X149337217Y-107762895D02*
X149337217Y-107905752D01*
X149337217Y-107905752D02*
X149289598Y-108000990D01*
X149289598Y-108000990D02*
X149241979Y-108048609D01*
X149241979Y-108048609D02*
X149146741Y-108096228D01*
X149146741Y-108096228D02*
X148765789Y-108096228D01*
X149765789Y-108048609D02*
X150099122Y-108048609D01*
X150241979Y-108572419D02*
X149765789Y-108572419D01*
X149765789Y-108572419D02*
X149765789Y-107572419D01*
X149765789Y-107572419D02*
X150241979Y-107572419D01*
X150527694Y-107572419D02*
X150861027Y-108572419D01*
X150861027Y-108572419D02*
X151194360Y-107572419D01*
X152241980Y-108286704D02*
X152718170Y-108286704D01*
X152146742Y-108572419D02*
X152480075Y-107572419D01*
X152480075Y-107572419D02*
X152813408Y-108572419D01*
X98372419Y-53196115D02*
X97372419Y-53196115D01*
X97372419Y-53196115D02*
X97372419Y-52815163D01*
X97372419Y-52815163D02*
X97420038Y-52719925D01*
X97420038Y-52719925D02*
X97467657Y-52672306D01*
X97467657Y-52672306D02*
X97562895Y-52624687D01*
X97562895Y-52624687D02*
X97705752Y-52624687D01*
X97705752Y-52624687D02*
X97800990Y-52672306D01*
X97800990Y-52672306D02*
X97848609Y-52719925D01*
X97848609Y-52719925D02*
X97896228Y-52815163D01*
X97896228Y-52815163D02*
X97896228Y-53196115D01*
X98086704Y-52243734D02*
X98086704Y-51767544D01*
X98372419Y-52338972D02*
X97372419Y-52005639D01*
X97372419Y-52005639D02*
X98372419Y-51672306D01*
X97372419Y-50910401D02*
X97372419Y-51100877D01*
X97372419Y-51100877D02*
X97420038Y-51196115D01*
X97420038Y-51196115D02*
X97467657Y-51243734D01*
X97467657Y-51243734D02*
X97610514Y-51338972D01*
X97610514Y-51338972D02*
X97800990Y-51386591D01*
X97800990Y-51386591D02*
X98181942Y-51386591D01*
X98181942Y-51386591D02*
X98277180Y-51338972D01*
X98277180Y-51338972D02*
X98324800Y-51291353D01*
X98324800Y-51291353D02*
X98372419Y-51196115D01*
X98372419Y-51196115D02*
X98372419Y-51005639D01*
X98372419Y-51005639D02*
X98324800Y-50910401D01*
X98324800Y-50910401D02*
X98277180Y-50862782D01*
X98277180Y-50862782D02*
X98181942Y-50815163D01*
X98181942Y-50815163D02*
X97943847Y-50815163D01*
X97943847Y-50815163D02*
X97848609Y-50862782D01*
X97848609Y-50862782D02*
X97800990Y-50910401D01*
X97800990Y-50910401D02*
X97753371Y-51005639D01*
X97753371Y-51005639D02*
X97753371Y-51196115D01*
X97753371Y-51196115D02*
X97800990Y-51291353D01*
X97800990Y-51291353D02*
X97848609Y-51338972D01*
X97848609Y-51338972D02*
X97943847Y-51386591D01*
X89977180Y-50924687D02*
X90024800Y-50972306D01*
X90024800Y-50972306D02*
X90072419Y-51115163D01*
X90072419Y-51115163D02*
X90072419Y-51210401D01*
X90072419Y-51210401D02*
X90024800Y-51353258D01*
X90024800Y-51353258D02*
X89929561Y-51448496D01*
X89929561Y-51448496D02*
X89834323Y-51496115D01*
X89834323Y-51496115D02*
X89643847Y-51543734D01*
X89643847Y-51543734D02*
X89500990Y-51543734D01*
X89500990Y-51543734D02*
X89310514Y-51496115D01*
X89310514Y-51496115D02*
X89215276Y-51448496D01*
X89215276Y-51448496D02*
X89120038Y-51353258D01*
X89120038Y-51353258D02*
X89072419Y-51210401D01*
X89072419Y-51210401D02*
X89072419Y-51115163D01*
X89072419Y-51115163D02*
X89120038Y-50972306D01*
X89120038Y-50972306D02*
X89167657Y-50924687D01*
X89786704Y-50543734D02*
X89786704Y-50067544D01*
X90072419Y-50638972D02*
X89072419Y-50305639D01*
X89072419Y-50305639D02*
X90072419Y-49972306D01*
X89167657Y-49686591D02*
X89120038Y-49638972D01*
X89120038Y-49638972D02*
X89072419Y-49543734D01*
X89072419Y-49543734D02*
X89072419Y-49305639D01*
X89072419Y-49305639D02*
X89120038Y-49210401D01*
X89120038Y-49210401D02*
X89167657Y-49162782D01*
X89167657Y-49162782D02*
X89262895Y-49115163D01*
X89262895Y-49115163D02*
X89358133Y-49115163D01*
X89358133Y-49115163D02*
X89500990Y-49162782D01*
X89500990Y-49162782D02*
X90072419Y-49734210D01*
X90072419Y-49734210D02*
X90072419Y-49115163D01*
X95472419Y-53296115D02*
X94472419Y-53296115D01*
X94472419Y-53296115D02*
X94472419Y-52915163D01*
X94472419Y-52915163D02*
X94520038Y-52819925D01*
X94520038Y-52819925D02*
X94567657Y-52772306D01*
X94567657Y-52772306D02*
X94662895Y-52724687D01*
X94662895Y-52724687D02*
X94805752Y-52724687D01*
X94805752Y-52724687D02*
X94900990Y-52772306D01*
X94900990Y-52772306D02*
X94948609Y-52819925D01*
X94948609Y-52819925D02*
X94996228Y-52915163D01*
X94996228Y-52915163D02*
X94996228Y-53296115D01*
X95186704Y-52343734D02*
X95186704Y-51867544D01*
X95472419Y-52438972D02*
X94472419Y-52105639D01*
X94472419Y-52105639D02*
X95472419Y-51772306D01*
X94472419Y-51534210D02*
X94472419Y-50867544D01*
X94472419Y-50867544D02*
X95472419Y-51296115D01*
X100372419Y-50996115D02*
X99372419Y-50996115D01*
X99372419Y-50996115D02*
X99372419Y-50615163D01*
X99372419Y-50615163D02*
X99420038Y-50519925D01*
X99420038Y-50519925D02*
X99467657Y-50472306D01*
X99467657Y-50472306D02*
X99562895Y-50424687D01*
X99562895Y-50424687D02*
X99705752Y-50424687D01*
X99705752Y-50424687D02*
X99800990Y-50472306D01*
X99800990Y-50472306D02*
X99848609Y-50519925D01*
X99848609Y-50519925D02*
X99896228Y-50615163D01*
X99896228Y-50615163D02*
X99896228Y-50996115D01*
X100086704Y-50043734D02*
X100086704Y-49567544D01*
X100372419Y-50138972D02*
X99372419Y-49805639D01*
X99372419Y-49805639D02*
X100372419Y-49472306D01*
X99372419Y-48662782D02*
X99372419Y-49138972D01*
X99372419Y-49138972D02*
X99848609Y-49186591D01*
X99848609Y-49186591D02*
X99800990Y-49138972D01*
X99800990Y-49138972D02*
X99753371Y-49043734D01*
X99753371Y-49043734D02*
X99753371Y-48805639D01*
X99753371Y-48805639D02*
X99800990Y-48710401D01*
X99800990Y-48710401D02*
X99848609Y-48662782D01*
X99848609Y-48662782D02*
X99943847Y-48615163D01*
X99943847Y-48615163D02*
X100181942Y-48615163D01*
X100181942Y-48615163D02*
X100277180Y-48662782D01*
X100277180Y-48662782D02*
X100324800Y-48710401D01*
X100324800Y-48710401D02*
X100372419Y-48805639D01*
X100372419Y-48805639D02*
X100372419Y-49043734D01*
X100372419Y-49043734D02*
X100324800Y-49138972D01*
X100324800Y-49138972D02*
X100277180Y-49186591D01*
X105191466Y-51496115D02*
X105191466Y-50734211D01*
X105572419Y-51115163D02*
X104810514Y-51115163D01*
X104572419Y-49781830D02*
X104572419Y-50258020D01*
X104572419Y-50258020D02*
X105048609Y-50305639D01*
X105048609Y-50305639D02*
X105000990Y-50258020D01*
X105000990Y-50258020D02*
X104953371Y-50162782D01*
X104953371Y-50162782D02*
X104953371Y-49924687D01*
X104953371Y-49924687D02*
X105000990Y-49829449D01*
X105000990Y-49829449D02*
X105048609Y-49781830D01*
X105048609Y-49781830D02*
X105143847Y-49734211D01*
X105143847Y-49734211D02*
X105381942Y-49734211D01*
X105381942Y-49734211D02*
X105477180Y-49781830D01*
X105477180Y-49781830D02*
X105524800Y-49829449D01*
X105524800Y-49829449D02*
X105572419Y-49924687D01*
X105572419Y-49924687D02*
X105572419Y-50162782D01*
X105572419Y-50162782D02*
X105524800Y-50258020D01*
X105524800Y-50258020D02*
X105477180Y-50305639D01*
X104572419Y-49448496D02*
X105572419Y-49115163D01*
X105572419Y-49115163D02*
X104572419Y-48781830D01*
X74775312Y-96072419D02*
X74441979Y-95596228D01*
X74203884Y-96072419D02*
X74203884Y-95072419D01*
X74203884Y-95072419D02*
X74584836Y-95072419D01*
X74584836Y-95072419D02*
X74680074Y-95120038D01*
X74680074Y-95120038D02*
X74727693Y-95167657D01*
X74727693Y-95167657D02*
X74775312Y-95262895D01*
X74775312Y-95262895D02*
X74775312Y-95405752D01*
X74775312Y-95405752D02*
X74727693Y-95500990D01*
X74727693Y-95500990D02*
X74680074Y-95548609D01*
X74680074Y-95548609D02*
X74584836Y-95596228D01*
X74584836Y-95596228D02*
X74203884Y-95596228D01*
X75394360Y-95072419D02*
X75584836Y-95072419D01*
X75584836Y-95072419D02*
X75680074Y-95120038D01*
X75680074Y-95120038D02*
X75775312Y-95215276D01*
X75775312Y-95215276D02*
X75822931Y-95405752D01*
X75822931Y-95405752D02*
X75822931Y-95739085D01*
X75822931Y-95739085D02*
X75775312Y-95929561D01*
X75775312Y-95929561D02*
X75680074Y-96024800D01*
X75680074Y-96024800D02*
X75584836Y-96072419D01*
X75584836Y-96072419D02*
X75394360Y-96072419D01*
X75394360Y-96072419D02*
X75299122Y-96024800D01*
X75299122Y-96024800D02*
X75203884Y-95929561D01*
X75203884Y-95929561D02*
X75156265Y-95739085D01*
X75156265Y-95739085D02*
X75156265Y-95405752D01*
X75156265Y-95405752D02*
X75203884Y-95215276D01*
X75203884Y-95215276D02*
X75299122Y-95120038D01*
X75299122Y-95120038D02*
X75394360Y-95072419D01*
X76251503Y-96072419D02*
X76251503Y-95072419D01*
X76251503Y-95072419D02*
X76584836Y-95786704D01*
X76584836Y-95786704D02*
X76918169Y-95072419D01*
X76918169Y-95072419D02*
X76918169Y-96072419D01*
X78061027Y-95072419D02*
X78299122Y-96072419D01*
X78299122Y-96072419D02*
X78489598Y-95358133D01*
X78489598Y-95358133D02*
X78680074Y-96072419D01*
X78680074Y-96072419D02*
X78918170Y-95072419D01*
X79299122Y-95548609D02*
X79632455Y-95548609D01*
X79775312Y-96072419D02*
X79299122Y-96072419D01*
X79299122Y-96072419D02*
X79299122Y-95072419D01*
X79299122Y-95072419D02*
X79775312Y-95072419D01*
X87677180Y-51024687D02*
X87724800Y-51072306D01*
X87724800Y-51072306D02*
X87772419Y-51215163D01*
X87772419Y-51215163D02*
X87772419Y-51310401D01*
X87772419Y-51310401D02*
X87724800Y-51453258D01*
X87724800Y-51453258D02*
X87629561Y-51548496D01*
X87629561Y-51548496D02*
X87534323Y-51596115D01*
X87534323Y-51596115D02*
X87343847Y-51643734D01*
X87343847Y-51643734D02*
X87200990Y-51643734D01*
X87200990Y-51643734D02*
X87010514Y-51596115D01*
X87010514Y-51596115D02*
X86915276Y-51548496D01*
X86915276Y-51548496D02*
X86820038Y-51453258D01*
X86820038Y-51453258D02*
X86772419Y-51310401D01*
X86772419Y-51310401D02*
X86772419Y-51215163D01*
X86772419Y-51215163D02*
X86820038Y-51072306D01*
X86820038Y-51072306D02*
X86867657Y-51024687D01*
X87248609Y-50262782D02*
X87296228Y-50119925D01*
X87296228Y-50119925D02*
X87343847Y-50072306D01*
X87343847Y-50072306D02*
X87439085Y-50024687D01*
X87439085Y-50024687D02*
X87581942Y-50024687D01*
X87581942Y-50024687D02*
X87677180Y-50072306D01*
X87677180Y-50072306D02*
X87724800Y-50119925D01*
X87724800Y-50119925D02*
X87772419Y-50215163D01*
X87772419Y-50215163D02*
X87772419Y-50596115D01*
X87772419Y-50596115D02*
X86772419Y-50596115D01*
X86772419Y-50596115D02*
X86772419Y-50262782D01*
X86772419Y-50262782D02*
X86820038Y-50167544D01*
X86820038Y-50167544D02*
X86867657Y-50119925D01*
X86867657Y-50119925D02*
X86962895Y-50072306D01*
X86962895Y-50072306D02*
X87058133Y-50072306D01*
X87058133Y-50072306D02*
X87153371Y-50119925D01*
X87153371Y-50119925D02*
X87200990Y-50167544D01*
X87200990Y-50167544D02*
X87248609Y-50262782D01*
X87248609Y-50262782D02*
X87248609Y-50596115D01*
X86867657Y-49643734D02*
X86820038Y-49596115D01*
X86820038Y-49596115D02*
X86772419Y-49500877D01*
X86772419Y-49500877D02*
X86772419Y-49262782D01*
X86772419Y-49262782D02*
X86820038Y-49167544D01*
X86820038Y-49167544D02*
X86867657Y-49119925D01*
X86867657Y-49119925D02*
X86962895Y-49072306D01*
X86962895Y-49072306D02*
X87058133Y-49072306D01*
X87058133Y-49072306D02*
X87200990Y-49119925D01*
X87200990Y-49119925D02*
X87772419Y-49691353D01*
X87772419Y-49691353D02*
X87772419Y-49072306D01*
X144803884Y-88572419D02*
X144803884Y-87572419D01*
X144803884Y-87572419D02*
X145184836Y-87572419D01*
X145184836Y-87572419D02*
X145280074Y-87620038D01*
X145280074Y-87620038D02*
X145327693Y-87667657D01*
X145327693Y-87667657D02*
X145375312Y-87762895D01*
X145375312Y-87762895D02*
X145375312Y-87905752D01*
X145375312Y-87905752D02*
X145327693Y-88000990D01*
X145327693Y-88000990D02*
X145280074Y-88048609D01*
X145280074Y-88048609D02*
X145184836Y-88096228D01*
X145184836Y-88096228D02*
X144803884Y-88096228D01*
X145803884Y-88572419D02*
X145803884Y-87572419D01*
X146851502Y-88477180D02*
X146803883Y-88524800D01*
X146803883Y-88524800D02*
X146661026Y-88572419D01*
X146661026Y-88572419D02*
X146565788Y-88572419D01*
X146565788Y-88572419D02*
X146422931Y-88524800D01*
X146422931Y-88524800D02*
X146327693Y-88429561D01*
X146327693Y-88429561D02*
X146280074Y-88334323D01*
X146280074Y-88334323D02*
X146232455Y-88143847D01*
X146232455Y-88143847D02*
X146232455Y-88000990D01*
X146232455Y-88000990D02*
X146280074Y-87810514D01*
X146280074Y-87810514D02*
X146327693Y-87715276D01*
X146327693Y-87715276D02*
X146422931Y-87620038D01*
X146422931Y-87620038D02*
X146565788Y-87572419D01*
X146565788Y-87572419D02*
X146661026Y-87572419D01*
X146661026Y-87572419D02*
X146803883Y-87620038D01*
X146803883Y-87620038D02*
X146851502Y-87667657D01*
X148041979Y-88572419D02*
X148041979Y-87572419D01*
X149089597Y-88477180D02*
X149041978Y-88524800D01*
X149041978Y-88524800D02*
X148899121Y-88572419D01*
X148899121Y-88572419D02*
X148803883Y-88572419D01*
X148803883Y-88572419D02*
X148661026Y-88524800D01*
X148661026Y-88524800D02*
X148565788Y-88429561D01*
X148565788Y-88429561D02*
X148518169Y-88334323D01*
X148518169Y-88334323D02*
X148470550Y-88143847D01*
X148470550Y-88143847D02*
X148470550Y-88000990D01*
X148470550Y-88000990D02*
X148518169Y-87810514D01*
X148518169Y-87810514D02*
X148565788Y-87715276D01*
X148565788Y-87715276D02*
X148661026Y-87620038D01*
X148661026Y-87620038D02*
X148803883Y-87572419D01*
X148803883Y-87572419D02*
X148899121Y-87572419D01*
X148899121Y-87572419D02*
X149041978Y-87620038D01*
X149041978Y-87620038D02*
X149089597Y-87667657D01*
X149470550Y-88524800D02*
X149613407Y-88572419D01*
X149613407Y-88572419D02*
X149851502Y-88572419D01*
X149851502Y-88572419D02*
X149946740Y-88524800D01*
X149946740Y-88524800D02*
X149994359Y-88477180D01*
X149994359Y-88477180D02*
X150041978Y-88381942D01*
X150041978Y-88381942D02*
X150041978Y-88286704D01*
X150041978Y-88286704D02*
X149994359Y-88191466D01*
X149994359Y-88191466D02*
X149946740Y-88143847D01*
X149946740Y-88143847D02*
X149851502Y-88096228D01*
X149851502Y-88096228D02*
X149661026Y-88048609D01*
X149661026Y-88048609D02*
X149565788Y-88000990D01*
X149565788Y-88000990D02*
X149518169Y-87953371D01*
X149518169Y-87953371D02*
X149470550Y-87858133D01*
X149470550Y-87858133D02*
X149470550Y-87762895D01*
X149470550Y-87762895D02*
X149518169Y-87667657D01*
X149518169Y-87667657D02*
X149565788Y-87620038D01*
X149565788Y-87620038D02*
X149661026Y-87572419D01*
X149661026Y-87572419D02*
X149899121Y-87572419D01*
X149899121Y-87572419D02*
X150041978Y-87620038D01*
X150470550Y-88572419D02*
X150470550Y-87572419D01*
X150470550Y-87572419D02*
X150851502Y-87572419D01*
X150851502Y-87572419D02*
X150946740Y-87620038D01*
X150946740Y-87620038D02*
X150994359Y-87667657D01*
X150994359Y-87667657D02*
X151041978Y-87762895D01*
X151041978Y-87762895D02*
X151041978Y-87905752D01*
X151041978Y-87905752D02*
X150994359Y-88000990D01*
X150994359Y-88000990D02*
X150946740Y-88048609D01*
X150946740Y-88048609D02*
X150851502Y-88096228D01*
X150851502Y-88096228D02*
X150470550Y-88096228D01*
X72472419Y-45038972D02*
X73472419Y-44705639D01*
X73472419Y-44705639D02*
X72472419Y-44372306D01*
X73472419Y-44038972D02*
X72472419Y-44038972D01*
X73186704Y-43610401D02*
X73186704Y-43134211D01*
X73472419Y-43705639D02*
X72472419Y-43372306D01*
X72472419Y-43372306D02*
X73472419Y-43038973D01*
X88461027Y-43472419D02*
X88794360Y-44472419D01*
X88794360Y-44472419D02*
X89127693Y-43472419D01*
X89461027Y-44472419D02*
X89461027Y-43472419D01*
X89889598Y-44186704D02*
X90365788Y-44186704D01*
X89794360Y-44472419D02*
X90127693Y-43472419D01*
X90127693Y-43472419D02*
X90461026Y-44472419D01*
X91508646Y-44424800D02*
X91651503Y-44472419D01*
X91651503Y-44472419D02*
X91889598Y-44472419D01*
X91889598Y-44472419D02*
X91984836Y-44424800D01*
X91984836Y-44424800D02*
X92032455Y-44377180D01*
X92032455Y-44377180D02*
X92080074Y-44281942D01*
X92080074Y-44281942D02*
X92080074Y-44186704D01*
X92080074Y-44186704D02*
X92032455Y-44091466D01*
X92032455Y-44091466D02*
X91984836Y-44043847D01*
X91984836Y-44043847D02*
X91889598Y-43996228D01*
X91889598Y-43996228D02*
X91699122Y-43948609D01*
X91699122Y-43948609D02*
X91603884Y-43900990D01*
X91603884Y-43900990D02*
X91556265Y-43853371D01*
X91556265Y-43853371D02*
X91508646Y-43758133D01*
X91508646Y-43758133D02*
X91508646Y-43662895D01*
X91508646Y-43662895D02*
X91556265Y-43567657D01*
X91556265Y-43567657D02*
X91603884Y-43520038D01*
X91603884Y-43520038D02*
X91699122Y-43472419D01*
X91699122Y-43472419D02*
X91937217Y-43472419D01*
X91937217Y-43472419D02*
X92080074Y-43520038D01*
X92508646Y-44472419D02*
X92508646Y-43472419D01*
X92508646Y-43472419D02*
X92889598Y-43472419D01*
X92889598Y-43472419D02*
X92984836Y-43520038D01*
X92984836Y-43520038D02*
X93032455Y-43567657D01*
X93032455Y-43567657D02*
X93080074Y-43662895D01*
X93080074Y-43662895D02*
X93080074Y-43805752D01*
X93080074Y-43805752D02*
X93032455Y-43900990D01*
X93032455Y-43900990D02*
X92984836Y-43948609D01*
X92984836Y-43948609D02*
X92889598Y-43996228D01*
X92889598Y-43996228D02*
X92508646Y-43996228D01*
X93461027Y-44186704D02*
X93937217Y-44186704D01*
X93365789Y-44472419D02*
X93699122Y-43472419D01*
X93699122Y-43472419D02*
X94032455Y-44472419D01*
X94937217Y-44472419D02*
X94603884Y-43996228D01*
X94365789Y-44472419D02*
X94365789Y-43472419D01*
X94365789Y-43472419D02*
X94746741Y-43472419D01*
X94746741Y-43472419D02*
X94841979Y-43520038D01*
X94841979Y-43520038D02*
X94889598Y-43567657D01*
X94889598Y-43567657D02*
X94937217Y-43662895D01*
X94937217Y-43662895D02*
X94937217Y-43805752D01*
X94937217Y-43805752D02*
X94889598Y-43900990D01*
X94889598Y-43900990D02*
X94841979Y-43948609D01*
X94841979Y-43948609D02*
X94746741Y-43996228D01*
X94746741Y-43996228D02*
X94365789Y-43996228D01*
X95365789Y-43948609D02*
X95699122Y-43948609D01*
X95841979Y-44472419D02*
X95365789Y-44472419D01*
X95365789Y-44472419D02*
X95365789Y-43472419D01*
X95365789Y-43472419D02*
X95841979Y-43472419D01*
X97032456Y-44472419D02*
X97032456Y-43472419D01*
X97032456Y-43472419D02*
X97413408Y-43472419D01*
X97413408Y-43472419D02*
X97508646Y-43520038D01*
X97508646Y-43520038D02*
X97556265Y-43567657D01*
X97556265Y-43567657D02*
X97603884Y-43662895D01*
X97603884Y-43662895D02*
X97603884Y-43805752D01*
X97603884Y-43805752D02*
X97556265Y-43900990D01*
X97556265Y-43900990D02*
X97508646Y-43948609D01*
X97508646Y-43948609D02*
X97413408Y-43996228D01*
X97413408Y-43996228D02*
X97032456Y-43996228D01*
X98032456Y-44472419D02*
X98032456Y-43472419D01*
X98508646Y-44472419D02*
X98508646Y-43472419D01*
X98508646Y-43472419D02*
X99080074Y-44472419D01*
X99080074Y-44472419D02*
X99080074Y-43472419D01*
X99508646Y-44424800D02*
X99651503Y-44472419D01*
X99651503Y-44472419D02*
X99889598Y-44472419D01*
X99889598Y-44472419D02*
X99984836Y-44424800D01*
X99984836Y-44424800D02*
X100032455Y-44377180D01*
X100032455Y-44377180D02*
X100080074Y-44281942D01*
X100080074Y-44281942D02*
X100080074Y-44186704D01*
X100080074Y-44186704D02*
X100032455Y-44091466D01*
X100032455Y-44091466D02*
X99984836Y-44043847D01*
X99984836Y-44043847D02*
X99889598Y-43996228D01*
X99889598Y-43996228D02*
X99699122Y-43948609D01*
X99699122Y-43948609D02*
X99603884Y-43900990D01*
X99603884Y-43900990D02*
X99556265Y-43853371D01*
X99556265Y-43853371D02*
X99508646Y-43758133D01*
X99508646Y-43758133D02*
X99508646Y-43662895D01*
X99508646Y-43662895D02*
X99556265Y-43567657D01*
X99556265Y-43567657D02*
X99603884Y-43520038D01*
X99603884Y-43520038D02*
X99699122Y-43472419D01*
X99699122Y-43472419D02*
X99937217Y-43472419D01*
X99937217Y-43472419D02*
X100080074Y-43520038D01*
X84220038Y-51172306D02*
X84172419Y-51267544D01*
X84172419Y-51267544D02*
X84172419Y-51410401D01*
X84172419Y-51410401D02*
X84220038Y-51553258D01*
X84220038Y-51553258D02*
X84315276Y-51648496D01*
X84315276Y-51648496D02*
X84410514Y-51696115D01*
X84410514Y-51696115D02*
X84600990Y-51743734D01*
X84600990Y-51743734D02*
X84743847Y-51743734D01*
X84743847Y-51743734D02*
X84934323Y-51696115D01*
X84934323Y-51696115D02*
X85029561Y-51648496D01*
X85029561Y-51648496D02*
X85124800Y-51553258D01*
X85124800Y-51553258D02*
X85172419Y-51410401D01*
X85172419Y-51410401D02*
X85172419Y-51315163D01*
X85172419Y-51315163D02*
X85124800Y-51172306D01*
X85124800Y-51172306D02*
X85077180Y-51124687D01*
X85077180Y-51124687D02*
X84743847Y-51124687D01*
X84743847Y-51124687D02*
X84743847Y-51315163D01*
X85172419Y-50696115D02*
X84172419Y-50696115D01*
X84172419Y-50696115D02*
X85172419Y-50124687D01*
X85172419Y-50124687D02*
X84172419Y-50124687D01*
X85172419Y-49648496D02*
X84172419Y-49648496D01*
X84172419Y-49648496D02*
X84172419Y-49410401D01*
X84172419Y-49410401D02*
X84220038Y-49267544D01*
X84220038Y-49267544D02*
X84315276Y-49172306D01*
X84315276Y-49172306D02*
X84410514Y-49124687D01*
X84410514Y-49124687D02*
X84600990Y-49077068D01*
X84600990Y-49077068D02*
X84743847Y-49077068D01*
X84743847Y-49077068D02*
X84934323Y-49124687D01*
X84934323Y-49124687D02*
X85029561Y-49172306D01*
X85029561Y-49172306D02*
X85124800Y-49267544D01*
X85124800Y-49267544D02*
X85172419Y-49410401D01*
X85172419Y-49410401D02*
X85172419Y-49648496D01*
X69772419Y-44524687D02*
X69296228Y-44858020D01*
X69772419Y-45096115D02*
X68772419Y-45096115D01*
X68772419Y-45096115D02*
X68772419Y-44715163D01*
X68772419Y-44715163D02*
X68820038Y-44619925D01*
X68820038Y-44619925D02*
X68867657Y-44572306D01*
X68867657Y-44572306D02*
X68962895Y-44524687D01*
X68962895Y-44524687D02*
X69105752Y-44524687D01*
X69105752Y-44524687D02*
X69200990Y-44572306D01*
X69200990Y-44572306D02*
X69248609Y-44619925D01*
X69248609Y-44619925D02*
X69296228Y-44715163D01*
X69296228Y-44715163D02*
X69296228Y-45096115D01*
X68772419Y-43905639D02*
X68772419Y-43715163D01*
X68772419Y-43715163D02*
X68820038Y-43619925D01*
X68820038Y-43619925D02*
X68915276Y-43524687D01*
X68915276Y-43524687D02*
X69105752Y-43477068D01*
X69105752Y-43477068D02*
X69439085Y-43477068D01*
X69439085Y-43477068D02*
X69629561Y-43524687D01*
X69629561Y-43524687D02*
X69724800Y-43619925D01*
X69724800Y-43619925D02*
X69772419Y-43715163D01*
X69772419Y-43715163D02*
X69772419Y-43905639D01*
X69772419Y-43905639D02*
X69724800Y-44000877D01*
X69724800Y-44000877D02*
X69629561Y-44096115D01*
X69629561Y-44096115D02*
X69439085Y-44143734D01*
X69439085Y-44143734D02*
X69105752Y-44143734D01*
X69105752Y-44143734D02*
X68915276Y-44096115D01*
X68915276Y-44096115D02*
X68820038Y-44000877D01*
X68820038Y-44000877D02*
X68772419Y-43905639D01*
X69772419Y-43048496D02*
X68772419Y-43048496D01*
X68772419Y-43048496D02*
X69486704Y-42715163D01*
X69486704Y-42715163D02*
X68772419Y-42381830D01*
X68772419Y-42381830D02*
X69772419Y-42381830D01*
D11*
X69199819Y-62861904D02*
X70009342Y-62861904D01*
X70009342Y-62861904D02*
X70104580Y-62814285D01*
X70104580Y-62814285D02*
X70152200Y-62766666D01*
X70152200Y-62766666D02*
X70199819Y-62671428D01*
X70199819Y-62671428D02*
X70199819Y-62480952D01*
X70199819Y-62480952D02*
X70152200Y-62385714D01*
X70152200Y-62385714D02*
X70104580Y-62338095D01*
X70104580Y-62338095D02*
X70009342Y-62290476D01*
X70009342Y-62290476D02*
X69199819Y-62290476D01*
X69199819Y-61338095D02*
X69199819Y-61814285D01*
X69199819Y-61814285D02*
X69676009Y-61861904D01*
X69676009Y-61861904D02*
X69628390Y-61814285D01*
X69628390Y-61814285D02*
X69580771Y-61719047D01*
X69580771Y-61719047D02*
X69580771Y-61480952D01*
X69580771Y-61480952D02*
X69628390Y-61385714D01*
X69628390Y-61385714D02*
X69676009Y-61338095D01*
X69676009Y-61338095D02*
X69771247Y-61290476D01*
X69771247Y-61290476D02*
X70009342Y-61290476D01*
X70009342Y-61290476D02*
X70104580Y-61338095D01*
X70104580Y-61338095D02*
X70152200Y-61385714D01*
X70152200Y-61385714D02*
X70199819Y-61480952D01*
X70199819Y-61480952D02*
X70199819Y-61719047D01*
X70199819Y-61719047D02*
X70152200Y-61814285D01*
X70152200Y-61814285D02*
X70104580Y-61861904D01*
X129661905Y-85954819D02*
X129661905Y-84954819D01*
X129661905Y-84954819D02*
X129900000Y-84954819D01*
X129900000Y-84954819D02*
X130042857Y-85002438D01*
X130042857Y-85002438D02*
X130138095Y-85097676D01*
X130138095Y-85097676D02*
X130185714Y-85192914D01*
X130185714Y-85192914D02*
X130233333Y-85383390D01*
X130233333Y-85383390D02*
X130233333Y-85526247D01*
X130233333Y-85526247D02*
X130185714Y-85716723D01*
X130185714Y-85716723D02*
X130138095Y-85811961D01*
X130138095Y-85811961D02*
X130042857Y-85907200D01*
X130042857Y-85907200D02*
X129900000Y-85954819D01*
X129900000Y-85954819D02*
X129661905Y-85954819D01*
X130566667Y-84954819D02*
X131185714Y-84954819D01*
X131185714Y-84954819D02*
X130852381Y-85335771D01*
X130852381Y-85335771D02*
X130995238Y-85335771D01*
X130995238Y-85335771D02*
X131090476Y-85383390D01*
X131090476Y-85383390D02*
X131138095Y-85431009D01*
X131138095Y-85431009D02*
X131185714Y-85526247D01*
X131185714Y-85526247D02*
X131185714Y-85764342D01*
X131185714Y-85764342D02*
X131138095Y-85859580D01*
X131138095Y-85859580D02*
X131090476Y-85907200D01*
X131090476Y-85907200D02*
X130995238Y-85954819D01*
X130995238Y-85954819D02*
X130709524Y-85954819D01*
X130709524Y-85954819D02*
X130614286Y-85907200D01*
X130614286Y-85907200D02*
X130566667Y-85859580D01*
X120904819Y-77481904D02*
X121714342Y-77481904D01*
X121714342Y-77481904D02*
X121809580Y-77434285D01*
X121809580Y-77434285D02*
X121857200Y-77386666D01*
X121857200Y-77386666D02*
X121904819Y-77291428D01*
X121904819Y-77291428D02*
X121904819Y-77100952D01*
X121904819Y-77100952D02*
X121857200Y-77005714D01*
X121857200Y-77005714D02*
X121809580Y-76958095D01*
X121809580Y-76958095D02*
X121714342Y-76910476D01*
X121714342Y-76910476D02*
X120904819Y-76910476D01*
X121238152Y-76005714D02*
X121904819Y-76005714D01*
X120857200Y-76243809D02*
X121571485Y-76481904D01*
X121571485Y-76481904D02*
X121571485Y-75862857D01*
X150634819Y-77061904D02*
X151444342Y-77061904D01*
X151444342Y-77061904D02*
X151539580Y-77014285D01*
X151539580Y-77014285D02*
X151587200Y-76966666D01*
X151587200Y-76966666D02*
X151634819Y-76871428D01*
X151634819Y-76871428D02*
X151634819Y-76680952D01*
X151634819Y-76680952D02*
X151587200Y-76585714D01*
X151587200Y-76585714D02*
X151539580Y-76538095D01*
X151539580Y-76538095D02*
X151444342Y-76490476D01*
X151444342Y-76490476D02*
X150634819Y-76490476D01*
X150634819Y-76109523D02*
X150634819Y-75442857D01*
X150634819Y-75442857D02*
X151634819Y-75871428D01*
X138224819Y-91233333D02*
X138939104Y-91233333D01*
X138939104Y-91233333D02*
X139081961Y-91280952D01*
X139081961Y-91280952D02*
X139177200Y-91376190D01*
X139177200Y-91376190D02*
X139224819Y-91519047D01*
X139224819Y-91519047D02*
X139224819Y-91614285D01*
X138320057Y-90804761D02*
X138272438Y-90757142D01*
X138272438Y-90757142D02*
X138224819Y-90661904D01*
X138224819Y-90661904D02*
X138224819Y-90423809D01*
X138224819Y-90423809D02*
X138272438Y-90328571D01*
X138272438Y-90328571D02*
X138320057Y-90280952D01*
X138320057Y-90280952D02*
X138415295Y-90233333D01*
X138415295Y-90233333D02*
X138510533Y-90233333D01*
X138510533Y-90233333D02*
X138653390Y-90280952D01*
X138653390Y-90280952D02*
X139224819Y-90852380D01*
X139224819Y-90852380D02*
X139224819Y-90233333D01*
X106884819Y-47433333D02*
X107599104Y-47433333D01*
X107599104Y-47433333D02*
X107741961Y-47480952D01*
X107741961Y-47480952D02*
X107837200Y-47576190D01*
X107837200Y-47576190D02*
X107884819Y-47719047D01*
X107884819Y-47719047D02*
X107884819Y-47814285D01*
X106884819Y-47052380D02*
X106884819Y-46433333D01*
X106884819Y-46433333D02*
X107265771Y-46766666D01*
X107265771Y-46766666D02*
X107265771Y-46623809D01*
X107265771Y-46623809D02*
X107313390Y-46528571D01*
X107313390Y-46528571D02*
X107361009Y-46480952D01*
X107361009Y-46480952D02*
X107456247Y-46433333D01*
X107456247Y-46433333D02*
X107694342Y-46433333D01*
X107694342Y-46433333D02*
X107789580Y-46480952D01*
X107789580Y-46480952D02*
X107837200Y-46528571D01*
X107837200Y-46528571D02*
X107884819Y-46623809D01*
X107884819Y-46623809D02*
X107884819Y-46909523D01*
X107884819Y-46909523D02*
X107837200Y-47004761D01*
X107837200Y-47004761D02*
X107789580Y-47052380D01*
X97733333Y-63959580D02*
X97685714Y-64007200D01*
X97685714Y-64007200D02*
X97542857Y-64054819D01*
X97542857Y-64054819D02*
X97447619Y-64054819D01*
X97447619Y-64054819D02*
X97304762Y-64007200D01*
X97304762Y-64007200D02*
X97209524Y-63911961D01*
X97209524Y-63911961D02*
X97161905Y-63816723D01*
X97161905Y-63816723D02*
X97114286Y-63626247D01*
X97114286Y-63626247D02*
X97114286Y-63483390D01*
X97114286Y-63483390D02*
X97161905Y-63292914D01*
X97161905Y-63292914D02*
X97209524Y-63197676D01*
X97209524Y-63197676D02*
X97304762Y-63102438D01*
X97304762Y-63102438D02*
X97447619Y-63054819D01*
X97447619Y-63054819D02*
X97542857Y-63054819D01*
X97542857Y-63054819D02*
X97685714Y-63102438D01*
X97685714Y-63102438D02*
X97733333Y-63150057D01*
X98066667Y-63054819D02*
X98733333Y-63054819D01*
X98733333Y-63054819D02*
X98304762Y-64054819D01*
X74954819Y-51366666D02*
X74478628Y-51699999D01*
X74954819Y-51938094D02*
X73954819Y-51938094D01*
X73954819Y-51938094D02*
X73954819Y-51557142D01*
X73954819Y-51557142D02*
X74002438Y-51461904D01*
X74002438Y-51461904D02*
X74050057Y-51414285D01*
X74050057Y-51414285D02*
X74145295Y-51366666D01*
X74145295Y-51366666D02*
X74288152Y-51366666D01*
X74288152Y-51366666D02*
X74383390Y-51414285D01*
X74383390Y-51414285D02*
X74431009Y-51461904D01*
X74431009Y-51461904D02*
X74478628Y-51557142D01*
X74478628Y-51557142D02*
X74478628Y-51938094D01*
X73954819Y-50461904D02*
X73954819Y-50938094D01*
X73954819Y-50938094D02*
X74431009Y-50985713D01*
X74431009Y-50985713D02*
X74383390Y-50938094D01*
X74383390Y-50938094D02*
X74335771Y-50842856D01*
X74335771Y-50842856D02*
X74335771Y-50604761D01*
X74335771Y-50604761D02*
X74383390Y-50509523D01*
X74383390Y-50509523D02*
X74431009Y-50461904D01*
X74431009Y-50461904D02*
X74526247Y-50414285D01*
X74526247Y-50414285D02*
X74764342Y-50414285D01*
X74764342Y-50414285D02*
X74859580Y-50461904D01*
X74859580Y-50461904D02*
X74907200Y-50509523D01*
X74907200Y-50509523D02*
X74954819Y-50604761D01*
X74954819Y-50604761D02*
X74954819Y-50842856D01*
X74954819Y-50842856D02*
X74907200Y-50938094D01*
X74907200Y-50938094D02*
X74859580Y-50985713D01*
X153569580Y-71991666D02*
X153617200Y-72039285D01*
X153617200Y-72039285D02*
X153664819Y-72182142D01*
X153664819Y-72182142D02*
X153664819Y-72277380D01*
X153664819Y-72277380D02*
X153617200Y-72420237D01*
X153617200Y-72420237D02*
X153521961Y-72515475D01*
X153521961Y-72515475D02*
X153426723Y-72563094D01*
X153426723Y-72563094D02*
X153236247Y-72610713D01*
X153236247Y-72610713D02*
X153093390Y-72610713D01*
X153093390Y-72610713D02*
X152902914Y-72563094D01*
X152902914Y-72563094D02*
X152807676Y-72515475D01*
X152807676Y-72515475D02*
X152712438Y-72420237D01*
X152712438Y-72420237D02*
X152664819Y-72277380D01*
X152664819Y-72277380D02*
X152664819Y-72182142D01*
X152664819Y-72182142D02*
X152712438Y-72039285D01*
X152712438Y-72039285D02*
X152760057Y-71991666D01*
X152664819Y-71134523D02*
X152664819Y-71324999D01*
X152664819Y-71324999D02*
X152712438Y-71420237D01*
X152712438Y-71420237D02*
X152760057Y-71467856D01*
X152760057Y-71467856D02*
X152902914Y-71563094D01*
X152902914Y-71563094D02*
X153093390Y-71610713D01*
X153093390Y-71610713D02*
X153474342Y-71610713D01*
X153474342Y-71610713D02*
X153569580Y-71563094D01*
X153569580Y-71563094D02*
X153617200Y-71515475D01*
X153617200Y-71515475D02*
X153664819Y-71420237D01*
X153664819Y-71420237D02*
X153664819Y-71229761D01*
X153664819Y-71229761D02*
X153617200Y-71134523D01*
X153617200Y-71134523D02*
X153569580Y-71086904D01*
X153569580Y-71086904D02*
X153474342Y-71039285D01*
X153474342Y-71039285D02*
X153236247Y-71039285D01*
X153236247Y-71039285D02*
X153141009Y-71086904D01*
X153141009Y-71086904D02*
X153093390Y-71134523D01*
X153093390Y-71134523D02*
X153045771Y-71229761D01*
X153045771Y-71229761D02*
X153045771Y-71420237D01*
X153045771Y-71420237D02*
X153093390Y-71515475D01*
X153093390Y-71515475D02*
X153141009Y-71563094D01*
X153141009Y-71563094D02*
X153236247Y-71610713D01*
X157543333Y-82004580D02*
X157495714Y-82052200D01*
X157495714Y-82052200D02*
X157352857Y-82099819D01*
X157352857Y-82099819D02*
X157257619Y-82099819D01*
X157257619Y-82099819D02*
X157114762Y-82052200D01*
X157114762Y-82052200D02*
X157019524Y-81956961D01*
X157019524Y-81956961D02*
X156971905Y-81861723D01*
X156971905Y-81861723D02*
X156924286Y-81671247D01*
X156924286Y-81671247D02*
X156924286Y-81528390D01*
X156924286Y-81528390D02*
X156971905Y-81337914D01*
X156971905Y-81337914D02*
X157019524Y-81242676D01*
X157019524Y-81242676D02*
X157114762Y-81147438D01*
X157114762Y-81147438D02*
X157257619Y-81099819D01*
X157257619Y-81099819D02*
X157352857Y-81099819D01*
X157352857Y-81099819D02*
X157495714Y-81147438D01*
X157495714Y-81147438D02*
X157543333Y-81195057D01*
X158400476Y-81433152D02*
X158400476Y-82099819D01*
X158162381Y-81052200D02*
X157924286Y-81766485D01*
X157924286Y-81766485D02*
X158543333Y-81766485D01*
X155116666Y-69754819D02*
X155116666Y-70469104D01*
X155116666Y-70469104D02*
X155069047Y-70611961D01*
X155069047Y-70611961D02*
X154973809Y-70707200D01*
X154973809Y-70707200D02*
X154830952Y-70754819D01*
X154830952Y-70754819D02*
X154735714Y-70754819D01*
X156021428Y-70088152D02*
X156021428Y-70754819D01*
X155783333Y-69707200D02*
X155545238Y-70421485D01*
X155545238Y-70421485D02*
X156164285Y-70421485D01*
X129861905Y-75354819D02*
X129861905Y-74354819D01*
X129861905Y-74354819D02*
X130100000Y-74354819D01*
X130100000Y-74354819D02*
X130242857Y-74402438D01*
X130242857Y-74402438D02*
X130338095Y-74497676D01*
X130338095Y-74497676D02*
X130385714Y-74592914D01*
X130385714Y-74592914D02*
X130433333Y-74783390D01*
X130433333Y-74783390D02*
X130433333Y-74926247D01*
X130433333Y-74926247D02*
X130385714Y-75116723D01*
X130385714Y-75116723D02*
X130338095Y-75211961D01*
X130338095Y-75211961D02*
X130242857Y-75307200D01*
X130242857Y-75307200D02*
X130100000Y-75354819D01*
X130100000Y-75354819D02*
X129861905Y-75354819D01*
X130814286Y-74450057D02*
X130861905Y-74402438D01*
X130861905Y-74402438D02*
X130957143Y-74354819D01*
X130957143Y-74354819D02*
X131195238Y-74354819D01*
X131195238Y-74354819D02*
X131290476Y-74402438D01*
X131290476Y-74402438D02*
X131338095Y-74450057D01*
X131338095Y-74450057D02*
X131385714Y-74545295D01*
X131385714Y-74545295D02*
X131385714Y-74640533D01*
X131385714Y-74640533D02*
X131338095Y-74783390D01*
X131338095Y-74783390D02*
X130766667Y-75354819D01*
X130766667Y-75354819D02*
X131385714Y-75354819D01*
X104661905Y-58554819D02*
X104661905Y-57554819D01*
X104661905Y-57554819D02*
X104900000Y-57554819D01*
X104900000Y-57554819D02*
X105042857Y-57602438D01*
X105042857Y-57602438D02*
X105138095Y-57697676D01*
X105138095Y-57697676D02*
X105185714Y-57792914D01*
X105185714Y-57792914D02*
X105233333Y-57983390D01*
X105233333Y-57983390D02*
X105233333Y-58126247D01*
X105233333Y-58126247D02*
X105185714Y-58316723D01*
X105185714Y-58316723D02*
X105138095Y-58411961D01*
X105138095Y-58411961D02*
X105042857Y-58507200D01*
X105042857Y-58507200D02*
X104900000Y-58554819D01*
X104900000Y-58554819D02*
X104661905Y-58554819D01*
X105804762Y-57983390D02*
X105709524Y-57935771D01*
X105709524Y-57935771D02*
X105661905Y-57888152D01*
X105661905Y-57888152D02*
X105614286Y-57792914D01*
X105614286Y-57792914D02*
X105614286Y-57745295D01*
X105614286Y-57745295D02*
X105661905Y-57650057D01*
X105661905Y-57650057D02*
X105709524Y-57602438D01*
X105709524Y-57602438D02*
X105804762Y-57554819D01*
X105804762Y-57554819D02*
X105995238Y-57554819D01*
X105995238Y-57554819D02*
X106090476Y-57602438D01*
X106090476Y-57602438D02*
X106138095Y-57650057D01*
X106138095Y-57650057D02*
X106185714Y-57745295D01*
X106185714Y-57745295D02*
X106185714Y-57792914D01*
X106185714Y-57792914D02*
X106138095Y-57888152D01*
X106138095Y-57888152D02*
X106090476Y-57935771D01*
X106090476Y-57935771D02*
X105995238Y-57983390D01*
X105995238Y-57983390D02*
X105804762Y-57983390D01*
X105804762Y-57983390D02*
X105709524Y-58031009D01*
X105709524Y-58031009D02*
X105661905Y-58078628D01*
X105661905Y-58078628D02*
X105614286Y-58173866D01*
X105614286Y-58173866D02*
X105614286Y-58364342D01*
X105614286Y-58364342D02*
X105661905Y-58459580D01*
X105661905Y-58459580D02*
X105709524Y-58507200D01*
X105709524Y-58507200D02*
X105804762Y-58554819D01*
X105804762Y-58554819D02*
X105995238Y-58554819D01*
X105995238Y-58554819D02*
X106090476Y-58507200D01*
X106090476Y-58507200D02*
X106138095Y-58459580D01*
X106138095Y-58459580D02*
X106185714Y-58364342D01*
X106185714Y-58364342D02*
X106185714Y-58173866D01*
X106185714Y-58173866D02*
X106138095Y-58078628D01*
X106138095Y-58078628D02*
X106090476Y-58031009D01*
X106090476Y-58031009D02*
X105995238Y-57983390D01*
X141733333Y-104639580D02*
X141685714Y-104687200D01*
X141685714Y-104687200D02*
X141542857Y-104734819D01*
X141542857Y-104734819D02*
X141447619Y-104734819D01*
X141447619Y-104734819D02*
X141304762Y-104687200D01*
X141304762Y-104687200D02*
X141209524Y-104591961D01*
X141209524Y-104591961D02*
X141161905Y-104496723D01*
X141161905Y-104496723D02*
X141114286Y-104306247D01*
X141114286Y-104306247D02*
X141114286Y-104163390D01*
X141114286Y-104163390D02*
X141161905Y-103972914D01*
X141161905Y-103972914D02*
X141209524Y-103877676D01*
X141209524Y-103877676D02*
X141304762Y-103782438D01*
X141304762Y-103782438D02*
X141447619Y-103734819D01*
X141447619Y-103734819D02*
X141542857Y-103734819D01*
X141542857Y-103734819D02*
X141685714Y-103782438D01*
X141685714Y-103782438D02*
X141733333Y-103830057D01*
X142685714Y-104734819D02*
X142114286Y-104734819D01*
X142400000Y-104734819D02*
X142400000Y-103734819D01*
X142400000Y-103734819D02*
X142304762Y-103877676D01*
X142304762Y-103877676D02*
X142209524Y-103972914D01*
X142209524Y-103972914D02*
X142114286Y-104020533D01*
D10*
X111666666Y-55657419D02*
X111666666Y-56371704D01*
X111666666Y-56371704D02*
X111619047Y-56514561D01*
X111619047Y-56514561D02*
X111523809Y-56609800D01*
X111523809Y-56609800D02*
X111380952Y-56657419D01*
X111380952Y-56657419D02*
X111285714Y-56657419D01*
X112619047Y-55657419D02*
X112142857Y-55657419D01*
X112142857Y-55657419D02*
X112095238Y-56133609D01*
X112095238Y-56133609D02*
X112142857Y-56085990D01*
X112142857Y-56085990D02*
X112238095Y-56038371D01*
X112238095Y-56038371D02*
X112476190Y-56038371D01*
X112476190Y-56038371D02*
X112571428Y-56085990D01*
X112571428Y-56085990D02*
X112619047Y-56133609D01*
X112619047Y-56133609D02*
X112666666Y-56228847D01*
X112666666Y-56228847D02*
X112666666Y-56466942D01*
X112666666Y-56466942D02*
X112619047Y-56562180D01*
X112619047Y-56562180D02*
X112571428Y-56609800D01*
X112571428Y-56609800D02*
X112476190Y-56657419D01*
X112476190Y-56657419D02*
X112238095Y-56657419D01*
X112238095Y-56657419D02*
X112142857Y-56609800D01*
X112142857Y-56609800D02*
X112095238Y-56562180D01*
D11*
X80004819Y-88966666D02*
X79528628Y-89299999D01*
X80004819Y-89538094D02*
X79004819Y-89538094D01*
X79004819Y-89538094D02*
X79004819Y-89157142D01*
X79004819Y-89157142D02*
X79052438Y-89061904D01*
X79052438Y-89061904D02*
X79100057Y-89014285D01*
X79100057Y-89014285D02*
X79195295Y-88966666D01*
X79195295Y-88966666D02*
X79338152Y-88966666D01*
X79338152Y-88966666D02*
X79433390Y-89014285D01*
X79433390Y-89014285D02*
X79481009Y-89061904D01*
X79481009Y-89061904D02*
X79528628Y-89157142D01*
X79528628Y-89157142D02*
X79528628Y-89538094D01*
X79004819Y-88633332D02*
X79004819Y-88014285D01*
X79004819Y-88014285D02*
X79385771Y-88347618D01*
X79385771Y-88347618D02*
X79385771Y-88204761D01*
X79385771Y-88204761D02*
X79433390Y-88109523D01*
X79433390Y-88109523D02*
X79481009Y-88061904D01*
X79481009Y-88061904D02*
X79576247Y-88014285D01*
X79576247Y-88014285D02*
X79814342Y-88014285D01*
X79814342Y-88014285D02*
X79909580Y-88061904D01*
X79909580Y-88061904D02*
X79957200Y-88109523D01*
X79957200Y-88109523D02*
X80004819Y-88204761D01*
X80004819Y-88204761D02*
X80004819Y-88490475D01*
X80004819Y-88490475D02*
X79957200Y-88585713D01*
X79957200Y-88585713D02*
X79909580Y-88633332D01*
X78554819Y-47938094D02*
X77554819Y-47938094D01*
X77554819Y-47938094D02*
X77554819Y-47699999D01*
X77554819Y-47699999D02*
X77602438Y-47557142D01*
X77602438Y-47557142D02*
X77697676Y-47461904D01*
X77697676Y-47461904D02*
X77792914Y-47414285D01*
X77792914Y-47414285D02*
X77983390Y-47366666D01*
X77983390Y-47366666D02*
X78126247Y-47366666D01*
X78126247Y-47366666D02*
X78316723Y-47414285D01*
X78316723Y-47414285D02*
X78411961Y-47461904D01*
X78411961Y-47461904D02*
X78507200Y-47557142D01*
X78507200Y-47557142D02*
X78554819Y-47699999D01*
X78554819Y-47699999D02*
X78554819Y-47938094D01*
X77554819Y-47033332D02*
X77554819Y-46366666D01*
X77554819Y-46366666D02*
X78554819Y-46795237D01*
X143314819Y-99556904D02*
X144124342Y-99556904D01*
X144124342Y-99556904D02*
X144219580Y-99509285D01*
X144219580Y-99509285D02*
X144267200Y-99461666D01*
X144267200Y-99461666D02*
X144314819Y-99366428D01*
X144314819Y-99366428D02*
X144314819Y-99175952D01*
X144314819Y-99175952D02*
X144267200Y-99080714D01*
X144267200Y-99080714D02*
X144219580Y-99033095D01*
X144219580Y-99033095D02*
X144124342Y-98985476D01*
X144124342Y-98985476D02*
X143314819Y-98985476D01*
X143410057Y-98556904D02*
X143362438Y-98509285D01*
X143362438Y-98509285D02*
X143314819Y-98414047D01*
X143314819Y-98414047D02*
X143314819Y-98175952D01*
X143314819Y-98175952D02*
X143362438Y-98080714D01*
X143362438Y-98080714D02*
X143410057Y-98033095D01*
X143410057Y-98033095D02*
X143505295Y-97985476D01*
X143505295Y-97985476D02*
X143600533Y-97985476D01*
X143600533Y-97985476D02*
X143743390Y-98033095D01*
X143743390Y-98033095D02*
X144314819Y-98604523D01*
X144314819Y-98604523D02*
X144314819Y-97985476D01*
X68939580Y-70366666D02*
X68987200Y-70414285D01*
X68987200Y-70414285D02*
X69034819Y-70557142D01*
X69034819Y-70557142D02*
X69034819Y-70652380D01*
X69034819Y-70652380D02*
X68987200Y-70795237D01*
X68987200Y-70795237D02*
X68891961Y-70890475D01*
X68891961Y-70890475D02*
X68796723Y-70938094D01*
X68796723Y-70938094D02*
X68606247Y-70985713D01*
X68606247Y-70985713D02*
X68463390Y-70985713D01*
X68463390Y-70985713D02*
X68272914Y-70938094D01*
X68272914Y-70938094D02*
X68177676Y-70890475D01*
X68177676Y-70890475D02*
X68082438Y-70795237D01*
X68082438Y-70795237D02*
X68034819Y-70652380D01*
X68034819Y-70652380D02*
X68034819Y-70557142D01*
X68034819Y-70557142D02*
X68082438Y-70414285D01*
X68082438Y-70414285D02*
X68130057Y-70366666D01*
X68034819Y-70033332D02*
X68034819Y-69414285D01*
X68034819Y-69414285D02*
X68415771Y-69747618D01*
X68415771Y-69747618D02*
X68415771Y-69604761D01*
X68415771Y-69604761D02*
X68463390Y-69509523D01*
X68463390Y-69509523D02*
X68511009Y-69461904D01*
X68511009Y-69461904D02*
X68606247Y-69414285D01*
X68606247Y-69414285D02*
X68844342Y-69414285D01*
X68844342Y-69414285D02*
X68939580Y-69461904D01*
X68939580Y-69461904D02*
X68987200Y-69509523D01*
X68987200Y-69509523D02*
X69034819Y-69604761D01*
X69034819Y-69604761D02*
X69034819Y-69890475D01*
X69034819Y-69890475D02*
X68987200Y-69985713D01*
X68987200Y-69985713D02*
X68939580Y-70033332D01*
X71554819Y-47975594D02*
X70554819Y-47975594D01*
X70554819Y-47975594D02*
X70554819Y-47737499D01*
X70554819Y-47737499D02*
X70602438Y-47594642D01*
X70602438Y-47594642D02*
X70697676Y-47499404D01*
X70697676Y-47499404D02*
X70792914Y-47451785D01*
X70792914Y-47451785D02*
X70983390Y-47404166D01*
X70983390Y-47404166D02*
X71126247Y-47404166D01*
X71126247Y-47404166D02*
X71316723Y-47451785D01*
X71316723Y-47451785D02*
X71411961Y-47499404D01*
X71411961Y-47499404D02*
X71507200Y-47594642D01*
X71507200Y-47594642D02*
X71554819Y-47737499D01*
X71554819Y-47737499D02*
X71554819Y-47975594D01*
X70554819Y-46499404D02*
X70554819Y-46975594D01*
X70554819Y-46975594D02*
X71031009Y-47023213D01*
X71031009Y-47023213D02*
X70983390Y-46975594D01*
X70983390Y-46975594D02*
X70935771Y-46880356D01*
X70935771Y-46880356D02*
X70935771Y-46642261D01*
X70935771Y-46642261D02*
X70983390Y-46547023D01*
X70983390Y-46547023D02*
X71031009Y-46499404D01*
X71031009Y-46499404D02*
X71126247Y-46451785D01*
X71126247Y-46451785D02*
X71364342Y-46451785D01*
X71364342Y-46451785D02*
X71459580Y-46499404D01*
X71459580Y-46499404D02*
X71507200Y-46547023D01*
X71507200Y-46547023D02*
X71554819Y-46642261D01*
X71554819Y-46642261D02*
X71554819Y-46880356D01*
X71554819Y-46880356D02*
X71507200Y-46975594D01*
X71507200Y-46975594D02*
X71459580Y-47023213D01*
X83059819Y-62836904D02*
X83869342Y-62836904D01*
X83869342Y-62836904D02*
X83964580Y-62789285D01*
X83964580Y-62789285D02*
X84012200Y-62741666D01*
X84012200Y-62741666D02*
X84059819Y-62646428D01*
X84059819Y-62646428D02*
X84059819Y-62455952D01*
X84059819Y-62455952D02*
X84012200Y-62360714D01*
X84012200Y-62360714D02*
X83964580Y-62313095D01*
X83964580Y-62313095D02*
X83869342Y-62265476D01*
X83869342Y-62265476D02*
X83059819Y-62265476D01*
X83059819Y-61360714D02*
X83059819Y-61551190D01*
X83059819Y-61551190D02*
X83107438Y-61646428D01*
X83107438Y-61646428D02*
X83155057Y-61694047D01*
X83155057Y-61694047D02*
X83297914Y-61789285D01*
X83297914Y-61789285D02*
X83488390Y-61836904D01*
X83488390Y-61836904D02*
X83869342Y-61836904D01*
X83869342Y-61836904D02*
X83964580Y-61789285D01*
X83964580Y-61789285D02*
X84012200Y-61741666D01*
X84012200Y-61741666D02*
X84059819Y-61646428D01*
X84059819Y-61646428D02*
X84059819Y-61455952D01*
X84059819Y-61455952D02*
X84012200Y-61360714D01*
X84012200Y-61360714D02*
X83964580Y-61313095D01*
X83964580Y-61313095D02*
X83869342Y-61265476D01*
X83869342Y-61265476D02*
X83631247Y-61265476D01*
X83631247Y-61265476D02*
X83536009Y-61313095D01*
X83536009Y-61313095D02*
X83488390Y-61360714D01*
X83488390Y-61360714D02*
X83440771Y-61455952D01*
X83440771Y-61455952D02*
X83440771Y-61646428D01*
X83440771Y-61646428D02*
X83488390Y-61741666D01*
X83488390Y-61741666D02*
X83536009Y-61789285D01*
X83536009Y-61789285D02*
X83631247Y-61836904D01*
X79759819Y-93633333D02*
X80474104Y-93633333D01*
X80474104Y-93633333D02*
X80616961Y-93680952D01*
X80616961Y-93680952D02*
X80712200Y-93776190D01*
X80712200Y-93776190D02*
X80759819Y-93919047D01*
X80759819Y-93919047D02*
X80759819Y-94014285D01*
X80759819Y-92633333D02*
X80759819Y-93204761D01*
X80759819Y-92919047D02*
X79759819Y-92919047D01*
X79759819Y-92919047D02*
X79902676Y-93014285D01*
X79902676Y-93014285D02*
X79997914Y-93109523D01*
X79997914Y-93109523D02*
X80045533Y-93204761D01*
X157580833Y-72504580D02*
X157533214Y-72552200D01*
X157533214Y-72552200D02*
X157390357Y-72599819D01*
X157390357Y-72599819D02*
X157295119Y-72599819D01*
X157295119Y-72599819D02*
X157152262Y-72552200D01*
X157152262Y-72552200D02*
X157057024Y-72456961D01*
X157057024Y-72456961D02*
X157009405Y-72361723D01*
X157009405Y-72361723D02*
X156961786Y-72171247D01*
X156961786Y-72171247D02*
X156961786Y-72028390D01*
X156961786Y-72028390D02*
X157009405Y-71837914D01*
X157009405Y-71837914D02*
X157057024Y-71742676D01*
X157057024Y-71742676D02*
X157152262Y-71647438D01*
X157152262Y-71647438D02*
X157295119Y-71599819D01*
X157295119Y-71599819D02*
X157390357Y-71599819D01*
X157390357Y-71599819D02*
X157533214Y-71647438D01*
X157533214Y-71647438D02*
X157580833Y-71695057D01*
X158152262Y-72028390D02*
X158057024Y-71980771D01*
X158057024Y-71980771D02*
X158009405Y-71933152D01*
X158009405Y-71933152D02*
X157961786Y-71837914D01*
X157961786Y-71837914D02*
X157961786Y-71790295D01*
X157961786Y-71790295D02*
X158009405Y-71695057D01*
X158009405Y-71695057D02*
X158057024Y-71647438D01*
X158057024Y-71647438D02*
X158152262Y-71599819D01*
X158152262Y-71599819D02*
X158342738Y-71599819D01*
X158342738Y-71599819D02*
X158437976Y-71647438D01*
X158437976Y-71647438D02*
X158485595Y-71695057D01*
X158485595Y-71695057D02*
X158533214Y-71790295D01*
X158533214Y-71790295D02*
X158533214Y-71837914D01*
X158533214Y-71837914D02*
X158485595Y-71933152D01*
X158485595Y-71933152D02*
X158437976Y-71980771D01*
X158437976Y-71980771D02*
X158342738Y-72028390D01*
X158342738Y-72028390D02*
X158152262Y-72028390D01*
X158152262Y-72028390D02*
X158057024Y-72076009D01*
X158057024Y-72076009D02*
X158009405Y-72123628D01*
X158009405Y-72123628D02*
X157961786Y-72218866D01*
X157961786Y-72218866D02*
X157961786Y-72409342D01*
X157961786Y-72409342D02*
X158009405Y-72504580D01*
X158009405Y-72504580D02*
X158057024Y-72552200D01*
X158057024Y-72552200D02*
X158152262Y-72599819D01*
X158152262Y-72599819D02*
X158342738Y-72599819D01*
X158342738Y-72599819D02*
X158437976Y-72552200D01*
X158437976Y-72552200D02*
X158485595Y-72504580D01*
X158485595Y-72504580D02*
X158533214Y-72409342D01*
X158533214Y-72409342D02*
X158533214Y-72218866D01*
X158533214Y-72218866D02*
X158485595Y-72123628D01*
X158485595Y-72123628D02*
X158437976Y-72076009D01*
X158437976Y-72076009D02*
X158342738Y-72028390D01*
X154764819Y-79086904D02*
X155574342Y-79086904D01*
X155574342Y-79086904D02*
X155669580Y-79039285D01*
X155669580Y-79039285D02*
X155717200Y-78991666D01*
X155717200Y-78991666D02*
X155764819Y-78896428D01*
X155764819Y-78896428D02*
X155764819Y-78705952D01*
X155764819Y-78705952D02*
X155717200Y-78610714D01*
X155717200Y-78610714D02*
X155669580Y-78563095D01*
X155669580Y-78563095D02*
X155574342Y-78515476D01*
X155574342Y-78515476D02*
X154764819Y-78515476D01*
X155193390Y-77896428D02*
X155145771Y-77991666D01*
X155145771Y-77991666D02*
X155098152Y-78039285D01*
X155098152Y-78039285D02*
X155002914Y-78086904D01*
X155002914Y-78086904D02*
X154955295Y-78086904D01*
X154955295Y-78086904D02*
X154860057Y-78039285D01*
X154860057Y-78039285D02*
X154812438Y-77991666D01*
X154812438Y-77991666D02*
X154764819Y-77896428D01*
X154764819Y-77896428D02*
X154764819Y-77705952D01*
X154764819Y-77705952D02*
X154812438Y-77610714D01*
X154812438Y-77610714D02*
X154860057Y-77563095D01*
X154860057Y-77563095D02*
X154955295Y-77515476D01*
X154955295Y-77515476D02*
X155002914Y-77515476D01*
X155002914Y-77515476D02*
X155098152Y-77563095D01*
X155098152Y-77563095D02*
X155145771Y-77610714D01*
X155145771Y-77610714D02*
X155193390Y-77705952D01*
X155193390Y-77705952D02*
X155193390Y-77896428D01*
X155193390Y-77896428D02*
X155241009Y-77991666D01*
X155241009Y-77991666D02*
X155288628Y-78039285D01*
X155288628Y-78039285D02*
X155383866Y-78086904D01*
X155383866Y-78086904D02*
X155574342Y-78086904D01*
X155574342Y-78086904D02*
X155669580Y-78039285D01*
X155669580Y-78039285D02*
X155717200Y-77991666D01*
X155717200Y-77991666D02*
X155764819Y-77896428D01*
X155764819Y-77896428D02*
X155764819Y-77705952D01*
X155764819Y-77705952D02*
X155717200Y-77610714D01*
X155717200Y-77610714D02*
X155669580Y-77563095D01*
X155669580Y-77563095D02*
X155574342Y-77515476D01*
X155574342Y-77515476D02*
X155383866Y-77515476D01*
X155383866Y-77515476D02*
X155288628Y-77563095D01*
X155288628Y-77563095D02*
X155241009Y-77610714D01*
X155241009Y-77610714D02*
X155193390Y-77705952D01*
X129861905Y-71254819D02*
X129861905Y-70254819D01*
X129861905Y-70254819D02*
X130100000Y-70254819D01*
X130100000Y-70254819D02*
X130242857Y-70302438D01*
X130242857Y-70302438D02*
X130338095Y-70397676D01*
X130338095Y-70397676D02*
X130385714Y-70492914D01*
X130385714Y-70492914D02*
X130433333Y-70683390D01*
X130433333Y-70683390D02*
X130433333Y-70826247D01*
X130433333Y-70826247D02*
X130385714Y-71016723D01*
X130385714Y-71016723D02*
X130338095Y-71111961D01*
X130338095Y-71111961D02*
X130242857Y-71207200D01*
X130242857Y-71207200D02*
X130100000Y-71254819D01*
X130100000Y-71254819D02*
X129861905Y-71254819D01*
X131290476Y-70588152D02*
X131290476Y-71254819D01*
X131052381Y-70207200D02*
X130814286Y-70921485D01*
X130814286Y-70921485D02*
X131433333Y-70921485D01*
X78304819Y-51266666D02*
X77828628Y-51599999D01*
X78304819Y-51838094D02*
X77304819Y-51838094D01*
X77304819Y-51838094D02*
X77304819Y-51457142D01*
X77304819Y-51457142D02*
X77352438Y-51361904D01*
X77352438Y-51361904D02*
X77400057Y-51314285D01*
X77400057Y-51314285D02*
X77495295Y-51266666D01*
X77495295Y-51266666D02*
X77638152Y-51266666D01*
X77638152Y-51266666D02*
X77733390Y-51314285D01*
X77733390Y-51314285D02*
X77781009Y-51361904D01*
X77781009Y-51361904D02*
X77828628Y-51457142D01*
X77828628Y-51457142D02*
X77828628Y-51838094D01*
X77304819Y-50409523D02*
X77304819Y-50599999D01*
X77304819Y-50599999D02*
X77352438Y-50695237D01*
X77352438Y-50695237D02*
X77400057Y-50742856D01*
X77400057Y-50742856D02*
X77542914Y-50838094D01*
X77542914Y-50838094D02*
X77733390Y-50885713D01*
X77733390Y-50885713D02*
X78114342Y-50885713D01*
X78114342Y-50885713D02*
X78209580Y-50838094D01*
X78209580Y-50838094D02*
X78257200Y-50790475D01*
X78257200Y-50790475D02*
X78304819Y-50695237D01*
X78304819Y-50695237D02*
X78304819Y-50504761D01*
X78304819Y-50504761D02*
X78257200Y-50409523D01*
X78257200Y-50409523D02*
X78209580Y-50361904D01*
X78209580Y-50361904D02*
X78114342Y-50314285D01*
X78114342Y-50314285D02*
X77876247Y-50314285D01*
X77876247Y-50314285D02*
X77781009Y-50361904D01*
X77781009Y-50361904D02*
X77733390Y-50409523D01*
X77733390Y-50409523D02*
X77685771Y-50504761D01*
X77685771Y-50504761D02*
X77685771Y-50695237D01*
X77685771Y-50695237D02*
X77733390Y-50790475D01*
X77733390Y-50790475D02*
X77781009Y-50838094D01*
X77781009Y-50838094D02*
X77876247Y-50885713D01*
X124604819Y-86466666D02*
X124128628Y-86799999D01*
X124604819Y-87038094D02*
X123604819Y-87038094D01*
X123604819Y-87038094D02*
X123604819Y-86657142D01*
X123604819Y-86657142D02*
X123652438Y-86561904D01*
X123652438Y-86561904D02*
X123700057Y-86514285D01*
X123700057Y-86514285D02*
X123795295Y-86466666D01*
X123795295Y-86466666D02*
X123938152Y-86466666D01*
X123938152Y-86466666D02*
X124033390Y-86514285D01*
X124033390Y-86514285D02*
X124081009Y-86561904D01*
X124081009Y-86561904D02*
X124128628Y-86657142D01*
X124128628Y-86657142D02*
X124128628Y-87038094D01*
X124604819Y-85514285D02*
X124604819Y-86085713D01*
X124604819Y-85799999D02*
X123604819Y-85799999D01*
X123604819Y-85799999D02*
X123747676Y-85895237D01*
X123747676Y-85895237D02*
X123842914Y-85990475D01*
X123842914Y-85990475D02*
X123890533Y-86085713D01*
X124254819Y-73866666D02*
X123778628Y-74199999D01*
X124254819Y-74438094D02*
X123254819Y-74438094D01*
X123254819Y-74438094D02*
X123254819Y-74057142D01*
X123254819Y-74057142D02*
X123302438Y-73961904D01*
X123302438Y-73961904D02*
X123350057Y-73914285D01*
X123350057Y-73914285D02*
X123445295Y-73866666D01*
X123445295Y-73866666D02*
X123588152Y-73866666D01*
X123588152Y-73866666D02*
X123683390Y-73914285D01*
X123683390Y-73914285D02*
X123731009Y-73961904D01*
X123731009Y-73961904D02*
X123778628Y-74057142D01*
X123778628Y-74057142D02*
X123778628Y-74438094D01*
X123350057Y-73485713D02*
X123302438Y-73438094D01*
X123302438Y-73438094D02*
X123254819Y-73342856D01*
X123254819Y-73342856D02*
X123254819Y-73104761D01*
X123254819Y-73104761D02*
X123302438Y-73009523D01*
X123302438Y-73009523D02*
X123350057Y-72961904D01*
X123350057Y-72961904D02*
X123445295Y-72914285D01*
X123445295Y-72914285D02*
X123540533Y-72914285D01*
X123540533Y-72914285D02*
X123683390Y-72961904D01*
X123683390Y-72961904D02*
X124254819Y-73533332D01*
X124254819Y-73533332D02*
X124254819Y-72914285D01*
X85057142Y-54754580D02*
X85009523Y-54802200D01*
X85009523Y-54802200D02*
X84866666Y-54849819D01*
X84866666Y-54849819D02*
X84771428Y-54849819D01*
X84771428Y-54849819D02*
X84628571Y-54802200D01*
X84628571Y-54802200D02*
X84533333Y-54706961D01*
X84533333Y-54706961D02*
X84485714Y-54611723D01*
X84485714Y-54611723D02*
X84438095Y-54421247D01*
X84438095Y-54421247D02*
X84438095Y-54278390D01*
X84438095Y-54278390D02*
X84485714Y-54087914D01*
X84485714Y-54087914D02*
X84533333Y-53992676D01*
X84533333Y-53992676D02*
X84628571Y-53897438D01*
X84628571Y-53897438D02*
X84771428Y-53849819D01*
X84771428Y-53849819D02*
X84866666Y-53849819D01*
X84866666Y-53849819D02*
X85009523Y-53897438D01*
X85009523Y-53897438D02*
X85057142Y-53945057D01*
X86009523Y-54849819D02*
X85438095Y-54849819D01*
X85723809Y-54849819D02*
X85723809Y-53849819D01*
X85723809Y-53849819D02*
X85628571Y-53992676D01*
X85628571Y-53992676D02*
X85533333Y-54087914D01*
X85533333Y-54087914D02*
X85438095Y-54135533D01*
X86390476Y-53945057D02*
X86438095Y-53897438D01*
X86438095Y-53897438D02*
X86533333Y-53849819D01*
X86533333Y-53849819D02*
X86771428Y-53849819D01*
X86771428Y-53849819D02*
X86866666Y-53897438D01*
X86866666Y-53897438D02*
X86914285Y-53945057D01*
X86914285Y-53945057D02*
X86961904Y-54040295D01*
X86961904Y-54040295D02*
X86961904Y-54135533D01*
X86961904Y-54135533D02*
X86914285Y-54278390D01*
X86914285Y-54278390D02*
X86342857Y-54849819D01*
X86342857Y-54849819D02*
X86961904Y-54849819D01*
X73354819Y-91238094D02*
X72354819Y-91238094D01*
X72354819Y-91238094D02*
X72354819Y-90999999D01*
X72354819Y-90999999D02*
X72402438Y-90857142D01*
X72402438Y-90857142D02*
X72497676Y-90761904D01*
X72497676Y-90761904D02*
X72592914Y-90714285D01*
X72592914Y-90714285D02*
X72783390Y-90666666D01*
X72783390Y-90666666D02*
X72926247Y-90666666D01*
X72926247Y-90666666D02*
X73116723Y-90714285D01*
X73116723Y-90714285D02*
X73211961Y-90761904D01*
X73211961Y-90761904D02*
X73307200Y-90857142D01*
X73307200Y-90857142D02*
X73354819Y-90999999D01*
X73354819Y-90999999D02*
X73354819Y-91238094D01*
X73354819Y-90190475D02*
X73354819Y-89999999D01*
X73354819Y-89999999D02*
X73307200Y-89904761D01*
X73307200Y-89904761D02*
X73259580Y-89857142D01*
X73259580Y-89857142D02*
X73116723Y-89761904D01*
X73116723Y-89761904D02*
X72926247Y-89714285D01*
X72926247Y-89714285D02*
X72545295Y-89714285D01*
X72545295Y-89714285D02*
X72450057Y-89761904D01*
X72450057Y-89761904D02*
X72402438Y-89809523D01*
X72402438Y-89809523D02*
X72354819Y-89904761D01*
X72354819Y-89904761D02*
X72354819Y-90095237D01*
X72354819Y-90095237D02*
X72402438Y-90190475D01*
X72402438Y-90190475D02*
X72450057Y-90238094D01*
X72450057Y-90238094D02*
X72545295Y-90285713D01*
X72545295Y-90285713D02*
X72783390Y-90285713D01*
X72783390Y-90285713D02*
X72878628Y-90238094D01*
X72878628Y-90238094D02*
X72926247Y-90190475D01*
X72926247Y-90190475D02*
X72973866Y-90095237D01*
X72973866Y-90095237D02*
X72973866Y-89904761D01*
X72973866Y-89904761D02*
X72926247Y-89809523D01*
X72926247Y-89809523D02*
X72878628Y-89761904D01*
X72878628Y-89761904D02*
X72783390Y-89714285D01*
D12*
X85680200Y-111794115D02*
X85637867Y-111836449D01*
X85637867Y-111836449D02*
X85510867Y-111878782D01*
X85510867Y-111878782D02*
X85426200Y-111878782D01*
X85426200Y-111878782D02*
X85299200Y-111836449D01*
X85299200Y-111836449D02*
X85214534Y-111751782D01*
X85214534Y-111751782D02*
X85172200Y-111667115D01*
X85172200Y-111667115D02*
X85129867Y-111497782D01*
X85129867Y-111497782D02*
X85129867Y-111370782D01*
X85129867Y-111370782D02*
X85172200Y-111201449D01*
X85172200Y-111201449D02*
X85214534Y-111116782D01*
X85214534Y-111116782D02*
X85299200Y-111032115D01*
X85299200Y-111032115D02*
X85426200Y-110989782D01*
X85426200Y-110989782D02*
X85510867Y-110989782D01*
X85510867Y-110989782D02*
X85637867Y-111032115D01*
X85637867Y-111032115D02*
X85680200Y-111074449D01*
X86230534Y-110989782D02*
X86399867Y-110989782D01*
X86399867Y-110989782D02*
X86484534Y-111032115D01*
X86484534Y-111032115D02*
X86569200Y-111116782D01*
X86569200Y-111116782D02*
X86611534Y-111286115D01*
X86611534Y-111286115D02*
X86611534Y-111582449D01*
X86611534Y-111582449D02*
X86569200Y-111751782D01*
X86569200Y-111751782D02*
X86484534Y-111836449D01*
X86484534Y-111836449D02*
X86399867Y-111878782D01*
X86399867Y-111878782D02*
X86230534Y-111878782D01*
X86230534Y-111878782D02*
X86145867Y-111836449D01*
X86145867Y-111836449D02*
X86061200Y-111751782D01*
X86061200Y-111751782D02*
X86018867Y-111582449D01*
X86018867Y-111582449D02*
X86018867Y-111286115D01*
X86018867Y-111286115D02*
X86061200Y-111116782D01*
X86061200Y-111116782D02*
X86145867Y-111032115D01*
X86145867Y-111032115D02*
X86230534Y-110989782D01*
X86992533Y-111878782D02*
X86992533Y-110989782D01*
X86992533Y-110989782D02*
X87500533Y-111878782D01*
X87500533Y-111878782D02*
X87500533Y-110989782D01*
X88389533Y-111878782D02*
X87881533Y-111878782D01*
X88135533Y-111878782D02*
X88135533Y-110989782D01*
X88135533Y-110989782D02*
X88050866Y-111116782D01*
X88050866Y-111116782D02*
X87966200Y-111201449D01*
X87966200Y-111201449D02*
X87881533Y-111243782D01*
D11*
X85339580Y-94466666D02*
X85387200Y-94514285D01*
X85387200Y-94514285D02*
X85434819Y-94657142D01*
X85434819Y-94657142D02*
X85434819Y-94752380D01*
X85434819Y-94752380D02*
X85387200Y-94895237D01*
X85387200Y-94895237D02*
X85291961Y-94990475D01*
X85291961Y-94990475D02*
X85196723Y-95038094D01*
X85196723Y-95038094D02*
X85006247Y-95085713D01*
X85006247Y-95085713D02*
X84863390Y-95085713D01*
X84863390Y-95085713D02*
X84672914Y-95038094D01*
X84672914Y-95038094D02*
X84577676Y-94990475D01*
X84577676Y-94990475D02*
X84482438Y-94895237D01*
X84482438Y-94895237D02*
X84434819Y-94752380D01*
X84434819Y-94752380D02*
X84434819Y-94657142D01*
X84434819Y-94657142D02*
X84482438Y-94514285D01*
X84482438Y-94514285D02*
X84530057Y-94466666D01*
X84530057Y-94085713D02*
X84482438Y-94038094D01*
X84482438Y-94038094D02*
X84434819Y-93942856D01*
X84434819Y-93942856D02*
X84434819Y-93704761D01*
X84434819Y-93704761D02*
X84482438Y-93609523D01*
X84482438Y-93609523D02*
X84530057Y-93561904D01*
X84530057Y-93561904D02*
X84625295Y-93514285D01*
X84625295Y-93514285D02*
X84720533Y-93514285D01*
X84720533Y-93514285D02*
X84863390Y-93561904D01*
X84863390Y-93561904D02*
X85434819Y-94133332D01*
X85434819Y-94133332D02*
X85434819Y-93514285D01*
X74954819Y-47938094D02*
X73954819Y-47938094D01*
X73954819Y-47938094D02*
X73954819Y-47699999D01*
X73954819Y-47699999D02*
X74002438Y-47557142D01*
X74002438Y-47557142D02*
X74097676Y-47461904D01*
X74097676Y-47461904D02*
X74192914Y-47414285D01*
X74192914Y-47414285D02*
X74383390Y-47366666D01*
X74383390Y-47366666D02*
X74526247Y-47366666D01*
X74526247Y-47366666D02*
X74716723Y-47414285D01*
X74716723Y-47414285D02*
X74811961Y-47461904D01*
X74811961Y-47461904D02*
X74907200Y-47557142D01*
X74907200Y-47557142D02*
X74954819Y-47699999D01*
X74954819Y-47699999D02*
X74954819Y-47938094D01*
X73954819Y-46509523D02*
X73954819Y-46699999D01*
X73954819Y-46699999D02*
X74002438Y-46795237D01*
X74002438Y-46795237D02*
X74050057Y-46842856D01*
X74050057Y-46842856D02*
X74192914Y-46938094D01*
X74192914Y-46938094D02*
X74383390Y-46985713D01*
X74383390Y-46985713D02*
X74764342Y-46985713D01*
X74764342Y-46985713D02*
X74859580Y-46938094D01*
X74859580Y-46938094D02*
X74907200Y-46890475D01*
X74907200Y-46890475D02*
X74954819Y-46795237D01*
X74954819Y-46795237D02*
X74954819Y-46604761D01*
X74954819Y-46604761D02*
X74907200Y-46509523D01*
X74907200Y-46509523D02*
X74859580Y-46461904D01*
X74859580Y-46461904D02*
X74764342Y-46414285D01*
X74764342Y-46414285D02*
X74526247Y-46414285D01*
X74526247Y-46414285D02*
X74431009Y-46461904D01*
X74431009Y-46461904D02*
X74383390Y-46509523D01*
X74383390Y-46509523D02*
X74335771Y-46604761D01*
X74335771Y-46604761D02*
X74335771Y-46795237D01*
X74335771Y-46795237D02*
X74383390Y-46890475D01*
X74383390Y-46890475D02*
X74431009Y-46938094D01*
X74431009Y-46938094D02*
X74526247Y-46985713D01*
X139249580Y-80005357D02*
X139297200Y-80052976D01*
X139297200Y-80052976D02*
X139344819Y-80195833D01*
X139344819Y-80195833D02*
X139344819Y-80291071D01*
X139344819Y-80291071D02*
X139297200Y-80433928D01*
X139297200Y-80433928D02*
X139201961Y-80529166D01*
X139201961Y-80529166D02*
X139106723Y-80576785D01*
X139106723Y-80576785D02*
X138916247Y-80624404D01*
X138916247Y-80624404D02*
X138773390Y-80624404D01*
X138773390Y-80624404D02*
X138582914Y-80576785D01*
X138582914Y-80576785D02*
X138487676Y-80529166D01*
X138487676Y-80529166D02*
X138392438Y-80433928D01*
X138392438Y-80433928D02*
X138344819Y-80291071D01*
X138344819Y-80291071D02*
X138344819Y-80195833D01*
X138344819Y-80195833D02*
X138392438Y-80052976D01*
X138392438Y-80052976D02*
X138440057Y-80005357D01*
X139344819Y-79052976D02*
X139344819Y-79624404D01*
X139344819Y-79338690D02*
X138344819Y-79338690D01*
X138344819Y-79338690D02*
X138487676Y-79433928D01*
X138487676Y-79433928D02*
X138582914Y-79529166D01*
X138582914Y-79529166D02*
X138630533Y-79624404D01*
X138344819Y-78433928D02*
X138344819Y-78338690D01*
X138344819Y-78338690D02*
X138392438Y-78243452D01*
X138392438Y-78243452D02*
X138440057Y-78195833D01*
X138440057Y-78195833D02*
X138535295Y-78148214D01*
X138535295Y-78148214D02*
X138725771Y-78100595D01*
X138725771Y-78100595D02*
X138963866Y-78100595D01*
X138963866Y-78100595D02*
X139154342Y-78148214D01*
X139154342Y-78148214D02*
X139249580Y-78195833D01*
X139249580Y-78195833D02*
X139297200Y-78243452D01*
X139297200Y-78243452D02*
X139344819Y-78338690D01*
X139344819Y-78338690D02*
X139344819Y-78433928D01*
X139344819Y-78433928D02*
X139297200Y-78529166D01*
X139297200Y-78529166D02*
X139249580Y-78576785D01*
X139249580Y-78576785D02*
X139154342Y-78624404D01*
X139154342Y-78624404D02*
X138963866Y-78672023D01*
X138963866Y-78672023D02*
X138725771Y-78672023D01*
X138725771Y-78672023D02*
X138535295Y-78624404D01*
X138535295Y-78624404D02*
X138440057Y-78576785D01*
X138440057Y-78576785D02*
X138392438Y-78529166D01*
X138392438Y-78529166D02*
X138344819Y-78433928D01*
X123633333Y-63379580D02*
X123585714Y-63427200D01*
X123585714Y-63427200D02*
X123442857Y-63474819D01*
X123442857Y-63474819D02*
X123347619Y-63474819D01*
X123347619Y-63474819D02*
X123204762Y-63427200D01*
X123204762Y-63427200D02*
X123109524Y-63331961D01*
X123109524Y-63331961D02*
X123061905Y-63236723D01*
X123061905Y-63236723D02*
X123014286Y-63046247D01*
X123014286Y-63046247D02*
X123014286Y-62903390D01*
X123014286Y-62903390D02*
X123061905Y-62712914D01*
X123061905Y-62712914D02*
X123109524Y-62617676D01*
X123109524Y-62617676D02*
X123204762Y-62522438D01*
X123204762Y-62522438D02*
X123347619Y-62474819D01*
X123347619Y-62474819D02*
X123442857Y-62474819D01*
X123442857Y-62474819D02*
X123585714Y-62522438D01*
X123585714Y-62522438D02*
X123633333Y-62570057D01*
X124109524Y-63474819D02*
X124300000Y-63474819D01*
X124300000Y-63474819D02*
X124395238Y-63427200D01*
X124395238Y-63427200D02*
X124442857Y-63379580D01*
X124442857Y-63379580D02*
X124538095Y-63236723D01*
X124538095Y-63236723D02*
X124585714Y-63046247D01*
X124585714Y-63046247D02*
X124585714Y-62665295D01*
X124585714Y-62665295D02*
X124538095Y-62570057D01*
X124538095Y-62570057D02*
X124490476Y-62522438D01*
X124490476Y-62522438D02*
X124395238Y-62474819D01*
X124395238Y-62474819D02*
X124204762Y-62474819D01*
X124204762Y-62474819D02*
X124109524Y-62522438D01*
X124109524Y-62522438D02*
X124061905Y-62570057D01*
X124061905Y-62570057D02*
X124014286Y-62665295D01*
X124014286Y-62665295D02*
X124014286Y-62903390D01*
X124014286Y-62903390D02*
X124061905Y-62998628D01*
X124061905Y-62998628D02*
X124109524Y-63046247D01*
X124109524Y-63046247D02*
X124204762Y-63093866D01*
X124204762Y-63093866D02*
X124395238Y-63093866D01*
X124395238Y-63093866D02*
X124490476Y-63046247D01*
X124490476Y-63046247D02*
X124538095Y-62998628D01*
X124538095Y-62998628D02*
X124585714Y-62903390D01*
X108733333Y-64054819D02*
X108400000Y-63578628D01*
X108161905Y-64054819D02*
X108161905Y-63054819D01*
X108161905Y-63054819D02*
X108542857Y-63054819D01*
X108542857Y-63054819D02*
X108638095Y-63102438D01*
X108638095Y-63102438D02*
X108685714Y-63150057D01*
X108685714Y-63150057D02*
X108733333Y-63245295D01*
X108733333Y-63245295D02*
X108733333Y-63388152D01*
X108733333Y-63388152D02*
X108685714Y-63483390D01*
X108685714Y-63483390D02*
X108638095Y-63531009D01*
X108638095Y-63531009D02*
X108542857Y-63578628D01*
X108542857Y-63578628D02*
X108161905Y-63578628D01*
X109304762Y-63483390D02*
X109209524Y-63435771D01*
X109209524Y-63435771D02*
X109161905Y-63388152D01*
X109161905Y-63388152D02*
X109114286Y-63292914D01*
X109114286Y-63292914D02*
X109114286Y-63245295D01*
X109114286Y-63245295D02*
X109161905Y-63150057D01*
X109161905Y-63150057D02*
X109209524Y-63102438D01*
X109209524Y-63102438D02*
X109304762Y-63054819D01*
X109304762Y-63054819D02*
X109495238Y-63054819D01*
X109495238Y-63054819D02*
X109590476Y-63102438D01*
X109590476Y-63102438D02*
X109638095Y-63150057D01*
X109638095Y-63150057D02*
X109685714Y-63245295D01*
X109685714Y-63245295D02*
X109685714Y-63292914D01*
X109685714Y-63292914D02*
X109638095Y-63388152D01*
X109638095Y-63388152D02*
X109590476Y-63435771D01*
X109590476Y-63435771D02*
X109495238Y-63483390D01*
X109495238Y-63483390D02*
X109304762Y-63483390D01*
X109304762Y-63483390D02*
X109209524Y-63531009D01*
X109209524Y-63531009D02*
X109161905Y-63578628D01*
X109161905Y-63578628D02*
X109114286Y-63673866D01*
X109114286Y-63673866D02*
X109114286Y-63864342D01*
X109114286Y-63864342D02*
X109161905Y-63959580D01*
X109161905Y-63959580D02*
X109209524Y-64007200D01*
X109209524Y-64007200D02*
X109304762Y-64054819D01*
X109304762Y-64054819D02*
X109495238Y-64054819D01*
X109495238Y-64054819D02*
X109590476Y-64007200D01*
X109590476Y-64007200D02*
X109638095Y-63959580D01*
X109638095Y-63959580D02*
X109685714Y-63864342D01*
X109685714Y-63864342D02*
X109685714Y-63673866D01*
X109685714Y-63673866D02*
X109638095Y-63578628D01*
X109638095Y-63578628D02*
X109590476Y-63531009D01*
X109590476Y-63531009D02*
X109495238Y-63483390D01*
X85244819Y-100441904D02*
X86054342Y-100441904D01*
X86054342Y-100441904D02*
X86149580Y-100394285D01*
X86149580Y-100394285D02*
X86197200Y-100346666D01*
X86197200Y-100346666D02*
X86244819Y-100251428D01*
X86244819Y-100251428D02*
X86244819Y-100060952D01*
X86244819Y-100060952D02*
X86197200Y-99965714D01*
X86197200Y-99965714D02*
X86149580Y-99918095D01*
X86149580Y-99918095D02*
X86054342Y-99870476D01*
X86054342Y-99870476D02*
X85244819Y-99870476D01*
X85244819Y-99489523D02*
X85244819Y-98870476D01*
X85244819Y-98870476D02*
X85625771Y-99203809D01*
X85625771Y-99203809D02*
X85625771Y-99060952D01*
X85625771Y-99060952D02*
X85673390Y-98965714D01*
X85673390Y-98965714D02*
X85721009Y-98918095D01*
X85721009Y-98918095D02*
X85816247Y-98870476D01*
X85816247Y-98870476D02*
X86054342Y-98870476D01*
X86054342Y-98870476D02*
X86149580Y-98918095D01*
X86149580Y-98918095D02*
X86197200Y-98965714D01*
X86197200Y-98965714D02*
X86244819Y-99060952D01*
X86244819Y-99060952D02*
X86244819Y-99346666D01*
X86244819Y-99346666D02*
X86197200Y-99441904D01*
X86197200Y-99441904D02*
X86149580Y-99489523D01*
X71454819Y-51366666D02*
X70978628Y-51699999D01*
X71454819Y-51938094D02*
X70454819Y-51938094D01*
X70454819Y-51938094D02*
X70454819Y-51557142D01*
X70454819Y-51557142D02*
X70502438Y-51461904D01*
X70502438Y-51461904D02*
X70550057Y-51414285D01*
X70550057Y-51414285D02*
X70645295Y-51366666D01*
X70645295Y-51366666D02*
X70788152Y-51366666D01*
X70788152Y-51366666D02*
X70883390Y-51414285D01*
X70883390Y-51414285D02*
X70931009Y-51461904D01*
X70931009Y-51461904D02*
X70978628Y-51557142D01*
X70978628Y-51557142D02*
X70978628Y-51938094D01*
X70788152Y-50509523D02*
X71454819Y-50509523D01*
X70407200Y-50747618D02*
X71121485Y-50985713D01*
X71121485Y-50985713D02*
X71121485Y-50366666D01*
X120834819Y-62961904D02*
X121644342Y-62961904D01*
X121644342Y-62961904D02*
X121739580Y-62914285D01*
X121739580Y-62914285D02*
X121787200Y-62866666D01*
X121787200Y-62866666D02*
X121834819Y-62771428D01*
X121834819Y-62771428D02*
X121834819Y-62580952D01*
X121834819Y-62580952D02*
X121787200Y-62485714D01*
X121787200Y-62485714D02*
X121739580Y-62438095D01*
X121739580Y-62438095D02*
X121644342Y-62390476D01*
X121644342Y-62390476D02*
X120834819Y-62390476D01*
X121834819Y-61390476D02*
X121834819Y-61961904D01*
X121834819Y-61676190D02*
X120834819Y-61676190D01*
X120834819Y-61676190D02*
X120977676Y-61771428D01*
X120977676Y-61771428D02*
X121072914Y-61866666D01*
X121072914Y-61866666D02*
X121120533Y-61961904D01*
X129861905Y-81954819D02*
X129861905Y-80954819D01*
X129861905Y-80954819D02*
X130100000Y-80954819D01*
X130100000Y-80954819D02*
X130242857Y-81002438D01*
X130242857Y-81002438D02*
X130338095Y-81097676D01*
X130338095Y-81097676D02*
X130385714Y-81192914D01*
X130385714Y-81192914D02*
X130433333Y-81383390D01*
X130433333Y-81383390D02*
X130433333Y-81526247D01*
X130433333Y-81526247D02*
X130385714Y-81716723D01*
X130385714Y-81716723D02*
X130338095Y-81811961D01*
X130338095Y-81811961D02*
X130242857Y-81907200D01*
X130242857Y-81907200D02*
X130100000Y-81954819D01*
X130100000Y-81954819D02*
X129861905Y-81954819D01*
X131385714Y-81954819D02*
X130814286Y-81954819D01*
X131100000Y-81954819D02*
X131100000Y-80954819D01*
X131100000Y-80954819D02*
X131004762Y-81097676D01*
X131004762Y-81097676D02*
X130909524Y-81192914D01*
X130909524Y-81192914D02*
X130814286Y-81240533D01*
X139314819Y-74991666D02*
X138838628Y-75324999D01*
X139314819Y-75563094D02*
X138314819Y-75563094D01*
X138314819Y-75563094D02*
X138314819Y-75182142D01*
X138314819Y-75182142D02*
X138362438Y-75086904D01*
X138362438Y-75086904D02*
X138410057Y-75039285D01*
X138410057Y-75039285D02*
X138505295Y-74991666D01*
X138505295Y-74991666D02*
X138648152Y-74991666D01*
X138648152Y-74991666D02*
X138743390Y-75039285D01*
X138743390Y-75039285D02*
X138791009Y-75086904D01*
X138791009Y-75086904D02*
X138838628Y-75182142D01*
X138838628Y-75182142D02*
X138838628Y-75563094D01*
X138314819Y-74658332D02*
X138314819Y-73991666D01*
X138314819Y-73991666D02*
X139314819Y-74420237D01*
X70757142Y-54759580D02*
X70709523Y-54807200D01*
X70709523Y-54807200D02*
X70566666Y-54854819D01*
X70566666Y-54854819D02*
X70471428Y-54854819D01*
X70471428Y-54854819D02*
X70328571Y-54807200D01*
X70328571Y-54807200D02*
X70233333Y-54711961D01*
X70233333Y-54711961D02*
X70185714Y-54616723D01*
X70185714Y-54616723D02*
X70138095Y-54426247D01*
X70138095Y-54426247D02*
X70138095Y-54283390D01*
X70138095Y-54283390D02*
X70185714Y-54092914D01*
X70185714Y-54092914D02*
X70233333Y-53997676D01*
X70233333Y-53997676D02*
X70328571Y-53902438D01*
X70328571Y-53902438D02*
X70471428Y-53854819D01*
X70471428Y-53854819D02*
X70566666Y-53854819D01*
X70566666Y-53854819D02*
X70709523Y-53902438D01*
X70709523Y-53902438D02*
X70757142Y-53950057D01*
X71709523Y-54854819D02*
X71138095Y-54854819D01*
X71423809Y-54854819D02*
X71423809Y-53854819D01*
X71423809Y-53854819D02*
X71328571Y-53997676D01*
X71328571Y-53997676D02*
X71233333Y-54092914D01*
X71233333Y-54092914D02*
X71138095Y-54140533D01*
X72661904Y-54854819D02*
X72090476Y-54854819D01*
X72376190Y-54854819D02*
X72376190Y-53854819D01*
X72376190Y-53854819D02*
X72280952Y-53997676D01*
X72280952Y-53997676D02*
X72185714Y-54092914D01*
X72185714Y-54092914D02*
X72090476Y-54140533D01*
X151749580Y-82991666D02*
X151797200Y-83039285D01*
X151797200Y-83039285D02*
X151844819Y-83182142D01*
X151844819Y-83182142D02*
X151844819Y-83277380D01*
X151844819Y-83277380D02*
X151797200Y-83420237D01*
X151797200Y-83420237D02*
X151701961Y-83515475D01*
X151701961Y-83515475D02*
X151606723Y-83563094D01*
X151606723Y-83563094D02*
X151416247Y-83610713D01*
X151416247Y-83610713D02*
X151273390Y-83610713D01*
X151273390Y-83610713D02*
X151082914Y-83563094D01*
X151082914Y-83563094D02*
X150987676Y-83515475D01*
X150987676Y-83515475D02*
X150892438Y-83420237D01*
X150892438Y-83420237D02*
X150844819Y-83277380D01*
X150844819Y-83277380D02*
X150844819Y-83182142D01*
X150844819Y-83182142D02*
X150892438Y-83039285D01*
X150892438Y-83039285D02*
X150940057Y-82991666D01*
X150844819Y-82086904D02*
X150844819Y-82563094D01*
X150844819Y-82563094D02*
X151321009Y-82610713D01*
X151321009Y-82610713D02*
X151273390Y-82563094D01*
X151273390Y-82563094D02*
X151225771Y-82467856D01*
X151225771Y-82467856D02*
X151225771Y-82229761D01*
X151225771Y-82229761D02*
X151273390Y-82134523D01*
X151273390Y-82134523D02*
X151321009Y-82086904D01*
X151321009Y-82086904D02*
X151416247Y-82039285D01*
X151416247Y-82039285D02*
X151654342Y-82039285D01*
X151654342Y-82039285D02*
X151749580Y-82086904D01*
X151749580Y-82086904D02*
X151797200Y-82134523D01*
X151797200Y-82134523D02*
X151844819Y-82229761D01*
X151844819Y-82229761D02*
X151844819Y-82467856D01*
X151844819Y-82467856D02*
X151797200Y-82563094D01*
X151797200Y-82563094D02*
X151749580Y-82610713D01*
D13*
%TO.C,U5*%
X70585000Y-62100000D02*
X70585000Y-64050000D01*
X70585000Y-62100000D02*
X70585000Y-60150000D01*
X80705000Y-62100000D02*
X80705000Y-64050000D01*
X80705000Y-62100000D02*
X80705000Y-60150000D01*
X70640000Y-64800000D02*
X70310000Y-65040000D01*
X70310000Y-64560000D01*
X70640000Y-64800000D01*
G36*
X70640000Y-64800000D02*
G01*
X70310000Y-65040000D01*
X70310000Y-64560000D01*
X70640000Y-64800000D01*
G37*
%TO.C,D3*%
X128140000Y-86300000D02*
X128140000Y-88300000D01*
X128140000Y-86300000D02*
X132150000Y-86300000D01*
X128140000Y-88300000D02*
X132150000Y-88300000D01*
%TO.C,U4*%
X120450000Y-70260000D02*
X69530000Y-70260000D01*
X69530000Y-70260000D02*
X69530000Y-83180000D01*
X120450000Y-75720000D02*
X120450000Y-70260000D01*
X120450000Y-83180000D02*
X120450000Y-77720000D01*
X69530000Y-83180000D02*
X120450000Y-83180000D01*
X120450000Y-77720000D02*
G75*
G02*
X120450000Y-75720000I0J1000000D01*
G01*
%TO.C,U7*%
X150335000Y-76300000D02*
X150335000Y-74350000D01*
X150335000Y-76300000D02*
X150335000Y-78250000D01*
X141465000Y-76300000D02*
X141465000Y-74350000D01*
X141465000Y-76300000D02*
X141465000Y-78250000D01*
X150600000Y-73840000D02*
X150270000Y-73600000D01*
X150600000Y-73360000D01*
X150600000Y-73840000D01*
G36*
X150600000Y-73840000D02*
G01*
X150270000Y-73600000D01*
X150600000Y-73360000D01*
X150600000Y-73840000D01*
G37*
%TO.C,J2*%
X139720000Y-92280000D02*
X139720000Y-90900000D01*
X141100000Y-92280000D02*
X139720000Y-92280000D01*
X142370000Y-92280000D02*
X155180000Y-92280000D01*
X142370000Y-92280000D02*
X142370000Y-89520000D01*
X155180000Y-92280000D02*
X155180000Y-89520000D01*
X142370000Y-89520000D02*
X155180000Y-89520000D01*
%TO.C,J3*%
X106480000Y-45720000D02*
X106480000Y-47100000D01*
X105100000Y-45720000D02*
X106480000Y-45720000D01*
X103830000Y-45720000D02*
X83400000Y-45720000D01*
X103830000Y-45720000D02*
X103830000Y-48480000D01*
X83400000Y-45720000D02*
X83400000Y-48480000D01*
X103830000Y-48480000D02*
X83400000Y-48480000D01*
%TO.C,C7*%
X101661252Y-64335000D02*
X101138748Y-64335000D01*
X101661252Y-62865000D02*
X101138748Y-62865000D01*
%TO.C,R5*%
X73535000Y-50972936D02*
X73535000Y-51427064D01*
X72065000Y-50972936D02*
X72065000Y-51427064D01*
%TO.C,C6*%
X153945000Y-74563748D02*
X153945000Y-75086252D01*
X152475000Y-74563748D02*
X152475000Y-75086252D01*
%TO.C,C4*%
X157448748Y-82590000D02*
X157971252Y-82590000D01*
X157448748Y-84060000D02*
X157971252Y-84060000D01*
D14*
%TO.C,J4*%
X155750000Y-64580000D02*
X155750000Y-46520000D01*
X155750000Y-42300000D02*
X155750000Y-43080000D01*
X149680000Y-67300000D02*
X148895000Y-67300000D01*
X147255000Y-67300000D02*
X146395000Y-67300000D01*
X144755000Y-67300000D02*
X143895000Y-67300000D01*
X142255000Y-67300000D02*
X141395000Y-67300000D01*
X139755000Y-67300000D02*
X138895000Y-67300000D01*
X137255000Y-67300000D02*
X136395000Y-67300000D01*
X134755000Y-67300000D02*
X133895000Y-67300000D01*
X129930000Y-67300000D02*
X129150000Y-67300000D01*
X129150000Y-67300000D02*
X129150000Y-46520000D01*
X129150000Y-42300000D02*
X155750000Y-42300000D01*
X129150000Y-42300000D02*
X129150000Y-43080000D01*
D15*
X135675000Y-69550000D02*
G75*
G02*
X135475000Y-69550000I-100000J0D01*
G01*
X135475000Y-69550000D02*
G75*
G02*
X135675000Y-69550000I100000J0D01*
G01*
D13*
%TO.C,D2*%
X128240000Y-75600000D02*
X128240000Y-77600000D01*
X128240000Y-75600000D02*
X132250000Y-75600000D01*
X128240000Y-77600000D02*
X132250000Y-77600000D01*
%TO.C,D8*%
X103040000Y-59100000D02*
X103040000Y-61100000D01*
X103040000Y-59100000D02*
X107050000Y-59100000D01*
X103040000Y-61100000D02*
X107050000Y-61100000D01*
%TO.C,C1*%
X142161252Y-103335000D02*
X141638748Y-103335000D01*
X142161252Y-101865000D02*
X141638748Y-101865000D01*
D10*
%TO.C,J5*%
X109500000Y-42200000D02*
X109500000Y-46200000D01*
X109500000Y-42200000D02*
X123500000Y-42200000D01*
X109500000Y-49200000D02*
X109500000Y-55200000D01*
X109500000Y-55200000D02*
X123500000Y-55200000D01*
X123500000Y-42200000D02*
X123500000Y-46200000D01*
X123500000Y-55200000D02*
X123500000Y-49200000D01*
D13*
%TO.C,R3*%
X78635000Y-88572936D02*
X78635000Y-89027064D01*
X77165000Y-88572936D02*
X77165000Y-89027064D01*
%TO.C,D7*%
X75240000Y-48785000D02*
X77160000Y-48785000D01*
X77160000Y-48785000D02*
X77160000Y-46100000D01*
X75240000Y-46100000D02*
X75240000Y-48785000D01*
%TO.C,U2*%
X144860000Y-101445000D02*
X155140000Y-101445000D01*
X155140000Y-101445000D02*
X155140000Y-96145000D01*
X144860000Y-99795000D02*
X144860000Y-101445000D01*
X144860000Y-96145000D02*
X144860000Y-97795000D01*
X155140000Y-96145000D02*
X144860000Y-96145000D01*
X144800000Y-103935000D02*
X155200000Y-103935000D01*
X155200000Y-93655000D01*
X144800000Y-93655000D01*
X144800000Y-103935000D01*
X144860000Y-97795000D02*
G75*
G02*
X144860000Y-99795000I0J-1000000D01*
G01*
%TO.C,C3*%
X67635000Y-69938748D02*
X67635000Y-70461252D01*
X66165000Y-69938748D02*
X66165000Y-70461252D01*
%TO.C,D5*%
X68340000Y-48822500D02*
X70260000Y-48822500D01*
X70260000Y-48822500D02*
X70260000Y-46137500D01*
X68340000Y-46137500D02*
X68340000Y-48822500D01*
%TO.C,U6*%
X84640000Y-62100000D02*
X84640000Y-64050000D01*
X84640000Y-62100000D02*
X84640000Y-60150000D01*
X94760000Y-62100000D02*
X94760000Y-64050000D01*
X94760000Y-62100000D02*
X94760000Y-60150000D01*
X84695000Y-64800000D02*
X84365000Y-65040000D01*
X84365000Y-64560000D01*
X84695000Y-64800000D01*
G36*
X84695000Y-64800000D02*
G01*
X84365000Y-65040000D01*
X84365000Y-64560000D01*
X84695000Y-64800000D01*
G37*
%TO.C,J1*%
X79355000Y-91920000D02*
X79355000Y-93300000D01*
X77975000Y-91920000D02*
X79355000Y-91920000D01*
X76705000Y-91920000D02*
X74055000Y-91920000D01*
X76705000Y-91920000D02*
X76705000Y-94680000D01*
X74055000Y-91920000D02*
X74055000Y-94680000D01*
X76705000Y-94680000D02*
X74055000Y-94680000D01*
%TO.C,C8*%
X157486248Y-73090000D02*
X158008752Y-73090000D01*
X157486248Y-74560000D02*
X158008752Y-74560000D01*
%TO.C,U8*%
X156150000Y-78325000D02*
X156150000Y-79125000D01*
X156150000Y-78325000D02*
X156150000Y-77525000D01*
X159270000Y-78325000D02*
X159270000Y-79125000D01*
X159270000Y-78325000D02*
X159270000Y-77525000D01*
X156200000Y-79625000D02*
X155870000Y-79865000D01*
X155870000Y-79385000D01*
X156200000Y-79625000D01*
G36*
X156200000Y-79625000D02*
G01*
X155870000Y-79865000D01*
X155870000Y-79385000D01*
X156200000Y-79625000D01*
G37*
%TO.C,D4*%
X128240000Y-71800000D02*
X128240000Y-73800000D01*
X128240000Y-71800000D02*
X132250000Y-71800000D01*
X128240000Y-73800000D02*
X132250000Y-73800000D01*
%TO.C,R6*%
X76935000Y-50872936D02*
X76935000Y-51327064D01*
X75465000Y-50872936D02*
X75465000Y-51327064D01*
%TO.C,R1*%
X125065000Y-86527064D02*
X125065000Y-86072936D01*
X126535000Y-86527064D02*
X126535000Y-86072936D01*
%TO.C,R2*%
X126535000Y-73572936D02*
X126535000Y-74027064D01*
X125065000Y-73572936D02*
X125065000Y-74027064D01*
%TO.C,C12*%
X86438748Y-55340000D02*
X86961252Y-55340000D01*
X86438748Y-56810000D02*
X86961252Y-56810000D01*
%TO.C,D9*%
X71900000Y-88140000D02*
X69900000Y-88140000D01*
X71900000Y-88140000D02*
X71900000Y-92150000D01*
X69900000Y-88140000D02*
X69900000Y-92150000D01*
D16*
%TO.C,CON1*%
X119499500Y-88496120D02*
G75*
G02*
X115501540Y-88496120I-1998980J0D01*
G01*
X115501540Y-88496120D02*
G75*
G02*
X119499500Y-88496120I1998980J0D01*
G01*
D13*
%TO.C,C2*%
X84035000Y-94038748D02*
X84035000Y-94561252D01*
X82565000Y-94038748D02*
X82565000Y-94561252D01*
%TO.C,D6*%
X71840000Y-48785000D02*
X73760000Y-48785000D01*
X73760000Y-48785000D02*
X73760000Y-46100000D01*
X71840000Y-46100000D02*
X71840000Y-48785000D01*
%TO.C,C10*%
X137945000Y-79101248D02*
X137945000Y-79623752D01*
X136475000Y-79101248D02*
X136475000Y-79623752D01*
%TO.C,C9*%
X123538748Y-63965000D02*
X124061252Y-63965000D01*
X123538748Y-65435000D02*
X124061252Y-65435000D01*
%TO.C,R8*%
X105672936Y-62865000D02*
X106127064Y-62865000D01*
X105672936Y-64335000D02*
X106127064Y-64335000D01*
%TO.C,U3*%
X86790000Y-106140000D02*
X127550000Y-106140000D01*
X127550000Y-106140000D02*
X127550000Y-93220000D01*
X86790000Y-100680000D02*
X86790000Y-106140000D01*
X86790000Y-93220000D02*
X86790000Y-98680000D01*
X127550000Y-93220000D02*
X86790000Y-93220000D01*
X86730000Y-108630000D02*
X127610000Y-108630000D01*
X127610000Y-90730000D01*
X86730000Y-90730000D01*
X86730000Y-108630000D01*
X86790000Y-98680000D02*
G75*
G02*
X86790000Y-100680000I0J-1000000D01*
G01*
D17*
%TO.C,G\u002A\u002A\u002A*%
G36*
X70430555Y-97731254D02*
G01*
X70617531Y-97756531D01*
X70793964Y-97798057D01*
X70957195Y-97855435D01*
X71104565Y-97928268D01*
X71145615Y-97953283D01*
X71177823Y-97973159D01*
X71201081Y-97986170D01*
X71208339Y-97989116D01*
X71214033Y-97978296D01*
X71220498Y-97951044D01*
X71222885Y-97936819D01*
X71238401Y-97879737D01*
X71264483Y-97832008D01*
X71297265Y-97799981D01*
X71310203Y-97793427D01*
X71329317Y-97790731D01*
X71369380Y-97788346D01*
X71426919Y-97786286D01*
X71498461Y-97784568D01*
X71580535Y-97783209D01*
X71669668Y-97782223D01*
X71762386Y-97781628D01*
X71855218Y-97781440D01*
X71944692Y-97781674D01*
X72027333Y-97782347D01*
X72099670Y-97783475D01*
X72158231Y-97785075D01*
X72199543Y-97787161D01*
X72217904Y-97789205D01*
X72240229Y-97798128D01*
X72267425Y-97818327D01*
X72302505Y-97852484D01*
X72348482Y-97903282D01*
X72356810Y-97912856D01*
X72399526Y-97962120D01*
X72440315Y-98009096D01*
X72474393Y-98048281D01*
X72496024Y-98073078D01*
X72524081Y-98100629D01*
X72542529Y-98107585D01*
X72547671Y-98104767D01*
X72555664Y-98087856D01*
X72566332Y-98053000D01*
X72577923Y-98006275D01*
X72583595Y-97979989D01*
X72599616Y-97910577D01*
X72616133Y-97861406D01*
X72635607Y-97828374D01*
X72660499Y-97807379D01*
X72693271Y-97794317D01*
X72695334Y-97793752D01*
X72714858Y-97791293D01*
X72754210Y-97789176D01*
X72813881Y-97787397D01*
X72894361Y-97785954D01*
X72996140Y-97784841D01*
X73119710Y-97784057D01*
X73265561Y-97783595D01*
X73434184Y-97783454D01*
X73626069Y-97783629D01*
X73841707Y-97784117D01*
X73925679Y-97784369D01*
X75107191Y-97788136D01*
X75204883Y-97815635D01*
X75326000Y-97858119D01*
X75445669Y-97915592D01*
X75555229Y-97983537D01*
X75615207Y-98029722D01*
X75708032Y-98108278D01*
X75733969Y-97985122D01*
X75747586Y-97925137D01*
X75760032Y-97883453D01*
X75773619Y-97854197D01*
X75790659Y-97831495D01*
X75797078Y-97824795D01*
X75834250Y-97787625D01*
X77693220Y-97787625D01*
X77943121Y-97787637D01*
X78169804Y-97787681D01*
X78374476Y-97787772D01*
X78558342Y-97787922D01*
X78722610Y-97788146D01*
X78868485Y-97788457D01*
X78997172Y-97788870D01*
X79109878Y-97789397D01*
X79207809Y-97790052D01*
X79292170Y-97790849D01*
X79364169Y-97791802D01*
X79425010Y-97792925D01*
X79475899Y-97794231D01*
X79518043Y-97795733D01*
X79552648Y-97797446D01*
X79580920Y-97799383D01*
X79604064Y-97801558D01*
X79623287Y-97803984D01*
X79639794Y-97806676D01*
X79654791Y-97809647D01*
X79655989Y-97809903D01*
X79797643Y-97848494D01*
X79922954Y-97901079D01*
X80037308Y-97970497D01*
X80146089Y-98059588D01*
X80167020Y-98079407D01*
X80214170Y-98126290D01*
X80270663Y-98184541D01*
X80333859Y-98251242D01*
X80401115Y-98323477D01*
X80469792Y-98398328D01*
X80537249Y-98472877D01*
X80600845Y-98544207D01*
X80657938Y-98609402D01*
X80705889Y-98665544D01*
X80742056Y-98709715D01*
X80762936Y-98737696D01*
X80822836Y-98841587D01*
X80868495Y-98954242D01*
X80900684Y-99078783D01*
X80920175Y-99218330D01*
X80927738Y-99376005D01*
X80927892Y-99405654D01*
X80926628Y-99500473D01*
X80922529Y-99578520D01*
X80914984Y-99647343D01*
X80903379Y-99714493D01*
X80902495Y-99718853D01*
X80866112Y-99865626D01*
X80818096Y-100010490D01*
X80760805Y-100147761D01*
X80696596Y-100271754D01*
X80631965Y-100371222D01*
X80586270Y-100427535D01*
X80528031Y-100491017D01*
X80462890Y-100556208D01*
X80396489Y-100617645D01*
X80334470Y-100669868D01*
X80288959Y-100703233D01*
X80219765Y-100748871D01*
X80314944Y-100953440D01*
X80369007Y-101069904D01*
X80424960Y-101190920D01*
X80480758Y-101312032D01*
X80534356Y-101428788D01*
X80583708Y-101536731D01*
X80626770Y-101631408D01*
X80661123Y-101707529D01*
X80696448Y-101786027D01*
X80734075Y-101869221D01*
X80771840Y-101952365D01*
X80807581Y-102030715D01*
X80839134Y-102099525D01*
X80864336Y-102154050D01*
X80876827Y-102180726D01*
X80904255Y-102238731D01*
X81249292Y-102238731D01*
X81350318Y-102238803D01*
X81429832Y-102239149D01*
X81490746Y-102239966D01*
X81535973Y-102241451D01*
X81568424Y-102243801D01*
X81591010Y-102247212D01*
X81606644Y-102251881D01*
X81618238Y-102258005D01*
X81626749Y-102264232D01*
X81656464Y-102294533D01*
X81678120Y-102326381D01*
X81697071Y-102363028D01*
X81728791Y-102314109D01*
X81754118Y-102281601D01*
X81780546Y-102257339D01*
X81789545Y-102251960D01*
X81804671Y-102249499D01*
X81839005Y-102247307D01*
X81893088Y-102245379D01*
X81967461Y-102243709D01*
X82062666Y-102242290D01*
X82179244Y-102241118D01*
X82317735Y-102240186D01*
X82478682Y-102239489D01*
X82662624Y-102239020D01*
X82870105Y-102238774D01*
X83014284Y-102238731D01*
X84209989Y-102238731D01*
X84488253Y-102563117D01*
X84553341Y-102639341D01*
X84613243Y-102710161D01*
X84666111Y-102773342D01*
X84710101Y-102826649D01*
X84743364Y-102867847D01*
X84764055Y-102894702D01*
X84770375Y-102904566D01*
X84768497Y-102920266D01*
X84761347Y-102956638D01*
X84749606Y-103010667D01*
X84733952Y-103079341D01*
X84715065Y-103159643D01*
X84693627Y-103248559D01*
X84683100Y-103291503D01*
X84658888Y-103390054D01*
X84635123Y-103487305D01*
X84612840Y-103578983D01*
X84593075Y-103660811D01*
X84576863Y-103728516D01*
X84565238Y-103777823D01*
X84563233Y-103786501D01*
X84534498Y-103911626D01*
X84151870Y-103911669D01*
X84057830Y-103912004D01*
X83972531Y-103912932D01*
X83898824Y-103914374D01*
X83839561Y-103916250D01*
X83797595Y-103918479D01*
X83775776Y-103920981D01*
X83773312Y-103922307D01*
X83782198Y-103934188D01*
X83804869Y-103961676D01*
X83838997Y-104002027D01*
X83882250Y-104052496D01*
X83932298Y-104110339D01*
X83960556Y-104142789D01*
X84047395Y-104243673D01*
X84118636Y-104330191D01*
X84175889Y-104405311D01*
X84220765Y-104471996D01*
X84254873Y-104533213D01*
X84279825Y-104591928D01*
X84297230Y-104651107D01*
X84308698Y-104713715D01*
X84315840Y-104782718D01*
X84317007Y-104799295D01*
X84319135Y-104841087D01*
X84319490Y-104881344D01*
X84317599Y-104922819D01*
X84312989Y-104968267D01*
X84305187Y-105020445D01*
X84293719Y-105082107D01*
X84278112Y-105156008D01*
X84257892Y-105244904D01*
X84232587Y-105351549D01*
X84201722Y-105478699D01*
X84196884Y-105498482D01*
X84164608Y-105628729D01*
X84136440Y-105738148D01*
X84111363Y-105829791D01*
X84088358Y-105906709D01*
X84066407Y-105971952D01*
X84044493Y-106028573D01*
X84021596Y-106079622D01*
X83996699Y-106128152D01*
X83972531Y-106170846D01*
X83871785Y-106321785D01*
X83757901Y-106452745D01*
X83630060Y-106564291D01*
X83487447Y-106656988D01*
X83329242Y-106731401D01*
X83154629Y-106788097D01*
X83043146Y-106813551D01*
X83016640Y-106818232D01*
X82987045Y-106822239D01*
X82952204Y-106825642D01*
X82909960Y-106828511D01*
X82858156Y-106830916D01*
X82794635Y-106832926D01*
X82717239Y-106834611D01*
X82623813Y-106836040D01*
X82512197Y-106837284D01*
X82380236Y-106838412D01*
X82243899Y-106839375D01*
X81553012Y-106843929D01*
X81396029Y-106654731D01*
X81239047Y-106465532D01*
X81173994Y-106524986D01*
X81062649Y-106612153D01*
X80931946Y-106688929D01*
X80785232Y-106753921D01*
X80625856Y-106805738D01*
X80457165Y-106842987D01*
X80382575Y-106854181D01*
X80333660Y-106859220D01*
X80266836Y-106864317D01*
X80188617Y-106869068D01*
X80105512Y-106873069D01*
X80040007Y-106875455D01*
X79869931Y-106877376D01*
X79720187Y-106871777D01*
X79587732Y-106858199D01*
X79469518Y-106836186D01*
X79362499Y-106805281D01*
X79263630Y-106765026D01*
X79245306Y-106756180D01*
X79182720Y-106721642D01*
X79123204Y-106680611D01*
X79063423Y-106630073D01*
X79000044Y-106567014D01*
X78929731Y-106488421D01*
X78870250Y-106417236D01*
X78819254Y-106355307D01*
X78757998Y-106281583D01*
X78692119Y-106202810D01*
X78627253Y-106125734D01*
X78582708Y-106073154D01*
X78510498Y-105986372D01*
X78453329Y-105912605D01*
X78408893Y-105847684D01*
X78374877Y-105787439D01*
X78348970Y-105727699D01*
X78328863Y-105664295D01*
X78312243Y-105593057D01*
X78309746Y-105580616D01*
X78284057Y-105450366D01*
X77847744Y-105450366D01*
X77411430Y-105450366D01*
X77372120Y-105401989D01*
X78584165Y-105401989D01*
X78585388Y-105422187D01*
X78587578Y-105441886D01*
X78590432Y-105462539D01*
X78591732Y-105471682D01*
X78617984Y-105587524D01*
X78662148Y-105687048D01*
X78725004Y-105771344D01*
X78807334Y-105841502D01*
X78891512Y-105890016D01*
X78968516Y-105923686D01*
X79044964Y-105948880D01*
X79127065Y-105966968D01*
X79221024Y-105979318D01*
X79332383Y-105987267D01*
X79396411Y-105990564D01*
X79453208Y-105993549D01*
X79497543Y-105995944D01*
X79524185Y-105997468D01*
X79527767Y-105997701D01*
X79547708Y-105997612D01*
X79587429Y-105996276D01*
X79642333Y-105993890D01*
X79707819Y-105990649D01*
X79759787Y-105987847D01*
X79888000Y-105978702D01*
X79997189Y-105966223D01*
X80014175Y-105963250D01*
X81253028Y-105963250D01*
X81869447Y-105963250D01*
X82017484Y-105963112D01*
X82143277Y-105962661D01*
X82249005Y-105961841D01*
X82336845Y-105960598D01*
X82408976Y-105958876D01*
X82467577Y-105956620D01*
X82514824Y-105953775D01*
X82552896Y-105950286D01*
X82583972Y-105946096D01*
X82590719Y-105944966D01*
X82742824Y-105906806D01*
X82883049Y-105847335D01*
X83011891Y-105766297D01*
X83123309Y-105669985D01*
X83162369Y-105629888D01*
X83197266Y-105590539D01*
X83228739Y-105549953D01*
X83257529Y-105506145D01*
X83284376Y-105457131D01*
X83310019Y-105400924D01*
X83335199Y-105335540D01*
X83360654Y-105258994D01*
X83387126Y-105169301D01*
X83415354Y-105064475D01*
X83446077Y-104942531D01*
X83480037Y-104801485D01*
X83517972Y-104639351D01*
X83535144Y-104565029D01*
X83550441Y-104492607D01*
X83559059Y-104433497D01*
X83562027Y-104377836D01*
X83560633Y-104320798D01*
X83551389Y-104227285D01*
X83532123Y-104150436D01*
X83500013Y-104083577D01*
X83452239Y-104020034D01*
X83418259Y-103984077D01*
X83373452Y-103941620D01*
X83335464Y-103912397D01*
X83295648Y-103890739D01*
X83246181Y-103871270D01*
X83198100Y-103855265D01*
X83151368Y-103842489D01*
X83102450Y-103832592D01*
X83047810Y-103825228D01*
X82983915Y-103820050D01*
X82907229Y-103816709D01*
X82814217Y-103814859D01*
X82701345Y-103814152D01*
X82664656Y-103814112D01*
X82333469Y-103814020D01*
X82344267Y-103756015D01*
X82350854Y-103724142D01*
X82362440Y-103672579D01*
X82379190Y-103600624D01*
X82401272Y-103507571D01*
X82428851Y-103392717D01*
X82462094Y-103255358D01*
X82488081Y-103148491D01*
X82508900Y-103063010D01*
X83179899Y-103059855D01*
X83850897Y-103056700D01*
X83908790Y-102809518D01*
X83926217Y-102734116D01*
X83941542Y-102665901D01*
X83953924Y-102608772D01*
X83962523Y-102566628D01*
X83966499Y-102543369D01*
X83966673Y-102540967D01*
X83965648Y-102537138D01*
X83961549Y-102533795D01*
X83952831Y-102530904D01*
X83937952Y-102528433D01*
X83915368Y-102526349D01*
X83883535Y-102524620D01*
X83840909Y-102523212D01*
X83785946Y-102522093D01*
X83717104Y-102521230D01*
X83632837Y-102520590D01*
X83531604Y-102520141D01*
X83411860Y-102519850D01*
X83272061Y-102519684D01*
X83110663Y-102519611D01*
X82959210Y-102519596D01*
X81951758Y-102519596D01*
X81951758Y-102545443D01*
X81948982Y-102559846D01*
X81941018Y-102595710D01*
X81928408Y-102650754D01*
X81911698Y-102722698D01*
X81891432Y-102809260D01*
X81868153Y-102908162D01*
X81842406Y-103017122D01*
X81814735Y-103133860D01*
X81785683Y-103256096D01*
X81755795Y-103381549D01*
X81725616Y-103507939D01*
X81695688Y-103632986D01*
X81666557Y-103754409D01*
X81638765Y-103869928D01*
X81612858Y-103977263D01*
X81589380Y-104074132D01*
X81568874Y-104158257D01*
X81551885Y-104227355D01*
X81538956Y-104279148D01*
X81530632Y-104311354D01*
X81529072Y-104317005D01*
X81529053Y-104322107D01*
X81533611Y-104326333D01*
X81544886Y-104329786D01*
X81565020Y-104332572D01*
X81596154Y-104334796D01*
X81640430Y-104336563D01*
X81699989Y-104337977D01*
X81776971Y-104339144D01*
X81873519Y-104340169D01*
X81991774Y-104341156D01*
X82027492Y-104341428D01*
X82151746Y-104342394D01*
X82254001Y-104343335D01*
X82336679Y-104344387D01*
X82402204Y-104345687D01*
X82452997Y-104347371D01*
X82491483Y-104349575D01*
X82520084Y-104352436D01*
X82541223Y-104356090D01*
X82557323Y-104360672D01*
X82570807Y-104366320D01*
X82583178Y-104372677D01*
X82633391Y-104412160D01*
X82673290Y-104468411D01*
X82698280Y-104534454D01*
X82701837Y-104552818D01*
X82701207Y-104580340D01*
X82694897Y-104627139D01*
X82683893Y-104688996D01*
X82669179Y-104761691D01*
X82651740Y-104841005D01*
X82632560Y-104922719D01*
X82612623Y-105002614D01*
X82592915Y-105076469D01*
X82574419Y-105140066D01*
X82558121Y-105189185D01*
X82547227Y-105215420D01*
X82508986Y-105272298D01*
X82455215Y-105327010D01*
X82394227Y-105372100D01*
X82345509Y-105396351D01*
X82327747Y-105402025D01*
X82306225Y-105406709D01*
X82278374Y-105410537D01*
X82241626Y-105413641D01*
X82193411Y-105416153D01*
X82131160Y-105418206D01*
X82052304Y-105419932D01*
X81954274Y-105421464D01*
X81834501Y-105422934D01*
X81828801Y-105422998D01*
X81370028Y-105428143D01*
X81316947Y-105656009D01*
X81299901Y-105730029D01*
X81284537Y-105798335D01*
X81271843Y-105856402D01*
X81262810Y-105899702D01*
X81258447Y-105923563D01*
X81253028Y-105963250D01*
X80014175Y-105963250D01*
X80092628Y-105949519D01*
X80179591Y-105927699D01*
X80248248Y-105905376D01*
X80384424Y-105843969D01*
X80508850Y-105762165D01*
X80619377Y-105662027D01*
X80713855Y-105545616D01*
X80790134Y-105414993D01*
X80813247Y-105363635D01*
X80824819Y-105330823D01*
X80840957Y-105278013D01*
X80860683Y-105208989D01*
X80883020Y-105127540D01*
X80886591Y-105114119D01*
X81773166Y-105114119D01*
X81774175Y-105135470D01*
X81788574Y-105151431D01*
X81807880Y-105156401D01*
X81822528Y-105146709D01*
X81819479Y-105131719D01*
X81805186Y-105114518D01*
X81787211Y-105100136D01*
X81778310Y-105102725D01*
X81773166Y-105114119D01*
X80886591Y-105114119D01*
X80906992Y-105037452D01*
X80931622Y-104942512D01*
X80955932Y-104846506D01*
X80978946Y-104753221D01*
X80999687Y-104666444D01*
X81017178Y-104589961D01*
X81030441Y-104527560D01*
X81034826Y-104504782D01*
X81047015Y-104382523D01*
X81038347Y-104267405D01*
X81009765Y-104161510D01*
X80962211Y-104066919D01*
X80896626Y-103985717D01*
X80829860Y-103932631D01*
X81250248Y-103932631D01*
X81261986Y-103953013D01*
X81262929Y-103954452D01*
X81282254Y-103977429D01*
X81297753Y-103985006D01*
X81304524Y-103974907D01*
X81304546Y-103973768D01*
X81308574Y-103953303D01*
X81311959Y-103943239D01*
X81311898Y-103929563D01*
X81294213Y-103924309D01*
X81281148Y-103923923D01*
X81255376Y-103925045D01*
X81250248Y-103932631D01*
X80829860Y-103932631D01*
X80813953Y-103919983D01*
X80756111Y-103888638D01*
X80684261Y-103859166D01*
X80611584Y-103837667D01*
X80532611Y-103823209D01*
X80441872Y-103814863D01*
X80333895Y-103811699D01*
X80303200Y-103811608D01*
X80143132Y-103817694D01*
X79999123Y-103835287D01*
X79873335Y-103864044D01*
X79791511Y-103893045D01*
X79751672Y-103908491D01*
X79729185Y-103913044D01*
X79719922Y-103907434D01*
X79719422Y-103905780D01*
X79720644Y-103885907D01*
X79727664Y-103846701D01*
X79739417Y-103792266D01*
X79754839Y-103726708D01*
X79772866Y-103654132D01*
X79792433Y-103578643D01*
X79812476Y-103504347D01*
X79831930Y-103435349D01*
X79849730Y-103375754D01*
X79864814Y-103329668D01*
X79876115Y-103301196D01*
X79876244Y-103300936D01*
X79926064Y-103225378D01*
X79993096Y-103158594D01*
X80070273Y-103107105D01*
X80102327Y-103092284D01*
X80120186Y-103085262D01*
X80137286Y-103079448D01*
X80156054Y-103074709D01*
X80178916Y-103070915D01*
X80208299Y-103067934D01*
X80246630Y-103065633D01*
X80296336Y-103063880D01*
X80359844Y-103062545D01*
X80439580Y-103061496D01*
X80537972Y-103060599D01*
X80657445Y-103059725D01*
X80708394Y-103059374D01*
X81241808Y-103055719D01*
X81249901Y-103016624D01*
X81256050Y-102988454D01*
X81266265Y-102943315D01*
X81279441Y-102885937D01*
X81294470Y-102821050D01*
X81310250Y-102753386D01*
X81325673Y-102687674D01*
X81339636Y-102628645D01*
X81351031Y-102581031D01*
X81358755Y-102549560D01*
X81361213Y-102540237D01*
X81361726Y-102535559D01*
X81359064Y-102531612D01*
X81351389Y-102528346D01*
X81336863Y-102525717D01*
X81313648Y-102523675D01*
X81279905Y-102522174D01*
X81233797Y-102521167D01*
X81173485Y-102520606D01*
X81097131Y-102520445D01*
X81002898Y-102520635D01*
X80888947Y-102521130D01*
X80753439Y-102521882D01*
X80667548Y-102522397D01*
X79967383Y-102526655D01*
X79847897Y-102559831D01*
X79686048Y-102615025D01*
X79542137Y-102686113D01*
X79414812Y-102774008D01*
X79302721Y-102879627D01*
X79216000Y-102987406D01*
X79175402Y-103049976D01*
X79140109Y-103117090D01*
X79108421Y-103193093D01*
X79078638Y-103282327D01*
X79049060Y-103389136D01*
X79032302Y-103456784D01*
X79016674Y-103521636D01*
X78996444Y-103605131D01*
X78972846Y-103702196D01*
X78947116Y-103807761D01*
X78920489Y-103916752D01*
X78894200Y-104024097D01*
X78887320Y-104052145D01*
X78837776Y-104254008D01*
X78793732Y-104433599D01*
X78754887Y-104592370D01*
X78720937Y-104731771D01*
X78691581Y-104853255D01*
X78666516Y-104958274D01*
X78645440Y-105048278D01*
X78628051Y-105124719D01*
X78614046Y-105189050D01*
X78603123Y-105242721D01*
X78594981Y-105287184D01*
X78589316Y-105323891D01*
X78585826Y-105354293D01*
X78584210Y-105379842D01*
X78584165Y-105401989D01*
X77372120Y-105401989D01*
X77316740Y-105333835D01*
X77279955Y-105290146D01*
X77248325Y-105255530D01*
X77225057Y-105233291D01*
X77213358Y-105226732D01*
X77213017Y-105226984D01*
X77207952Y-105240952D01*
X77198132Y-105275591D01*
X77184360Y-105327788D01*
X77167437Y-105394432D01*
X77148164Y-105472410D01*
X77127343Y-105558612D01*
X77124035Y-105572481D01*
X77101637Y-105666329D01*
X77074830Y-105778257D01*
X77044974Y-105902616D01*
X77013429Y-106033752D01*
X76981553Y-106166016D01*
X76950705Y-106293756D01*
X76930951Y-106375390D01*
X76817817Y-106842481D01*
X76265436Y-106842481D01*
X75713054Y-106842481D01*
X75629930Y-106733176D01*
X75596138Y-106689487D01*
X75567607Y-106653993D01*
X75547582Y-106630642D01*
X75539571Y-106623272D01*
X75531791Y-106633388D01*
X75516649Y-106661123D01*
X75496626Y-106701742D01*
X75482208Y-106732725D01*
X75432080Y-106842776D01*
X74971369Y-106839576D01*
X74510657Y-106836375D01*
X74427313Y-106721827D01*
X74394647Y-106677388D01*
X74367855Y-106641806D01*
X74349765Y-106618777D01*
X74343206Y-106611924D01*
X74339594Y-106624878D01*
X74330527Y-106655820D01*
X74317595Y-106699352D01*
X74309480Y-106726471D01*
X74276517Y-106836375D01*
X73732072Y-106839553D01*
X73187627Y-106842730D01*
X73047720Y-106674697D01*
X72993941Y-106610021D01*
X72937566Y-106542078D01*
X72883738Y-106477075D01*
X72837600Y-106421220D01*
X72817457Y-106396760D01*
X72773084Y-106343425D01*
X72726189Y-106288102D01*
X72683522Y-106238712D01*
X72661297Y-106213587D01*
X72641127Y-106191553D01*
X72625127Y-106173052D01*
X72613425Y-106155286D01*
X72606146Y-106135457D01*
X72603416Y-106110767D01*
X72605361Y-106078417D01*
X72612107Y-106035610D01*
X72623781Y-105979548D01*
X72630408Y-105950976D01*
X72927431Y-105950976D01*
X72939058Y-105955080D01*
X72974086Y-105958113D01*
X73032739Y-105960080D01*
X73115238Y-105960988D01*
X73221806Y-105960842D01*
X73283484Y-105960382D01*
X73639537Y-105957145D01*
X73815795Y-105248875D01*
X73851014Y-105107017D01*
X73887164Y-104960784D01*
X73923324Y-104813947D01*
X73958571Y-104670277D01*
X73991981Y-104533545D01*
X74022634Y-104407520D01*
X74049607Y-104295974D01*
X74071976Y-104202678D01*
X74080176Y-104168154D01*
X74105513Y-104061874D01*
X74126210Y-103977177D01*
X74142930Y-103911802D01*
X74156333Y-103863493D01*
X74167081Y-103829991D01*
X74175837Y-103809036D01*
X74183263Y-103798371D01*
X74189311Y-103795702D01*
X74194030Y-103797022D01*
X74198020Y-103802287D01*
X74201361Y-103813451D01*
X74204134Y-103832471D01*
X74206417Y-103861302D01*
X74208293Y-103901901D01*
X74209840Y-103956222D01*
X74211140Y-104026223D01*
X74212272Y-104113859D01*
X74213316Y-104221085D01*
X74214354Y-104349857D01*
X74214863Y-104418491D01*
X74215851Y-104560687D01*
X74216821Y-104712818D01*
X74217746Y-104869665D01*
X74218598Y-105026010D01*
X74219350Y-105176636D01*
X74219972Y-105316323D01*
X74220439Y-105439856D01*
X74220628Y-105502478D01*
X74221854Y-105963677D01*
X74522232Y-105960411D01*
X74822611Y-105957145D01*
X74886753Y-105816712D01*
X74904625Y-105778533D01*
X74932088Y-105721137D01*
X74967850Y-105647171D01*
X75010618Y-105559282D01*
X75059099Y-105460116D01*
X75112003Y-105352320D01*
X75168035Y-105238542D01*
X75225904Y-105121428D01*
X75247457Y-105077914D01*
X75309983Y-104951544D01*
X75374642Y-104820478D01*
X75439584Y-104688487D01*
X75502962Y-104559342D01*
X75562927Y-104436816D01*
X75617630Y-104324679D01*
X75665224Y-104226704D01*
X75703861Y-104146662D01*
X75705268Y-104143731D01*
X75752680Y-104045557D01*
X75791079Y-103967493D01*
X75821620Y-103907444D01*
X75845462Y-103863318D01*
X75863761Y-103833018D01*
X75877673Y-103814451D01*
X75888355Y-103805522D01*
X75892888Y-103804012D01*
X75913576Y-103806528D01*
X75919258Y-103814773D01*
X75916501Y-103831003D01*
X75908867Y-103866735D01*
X75897304Y-103917751D01*
X75882765Y-103979835D01*
X75870176Y-104032377D01*
X75854487Y-104097276D01*
X75834311Y-104180774D01*
X75810891Y-104277730D01*
X75785468Y-104383001D01*
X75759285Y-104491445D01*
X75733583Y-104597921D01*
X75728258Y-104619981D01*
X75702356Y-104727084D01*
X75672140Y-104851658D01*
X75639131Y-104987457D01*
X75604848Y-105128236D01*
X75570811Y-105267749D01*
X75538542Y-105399752D01*
X75520898Y-105471788D01*
X75495666Y-105575005D01*
X75472360Y-105670926D01*
X75451603Y-105756932D01*
X75434023Y-105830408D01*
X75420243Y-105888734D01*
X75410889Y-105929295D01*
X75406587Y-105949472D01*
X75406373Y-105951091D01*
X75418437Y-105954837D01*
X75454050Y-105957931D01*
X75512347Y-105960345D01*
X75592465Y-105962051D01*
X75693536Y-105963022D01*
X75784698Y-105963250D01*
X76163023Y-105963250D01*
X76170667Y-105929669D01*
X76177239Y-105901809D01*
X76187656Y-105858724D01*
X76199866Y-105808888D01*
X76202103Y-105799824D01*
X76209388Y-105769815D01*
X76221669Y-105718586D01*
X76238341Y-105648692D01*
X76258797Y-105562683D01*
X76282431Y-105463114D01*
X76308636Y-105352537D01*
X76336808Y-105233504D01*
X76366339Y-105108569D01*
X76383333Y-105036603D01*
X76419120Y-104885198D01*
X76458596Y-104718550D01*
X76498646Y-104549765D01*
X77128783Y-104549765D01*
X77140462Y-104551662D01*
X77174116Y-104553427D01*
X77227296Y-104555018D01*
X77297554Y-104556393D01*
X77382442Y-104557511D01*
X77479511Y-104558331D01*
X77586312Y-104558811D01*
X77671143Y-104558923D01*
X78214086Y-104558923D01*
X78225379Y-104513130D01*
X78231943Y-104486012D01*
X78242902Y-104440188D01*
X78257050Y-104380723D01*
X78273180Y-104312685D01*
X78285005Y-104262669D01*
X78333337Y-104058002D01*
X77789696Y-104061179D01*
X77246054Y-104064356D01*
X77187710Y-104302481D01*
X77169912Y-104375444D01*
X77154246Y-104440285D01*
X77141599Y-104493280D01*
X77132860Y-104530702D01*
X77128916Y-104548825D01*
X77128783Y-104549765D01*
X76498646Y-104549765D01*
X76500386Y-104542431D01*
X76543118Y-104362617D01*
X76585419Y-104184881D01*
X76625916Y-104014997D01*
X76663236Y-103858739D01*
X76688555Y-103752962D01*
X76742728Y-103526847D01*
X76791232Y-103324268D01*
X76834118Y-103145017D01*
X76871434Y-102988888D01*
X76903230Y-102855671D01*
X76929556Y-102745159D01*
X76950460Y-102657144D01*
X76965994Y-102591418D01*
X76976206Y-102547773D01*
X76981146Y-102526002D01*
X76981662Y-102523292D01*
X76969857Y-102522528D01*
X76936074Y-102521818D01*
X76882754Y-102521178D01*
X76812342Y-102520624D01*
X76727281Y-102520173D01*
X76630015Y-102519841D01*
X76522987Y-102519645D01*
X76435024Y-102519596D01*
X75888386Y-102519596D01*
X75786872Y-102724140D01*
X75761399Y-102774938D01*
X75726141Y-102844471D01*
X75682596Y-102929814D01*
X75632267Y-103028045D01*
X75576655Y-103136239D01*
X75517261Y-103251474D01*
X75455587Y-103370825D01*
X75393133Y-103491370D01*
X75371851Y-103532371D01*
X75311778Y-103648258D01*
X75253839Y-103760431D01*
X75199252Y-103866502D01*
X75149237Y-103964087D01*
X75105012Y-104050798D01*
X75067796Y-104124249D01*
X75038808Y-104182053D01*
X75019266Y-104221824D01*
X75013265Y-104234534D01*
X74985348Y-104290441D01*
X74962800Y-104324055D01*
X74944739Y-104336689D01*
X74944693Y-104336697D01*
X74936543Y-104336729D01*
X74930351Y-104331826D01*
X74925689Y-104318849D01*
X74922132Y-104294661D01*
X74919254Y-104256124D01*
X74916629Y-104200099D01*
X74913830Y-104123450D01*
X74913188Y-104104677D01*
X74911061Y-104037969D01*
X74908515Y-103951275D01*
X74905669Y-103849024D01*
X74902639Y-103735649D01*
X74899545Y-103615579D01*
X74896504Y-103493246D01*
X74893636Y-103373079D01*
X74893525Y-103368298D01*
X74890714Y-103251706D01*
X74887736Y-103135678D01*
X74884703Y-103024094D01*
X74881727Y-102920833D01*
X74878921Y-102829777D01*
X74876397Y-102754806D01*
X74874267Y-102699800D01*
X74873993Y-102693611D01*
X74866113Y-102519596D01*
X74312197Y-102519596D01*
X73758281Y-102519596D01*
X73752022Y-102547072D01*
X73746671Y-102571038D01*
X73737697Y-102611698D01*
X73726680Y-102661885D01*
X73721742Y-102684452D01*
X73713522Y-102720549D01*
X73700216Y-102777113D01*
X73682605Y-102850905D01*
X73661470Y-102938686D01*
X73637592Y-103037214D01*
X73611751Y-103143250D01*
X73584730Y-103253555D01*
X73576035Y-103288923D01*
X73543235Y-103422449D01*
X73506555Y-103572143D01*
X73467725Y-103730923D01*
X73428475Y-103891705D01*
X73390534Y-104047406D01*
X73355631Y-104190943D01*
X73335978Y-104271952D01*
X73306869Y-104391839D01*
X73273266Y-104529843D01*
X73236534Y-104680374D01*
X73198042Y-104837841D01*
X73159157Y-104996651D01*
X73121246Y-105151214D01*
X73085675Y-105295939D01*
X73072519Y-105349373D01*
X73043964Y-105465536D01*
X73017271Y-105574600D01*
X72993000Y-105674249D01*
X72971709Y-105762167D01*
X72953956Y-105836037D01*
X72940301Y-105893543D01*
X72931301Y-105932369D01*
X72927516Y-105950199D01*
X72927431Y-105950976D01*
X72630408Y-105950976D01*
X72640508Y-105907433D01*
X72662415Y-105816466D01*
X72683033Y-105731231D01*
X72716079Y-105593405D01*
X72745372Y-105469562D01*
X72770595Y-105361119D01*
X72791430Y-105269492D01*
X72807559Y-105196098D01*
X72818664Y-105142354D01*
X72824426Y-105109676D01*
X72824879Y-105099513D01*
X72823311Y-105100074D01*
X72819562Y-105104050D01*
X72812811Y-105112634D01*
X72802240Y-105127015D01*
X72787030Y-105148384D01*
X72766361Y-105177932D01*
X72739415Y-105216850D01*
X72705373Y-105266328D01*
X72663415Y-105327558D01*
X72612721Y-105401730D01*
X72552474Y-105490036D01*
X72481854Y-105593665D01*
X72400042Y-105713809D01*
X72306218Y-105851658D01*
X72199564Y-106008404D01*
X72188743Y-106024308D01*
X72120113Y-106125168D01*
X72050459Y-106227510D01*
X71982149Y-106327851D01*
X71917555Y-106422713D01*
X71859046Y-106508615D01*
X71808993Y-106582076D01*
X71769764Y-106639617D01*
X71762579Y-106650149D01*
X71631354Y-106842481D01*
X71168586Y-106842481D01*
X70705818Y-106842481D01*
X70455550Y-106546351D01*
X70391328Y-106470521D01*
X70329552Y-106397880D01*
X70272687Y-106331303D01*
X70223196Y-106273664D01*
X70183545Y-106227840D01*
X70156196Y-106196704D01*
X70149398Y-106189164D01*
X70121760Y-106155637D01*
X70103374Y-106126829D01*
X70098241Y-106109244D01*
X70106034Y-106094579D01*
X70125738Y-106062403D01*
X70155593Y-106015446D01*
X70193842Y-105956435D01*
X70199426Y-105947934D01*
X70549445Y-105947934D01*
X70552473Y-105953242D01*
X70567801Y-105957225D01*
X70597863Y-105960029D01*
X70645096Y-105961799D01*
X70711936Y-105962682D01*
X70798264Y-105962828D01*
X71052960Y-105962406D01*
X71132335Y-105843858D01*
X71158794Y-105804602D01*
X71196736Y-105748678D01*
X71243805Y-105679539D01*
X71297644Y-105600641D01*
X71355897Y-105515437D01*
X71416207Y-105427384D01*
X71450638Y-105377189D01*
X71541440Y-105244744D01*
X71637608Y-105104207D01*
X71738285Y-104956843D01*
X71842613Y-104803921D01*
X71949735Y-104646706D01*
X72058794Y-104486468D01*
X72168933Y-104324472D01*
X72279294Y-104161985D01*
X72389022Y-104000276D01*
X72497257Y-103840611D01*
X72603144Y-103684257D01*
X72705826Y-103532482D01*
X72804444Y-103386552D01*
X72898142Y-103247735D01*
X72986063Y-103117298D01*
X73067350Y-102996508D01*
X73141145Y-102886632D01*
X73206591Y-102788937D01*
X73262832Y-102704692D01*
X73309010Y-102635161D01*
X73344268Y-102581614D01*
X73367748Y-102545317D01*
X73378595Y-102527537D01*
X73379258Y-102525981D01*
X73367641Y-102524084D01*
X73335170Y-102522412D01*
X73285413Y-102521052D01*
X73221939Y-102520095D01*
X73148316Y-102519628D01*
X73122940Y-102519596D01*
X72866622Y-102519596D01*
X72669435Y-102815726D01*
X72629231Y-102875895D01*
X72576956Y-102953798D01*
X72514270Y-103046975D01*
X72442835Y-103152965D01*
X72364313Y-103269307D01*
X72280367Y-103393540D01*
X72192656Y-103523203D01*
X72102844Y-103655834D01*
X72012592Y-103788974D01*
X71951883Y-103878446D01*
X71857644Y-104017315D01*
X71759179Y-104162483D01*
X71658626Y-104310792D01*
X71558126Y-104459083D01*
X71459816Y-104604201D01*
X71365836Y-104742986D01*
X71278325Y-104872282D01*
X71199421Y-104988932D01*
X71131264Y-105089776D01*
X71107912Y-105124355D01*
X71037769Y-105228136D01*
X70967708Y-105331587D01*
X70899757Y-105431724D01*
X70835946Y-105525567D01*
X70778306Y-105610132D01*
X70728864Y-105682437D01*
X70689650Y-105739501D01*
X70669814Y-105768146D01*
X70630948Y-105824381D01*
X70596999Y-105874263D01*
X70570457Y-105914074D01*
X70553812Y-105940093D01*
X70549445Y-105947934D01*
X70199426Y-105947934D01*
X70238727Y-105888101D01*
X70288491Y-105813174D01*
X70300211Y-105795640D01*
X70351003Y-105719440D01*
X70397506Y-105649100D01*
X70437926Y-105587377D01*
X70470471Y-105537030D01*
X70493347Y-105500818D01*
X70504759Y-105481500D01*
X70505550Y-105479801D01*
X70507808Y-105466177D01*
X70496007Y-105463124D01*
X70473435Y-105466747D01*
X70450086Y-105469014D01*
X70406272Y-105471034D01*
X70345952Y-105472711D01*
X70273081Y-105473951D01*
X70191618Y-105474659D01*
X70138176Y-105474789D01*
X69843128Y-105474789D01*
X69808976Y-105612169D01*
X69792326Y-105679763D01*
X69771157Y-105766652D01*
X69746531Y-105868397D01*
X69719512Y-105980559D01*
X69691160Y-106098702D01*
X69662537Y-106218386D01*
X69634706Y-106335174D01*
X69608728Y-106444628D01*
X69585665Y-106542309D01*
X69566580Y-106623779D01*
X69556229Y-106668467D01*
X69516212Y-106842481D01*
X68953528Y-106841635D01*
X68390844Y-106840789D01*
X68250412Y-106669957D01*
X68204462Y-106614353D01*
X68163119Y-106564871D01*
X68129163Y-106524797D01*
X68105377Y-106497416D01*
X68094982Y-106486357D01*
X68080219Y-106483851D01*
X68056244Y-106496711D01*
X68023260Y-106523520D01*
X67895874Y-106619804D01*
X67748954Y-106701575D01*
X67582456Y-106768854D01*
X67396333Y-106821661D01*
X67285700Y-106844522D01*
X67235426Y-106852916D01*
X67185113Y-106859457D01*
X67130472Y-106864412D01*
X67067214Y-106868047D01*
X66991048Y-106870628D01*
X66897688Y-106872422D01*
X66821662Y-106873334D01*
X66732816Y-106874014D01*
X66649998Y-106874249D01*
X66576965Y-106874060D01*
X66517478Y-106873468D01*
X66475296Y-106872494D01*
X66455316Y-106871317D01*
X66283057Y-106842118D01*
X66130029Y-106799064D01*
X65994988Y-106741616D01*
X65876691Y-106669234D01*
X65773895Y-106581380D01*
X65764237Y-106571533D01*
X65731022Y-106535572D01*
X65686987Y-106485667D01*
X65636558Y-106426954D01*
X65584163Y-106364567D01*
X65550535Y-106323723D01*
X65496150Y-106257699D01*
X65437895Y-106188035D01*
X65381186Y-106121143D01*
X65331440Y-106063430D01*
X65309433Y-106038399D01*
X65242904Y-105960806D01*
X65191209Y-105893572D01*
X65150664Y-105831131D01*
X65117584Y-105767920D01*
X65094070Y-105713185D01*
X65052699Y-105577541D01*
X65031128Y-105429881D01*
X65029928Y-105304388D01*
X65320233Y-105304388D01*
X65327593Y-105437175D01*
X65354210Y-105565108D01*
X65370451Y-105614076D01*
X65406533Y-105684006D01*
X65460151Y-105753681D01*
X65525228Y-105816606D01*
X65595687Y-105866284D01*
X65617041Y-105877671D01*
X65692600Y-105908658D01*
X65785438Y-105937120D01*
X65888422Y-105961285D01*
X65994421Y-105979383D01*
X66055564Y-105986506D01*
X66125395Y-105991177D01*
X66211172Y-105993952D01*
X66307809Y-105994941D01*
X66410217Y-105994251D01*
X66513311Y-105991992D01*
X66612002Y-105988272D01*
X66701206Y-105983201D01*
X66775833Y-105976887D01*
X66827767Y-105969983D01*
X66895994Y-105954092D01*
X68079338Y-105954092D01*
X68091095Y-105956318D01*
X68124381Y-105958349D01*
X68176301Y-105960117D01*
X68243961Y-105961554D01*
X68324467Y-105962591D01*
X68414925Y-105963161D01*
X68469396Y-105963250D01*
X68577600Y-105963169D01*
X68663894Y-105962834D01*
X68730791Y-105962111D01*
X68780804Y-105960864D01*
X68816445Y-105958957D01*
X68840229Y-105956255D01*
X68854667Y-105952622D01*
X68862273Y-105947923D01*
X68865559Y-105942022D01*
X68865601Y-105941880D01*
X68869925Y-105924828D01*
X68879046Y-105887216D01*
X68892197Y-105832265D01*
X68908612Y-105763196D01*
X68927521Y-105683231D01*
X68948159Y-105595590D01*
X68952154Y-105578587D01*
X68978225Y-105468234D01*
X69007531Y-105345313D01*
X69038155Y-105217791D01*
X69068179Y-105093638D01*
X69095686Y-104980820D01*
X69109349Y-104925270D01*
X69186251Y-104613875D01*
X69667778Y-104607029D01*
X69793974Y-104605093D01*
X69898274Y-104603125D01*
X69983204Y-104600998D01*
X70051293Y-104598587D01*
X70105066Y-104595765D01*
X70147051Y-104592406D01*
X70179775Y-104588384D01*
X70205765Y-104583572D01*
X70222575Y-104579306D01*
X70367169Y-104527050D01*
X70495135Y-104457115D01*
X70607285Y-104368826D01*
X70704431Y-104261508D01*
X70787383Y-104134485D01*
X70811455Y-104088779D01*
X70839082Y-104028579D01*
X70864490Y-103961940D01*
X70889199Y-103884165D01*
X70914732Y-103790559D01*
X70936059Y-103704116D01*
X70967671Y-103570965D01*
X70993795Y-103458973D01*
X71014831Y-103365595D01*
X71031182Y-103288287D01*
X71043250Y-103224506D01*
X71051437Y-103171707D01*
X71056144Y-103127348D01*
X71057773Y-103088883D01*
X71056727Y-103053770D01*
X71053406Y-103019463D01*
X71049062Y-102988816D01*
X71022714Y-102878258D01*
X70979911Y-102783964D01*
X70919461Y-102704659D01*
X70840173Y-102639067D01*
X70740855Y-102585914D01*
X70637767Y-102548958D01*
X70621611Y-102544655D01*
X70602949Y-102540928D01*
X70579930Y-102537722D01*
X70550704Y-102534986D01*
X70513421Y-102532664D01*
X70466229Y-102530704D01*
X70407279Y-102529053D01*
X70334720Y-102527656D01*
X70246701Y-102526461D01*
X70141371Y-102525414D01*
X70016881Y-102524462D01*
X69871380Y-102523550D01*
X69730917Y-102522774D01*
X69563079Y-102521958D01*
X69418142Y-102521433D01*
X69294582Y-102521221D01*
X69190880Y-102521341D01*
X69105513Y-102521816D01*
X69036960Y-102522665D01*
X68983699Y-102523909D01*
X68944209Y-102525570D01*
X68916969Y-102527668D01*
X68900456Y-102530224D01*
X68893149Y-102533258D01*
X68892533Y-102534236D01*
X68888238Y-102550830D01*
X68878809Y-102588871D01*
X68864804Y-102646056D01*
X68846780Y-102720080D01*
X68825293Y-102808641D01*
X68800902Y-102909434D01*
X68774163Y-103020155D01*
X68745633Y-103138501D01*
X68715870Y-103262169D01*
X68685431Y-103388854D01*
X68654873Y-103516253D01*
X68639125Y-103582000D01*
X68617111Y-103673898D01*
X68590546Y-103784705D01*
X68560590Y-103909584D01*
X68528405Y-104043698D01*
X68495152Y-104182211D01*
X68461990Y-104320286D01*
X68430082Y-104453085D01*
X68419318Y-104497866D01*
X68389740Y-104621176D01*
X68359904Y-104746045D01*
X68330725Y-104868617D01*
X68303115Y-104985036D01*
X68277987Y-105091446D01*
X68256257Y-105183993D01*
X68238835Y-105258820D01*
X68231286Y-105291616D01*
X68210103Y-105383890D01*
X68186503Y-105486134D01*
X68162623Y-105589131D01*
X68140598Y-105683663D01*
X68128022Y-105737337D01*
X68112146Y-105805403D01*
X68098443Y-105865162D01*
X68087818Y-105912583D01*
X68081177Y-105943633D01*
X68079338Y-105954092D01*
X66895994Y-105954092D01*
X67000424Y-105929769D01*
X67158616Y-105872567D01*
X67301227Y-105799145D01*
X67427142Y-105710271D01*
X67535245Y-105606715D01*
X67624420Y-105489244D01*
X67684025Y-105380071D01*
X67701226Y-105339150D01*
X67720761Y-105287235D01*
X67740707Y-105230161D01*
X67759144Y-105173763D01*
X67774148Y-105123879D01*
X67783799Y-105086344D01*
X67786373Y-105069283D01*
X67774648Y-105066909D01*
X67741417Y-105064746D01*
X67689599Y-105062868D01*
X67622109Y-105061347D01*
X67541865Y-105060259D01*
X67451785Y-105059675D01*
X67402858Y-105059596D01*
X67019342Y-105059596D01*
X67000036Y-105116257D01*
X66957893Y-105211988D01*
X66902298Y-105289001D01*
X66831664Y-105348505D01*
X66744406Y-105391711D01*
X66638937Y-105419828D01*
X66592722Y-105426939D01*
X66482100Y-105433151D01*
X66384110Y-105422562D01*
X66300342Y-105395874D01*
X66232382Y-105353793D01*
X66181819Y-105297022D01*
X66151754Y-105231507D01*
X66144075Y-105200374D01*
X66140090Y-105167497D01*
X66140224Y-105129676D01*
X66144898Y-105083708D01*
X66154534Y-105026390D01*
X66169555Y-104954520D01*
X66190383Y-104864897D01*
X66211561Y-104778058D01*
X66214336Y-104766781D01*
X67090316Y-104766781D01*
X67102364Y-104770021D01*
X67137867Y-104772788D01*
X67195858Y-104775056D01*
X67275373Y-104776803D01*
X67375447Y-104778004D01*
X67495115Y-104778635D01*
X67570818Y-104778731D01*
X68051320Y-104778731D01*
X68105201Y-104568082D01*
X68159083Y-104357433D01*
X67942907Y-104351327D01*
X67726732Y-104345221D01*
X67548506Y-104128467D01*
X67497282Y-104066650D01*
X67450992Y-104011700D01*
X67411931Y-103966267D01*
X67382397Y-103933007D01*
X67364689Y-103914571D01*
X67360803Y-103911712D01*
X67345850Y-103920512D01*
X67323089Y-103942315D01*
X67298875Y-103970221D01*
X67279557Y-103997331D01*
X67275772Y-104004070D01*
X67268745Y-104024066D01*
X67257204Y-104064140D01*
X67242051Y-104120581D01*
X67224189Y-104189675D01*
X67204520Y-104267710D01*
X67183948Y-104350974D01*
X67163374Y-104435753D01*
X67143703Y-104518334D01*
X67125836Y-104595006D01*
X67110676Y-104662056D01*
X67099127Y-104715770D01*
X67092090Y-104752436D01*
X67090316Y-104766781D01*
X66214336Y-104766781D01*
X66235380Y-104681262D01*
X66260476Y-104578598D01*
X66285211Y-104476822D01*
X66307945Y-104382690D01*
X66327037Y-104302958D01*
X66332944Y-104278058D01*
X66349053Y-104209921D01*
X66369402Y-104123834D01*
X66392618Y-104025617D01*
X66417325Y-103921088D01*
X66442147Y-103816067D01*
X66461390Y-103734645D01*
X66483482Y-103643197D01*
X66505342Y-103556432D01*
X66525955Y-103478105D01*
X66544304Y-103411969D01*
X66559376Y-103361779D01*
X66570155Y-103331289D01*
X66570932Y-103329525D01*
X66622157Y-103245455D01*
X66691923Y-103174627D01*
X66777542Y-103118210D01*
X66876327Y-103077373D01*
X66985589Y-103053284D01*
X67102640Y-103047112D01*
X67200377Y-103055905D01*
X67289612Y-103077252D01*
X67358887Y-103111318D01*
X67409560Y-103158905D01*
X67430118Y-103191373D01*
X67444794Y-103223081D01*
X67452407Y-103252208D01*
X67454202Y-103287560D01*
X67451426Y-103337942D01*
X67451229Y-103340498D01*
X67446826Y-103388192D01*
X67441881Y-103427765D01*
X67437357Y-103451693D01*
X67436736Y-103453566D01*
X67436866Y-103458849D01*
X67443379Y-103462991D01*
X67458682Y-103466095D01*
X67485185Y-103468262D01*
X67525295Y-103469594D01*
X67581422Y-103470192D01*
X67655972Y-103470159D01*
X67751355Y-103469595D01*
X67806394Y-103469156D01*
X68183248Y-103465991D01*
X68217644Y-103331664D01*
X68246254Y-103187439D01*
X68254957Y-103056338D01*
X68243819Y-102938639D01*
X68212910Y-102834620D01*
X68162298Y-102744561D01*
X68092049Y-102668740D01*
X68047909Y-102635118D01*
X67982968Y-102597007D01*
X67909589Y-102565692D01*
X67825322Y-102540736D01*
X67727718Y-102521701D01*
X67614326Y-102508152D01*
X67482697Y-102499650D01*
X67330381Y-102495759D01*
X67264809Y-102495397D01*
X67120842Y-102496468D01*
X66997325Y-102500147D01*
X66890391Y-102506759D01*
X66796174Y-102516634D01*
X66710807Y-102530099D01*
X66630423Y-102547481D01*
X66620171Y-102550037D01*
X66459902Y-102598554D01*
X66318301Y-102658916D01*
X66191752Y-102732975D01*
X66076638Y-102822585D01*
X66061390Y-102836329D01*
X66004900Y-102895854D01*
X65946248Y-102970899D01*
X65890710Y-103053719D01*
X65843561Y-103136571D01*
X65815661Y-103197083D01*
X65806803Y-103224007D01*
X65792947Y-103272407D01*
X65774656Y-103339979D01*
X65752493Y-103424418D01*
X65727021Y-103523418D01*
X65698801Y-103634674D01*
X65668398Y-103755882D01*
X65636374Y-103884736D01*
X65603292Y-104018932D01*
X65569713Y-104156164D01*
X65536202Y-104294127D01*
X65503321Y-104430517D01*
X65471632Y-104563028D01*
X65441699Y-104689354D01*
X65414084Y-104807192D01*
X65389350Y-104914236D01*
X65368059Y-105008182D01*
X65350775Y-105086723D01*
X65338060Y-105147555D01*
X65332821Y-105174796D01*
X65320233Y-105304388D01*
X65029928Y-105304388D01*
X65029626Y-105272857D01*
X65038967Y-105171376D01*
X65044075Y-105141995D01*
X65054341Y-105091529D01*
X65069167Y-105022627D01*
X65087959Y-104937940D01*
X65110119Y-104840118D01*
X65135051Y-104731811D01*
X65162161Y-104615670D01*
X65190850Y-104494345D01*
X65198028Y-104464231D01*
X65247697Y-104256240D01*
X65292109Y-104070536D01*
X65331678Y-103905653D01*
X65366820Y-103760122D01*
X65397948Y-103632477D01*
X65425478Y-103521250D01*
X65449825Y-103424973D01*
X65471403Y-103342180D01*
X65490627Y-103271402D01*
X65507912Y-103211172D01*
X65523673Y-103160023D01*
X65538324Y-103116487D01*
X65552280Y-103079096D01*
X65565956Y-103046384D01*
X65579767Y-103016883D01*
X65594128Y-102989125D01*
X65609452Y-102961643D01*
X65626156Y-102932969D01*
X65635129Y-102917770D01*
X65734963Y-102772527D01*
X65853396Y-102642376D01*
X65989253Y-102528075D01*
X66141356Y-102430382D01*
X66308532Y-102350057D01*
X66489604Y-102287857D01*
X66677194Y-102245595D01*
X66805070Y-102227971D01*
X66950472Y-102215312D01*
X67106999Y-102207687D01*
X67268250Y-102205167D01*
X67427824Y-102207822D01*
X67579319Y-102215723D01*
X67716333Y-102228941D01*
X67752309Y-102233759D01*
X67889118Y-102259328D01*
X68015956Y-102294647D01*
X68127400Y-102338055D01*
X68179984Y-102364673D01*
X68235271Y-102402109D01*
X68299344Y-102456387D01*
X68368141Y-102523575D01*
X68437601Y-102599746D01*
X68494387Y-102668946D01*
X68525808Y-102706118D01*
X68547215Y-102724452D01*
X68556857Y-102723898D01*
X68562238Y-102707390D01*
X68571977Y-102671451D01*
X68584953Y-102620451D01*
X68600045Y-102558758D01*
X68610386Y-102515303D01*
X68631468Y-102428831D01*
X68650095Y-102363271D01*
X68668513Y-102315567D01*
X68685909Y-102287577D01*
X70815993Y-102287577D01*
X70826018Y-102295312D01*
X70853098Y-102310764D01*
X70892235Y-102331151D01*
X70910945Y-102340456D01*
X70964948Y-102369536D01*
X71019470Y-102403091D01*
X71063775Y-102434459D01*
X71068371Y-102438149D01*
X71091280Y-102459538D01*
X71127741Y-102496839D01*
X71175365Y-102547463D01*
X71231764Y-102608818D01*
X71294548Y-102678313D01*
X71361329Y-102753358D01*
X71408094Y-102806568D01*
X71487963Y-102898371D01*
X71553099Y-102974375D01*
X71605254Y-103036800D01*
X71646178Y-103087868D01*
X71677623Y-103129799D01*
X71701340Y-103164815D01*
X71719079Y-103195137D01*
X71727335Y-103211480D01*
X71756830Y-103286922D01*
X71781110Y-103374670D01*
X71797558Y-103463504D01*
X71803543Y-103538242D01*
X71804842Y-103567055D01*
X71807570Y-103580900D01*
X71808628Y-103580983D01*
X71816461Y-103569840D01*
X71835975Y-103541258D01*
X71865244Y-103498083D01*
X71902343Y-103443157D01*
X71945348Y-103379325D01*
X71977398Y-103331664D01*
X72030677Y-103252425D01*
X72093558Y-103158992D01*
X72161970Y-103057406D01*
X72231844Y-102953710D01*
X72299109Y-102853947D01*
X72345191Y-102785646D01*
X72396497Y-102709290D01*
X72443061Y-102639339D01*
X72483197Y-102578381D01*
X72515216Y-102529004D01*
X72537428Y-102493798D01*
X72548146Y-102475350D01*
X72548873Y-102473388D01*
X72538014Y-102469122D01*
X72510081Y-102469298D01*
X72484763Y-102472048D01*
X72370101Y-102482012D01*
X72245575Y-102481701D01*
X72116503Y-102471942D01*
X71988199Y-102453559D01*
X71865981Y-102427378D01*
X71755164Y-102394223D01*
X71661065Y-102354921D01*
X71633008Y-102339833D01*
X71557241Y-102288918D01*
X71493311Y-102236450D01*
X73247727Y-102236450D01*
X73251542Y-102245644D01*
X73262228Y-102243539D01*
X73274905Y-102234121D01*
X74453873Y-102234121D01*
X74465541Y-102235379D01*
X74498367Y-102236506D01*
X74549088Y-102237454D01*
X74614439Y-102238172D01*
X74691156Y-102238612D01*
X74760204Y-102238731D01*
X75066534Y-102238731D01*
X75100727Y-102278419D01*
X75121552Y-102302402D01*
X75154334Y-102339934D01*
X75194890Y-102386236D01*
X75239036Y-102436526D01*
X75247651Y-102446327D01*
X75294054Y-102499616D01*
X75339492Y-102552688D01*
X75379051Y-102599750D01*
X75407821Y-102635011D01*
X75410131Y-102637939D01*
X75436764Y-102669178D01*
X75458394Y-102689677D01*
X75470148Y-102694984D01*
X75479159Y-102682245D01*
X75496582Y-102651845D01*
X75520080Y-102608055D01*
X75547312Y-102555143D01*
X75553299Y-102543247D01*
X75580271Y-102488686D01*
X75597642Y-102452433D01*
X77372588Y-102452433D01*
X77574500Y-102695711D01*
X77628702Y-102761883D01*
X77676936Y-102822435D01*
X77717192Y-102874709D01*
X77747465Y-102916048D01*
X77765747Y-102943794D01*
X77770298Y-102954924D01*
X77765424Y-102971617D01*
X77755678Y-103008204D01*
X77741910Y-103061292D01*
X77724968Y-103127488D01*
X77705703Y-103203400D01*
X77684963Y-103285633D01*
X77663598Y-103370795D01*
X77642457Y-103455493D01*
X77622391Y-103536334D01*
X77604248Y-103609925D01*
X77588877Y-103672872D01*
X77577128Y-103721784D01*
X77569851Y-103753266D01*
X77567816Y-103763754D01*
X77578523Y-103767168D01*
X77610963Y-103769636D01*
X77665607Y-103771164D01*
X77742929Y-103771756D01*
X77843403Y-103771417D01*
X77967501Y-103770151D01*
X78061185Y-103768833D01*
X78554555Y-103761277D01*
X78589334Y-103798411D01*
X78612811Y-103821886D01*
X78629433Y-103835654D01*
X78632254Y-103836993D01*
X78637214Y-103826038D01*
X78646966Y-103794442D01*
X78660663Y-103745325D01*
X78677457Y-103681809D01*
X78696500Y-103607015D01*
X78714587Y-103533764D01*
X78745933Y-103407657D01*
X78773785Y-103301976D01*
X78799313Y-103213174D01*
X78823689Y-103137704D01*
X78848085Y-103072020D01*
X78873672Y-103012573D01*
X78901622Y-102955819D01*
X78911792Y-102936651D01*
X79000996Y-102792560D01*
X79104366Y-102666200D01*
X79224156Y-102555384D01*
X79362617Y-102457925D01*
X79464143Y-102400472D01*
X79534845Y-102363669D01*
X79458575Y-102267619D01*
X79405143Y-102201189D01*
X79344746Y-102127529D01*
X79280974Y-102050893D01*
X79217419Y-101975532D01*
X79157674Y-101905702D01*
X79105330Y-101845655D01*
X79063978Y-101799646D01*
X79057818Y-101793010D01*
X79020895Y-101751440D01*
X78986930Y-101709626D01*
X78962616Y-101675855D01*
X78960589Y-101672613D01*
X78943876Y-101647793D01*
X78931527Y-101638728D01*
X78921671Y-101647430D01*
X78912437Y-101675910D01*
X78901954Y-101726181D01*
X78899723Y-101738058D01*
X78889569Y-101789972D01*
X78876155Y-101854727D01*
X78860348Y-101928503D01*
X78843017Y-102007476D01*
X78825031Y-102087824D01*
X78807259Y-102165726D01*
X78790570Y-102237359D01*
X78775831Y-102298901D01*
X78763912Y-102346531D01*
X78755682Y-102376425D01*
X78752844Y-102384318D01*
X78746414Y-102396213D01*
X78739580Y-102406294D01*
X78730384Y-102414731D01*
X78716870Y-102421694D01*
X78697080Y-102427351D01*
X78669055Y-102431872D01*
X78630837Y-102435427D01*
X78580471Y-102438184D01*
X78515996Y-102440314D01*
X78435457Y-102441986D01*
X78336894Y-102443369D01*
X78218351Y-102444632D01*
X78077869Y-102445944D01*
X78036172Y-102446327D01*
X77372588Y-102452433D01*
X75597642Y-102452433D01*
X75602732Y-102441811D01*
X75618635Y-102407004D01*
X75625933Y-102388644D01*
X75626181Y-102387277D01*
X75618429Y-102374543D01*
X75596411Y-102345668D01*
X75561982Y-102302860D01*
X75516995Y-102248323D01*
X75463307Y-102184265D01*
X75402773Y-102112892D01*
X75337246Y-102036409D01*
X75268583Y-101957022D01*
X75198637Y-101876939D01*
X75164092Y-101837698D01*
X75101739Y-101766723D01*
X75053932Y-101711249D01*
X75018787Y-101668704D01*
X74994421Y-101636519D01*
X74978949Y-101612123D01*
X74970488Y-101592946D01*
X74967155Y-101576416D01*
X74966822Y-101568513D01*
X74969381Y-101547143D01*
X74976498Y-101506644D01*
X74980805Y-101484669D01*
X75254810Y-101484669D01*
X75254898Y-101488769D01*
X75258280Y-101492310D01*
X75266607Y-101495332D01*
X75281530Y-101497877D01*
X75304702Y-101499985D01*
X75337775Y-101501697D01*
X75382400Y-101503054D01*
X75440229Y-101504096D01*
X75512913Y-101504865D01*
X75602106Y-101505402D01*
X75709458Y-101505747D01*
X75836622Y-101505940D01*
X75985248Y-101506024D01*
X76119260Y-101506039D01*
X76988609Y-101506039D01*
X76990505Y-101496637D01*
X77335796Y-101496637D01*
X77347472Y-101499163D01*
X77380360Y-101501432D01*
X77431248Y-101503350D01*
X77496925Y-101504820D01*
X77574179Y-101505747D01*
X77652317Y-101506039D01*
X77968839Y-101506039D01*
X77988993Y-101417505D01*
X78001446Y-101361671D01*
X78018733Y-101282333D01*
X78040871Y-101179408D01*
X78067880Y-101052811D01*
X78099777Y-100902457D01*
X78134798Y-100736712D01*
X78151858Y-100656137D01*
X78172014Y-100561399D01*
X78193194Y-100462206D01*
X78213329Y-100368265D01*
X78221414Y-100330678D01*
X78268100Y-100113923D01*
X78453449Y-100113923D01*
X78638797Y-100113923D01*
X78709051Y-100294044D01*
X78724756Y-100334440D01*
X78742230Y-100379657D01*
X78762108Y-100431367D01*
X78785025Y-100491240D01*
X78811616Y-100560947D01*
X78842517Y-100642161D01*
X78878363Y-100736551D01*
X78919789Y-100845789D01*
X78967431Y-100971545D01*
X79021925Y-101115492D01*
X79083904Y-101279300D01*
X79138488Y-101423611D01*
X79169662Y-101506039D01*
X79547152Y-101506039D01*
X79640366Y-101505913D01*
X79725211Y-101505556D01*
X79798749Y-101504999D01*
X79858037Y-101504275D01*
X79900136Y-101503415D01*
X79922106Y-101502450D01*
X79924642Y-101501980D01*
X79919901Y-101489558D01*
X79906339Y-101457057D01*
X79884952Y-101406761D01*
X79856732Y-101340955D01*
X79822674Y-101261923D01*
X79783773Y-101171950D01*
X79741022Y-101073321D01*
X79695416Y-100968320D01*
X79647948Y-100859233D01*
X79599613Y-100748343D01*
X79551405Y-100637936D01*
X79504317Y-100530297D01*
X79459345Y-100427709D01*
X79417481Y-100332458D01*
X79379721Y-100246828D01*
X79347058Y-100173104D01*
X79321728Y-100116336D01*
X79294705Y-100055204D01*
X79277146Y-100012611D01*
X79268011Y-99985049D01*
X79266260Y-99969010D01*
X79270851Y-99960984D01*
X79275046Y-99958933D01*
X79434178Y-99892333D01*
X79576002Y-99808724D01*
X79700646Y-99707952D01*
X79808235Y-99589863D01*
X79898895Y-99454303D01*
X79972753Y-99301117D01*
X80029934Y-99130152D01*
X80060135Y-98999667D01*
X80072824Y-98915029D01*
X80080620Y-98821607D01*
X80083458Y-98726225D01*
X80081275Y-98635706D01*
X80074009Y-98556872D01*
X80064703Y-98507619D01*
X80024082Y-98393604D01*
X79964865Y-98295409D01*
X79887117Y-98213095D01*
X79790901Y-98146724D01*
X79676281Y-98096356D01*
X79618708Y-98078926D01*
X79599734Y-98074480D01*
X79577430Y-98070659D01*
X79549793Y-98067399D01*
X79514823Y-98064638D01*
X79470516Y-98062312D01*
X79414871Y-98060357D01*
X79345885Y-98058711D01*
X79261557Y-98057309D01*
X79159885Y-98056090D01*
X79038866Y-98054989D01*
X78896499Y-98053944D01*
X78810748Y-98053385D01*
X78081516Y-98048776D01*
X78075023Y-98076950D01*
X78070565Y-98097407D01*
X78062033Y-98137530D01*
X78050322Y-98193073D01*
X78036327Y-98259793D01*
X78020943Y-98333442D01*
X78020171Y-98337145D01*
X78001550Y-98425922D01*
X77979539Y-98529931D01*
X77954931Y-98645496D01*
X77928518Y-98768941D01*
X77901096Y-98896593D01*
X77873456Y-99024775D01*
X77846393Y-99149812D01*
X77820700Y-99268030D01*
X77797169Y-99375754D01*
X77776596Y-99469308D01*
X77759772Y-99545018D01*
X77751268Y-99582721D01*
X77741440Y-99626442D01*
X77727621Y-99688702D01*
X77710286Y-99767321D01*
X77689909Y-99860119D01*
X77666961Y-99964914D01*
X77641917Y-100079526D01*
X77615250Y-100201774D01*
X77587434Y-100329476D01*
X77558942Y-100460454D01*
X77530247Y-100592525D01*
X77501823Y-100723508D01*
X77474143Y-100851224D01*
X77447680Y-100973491D01*
X77422909Y-101088128D01*
X77400301Y-101192955D01*
X77380332Y-101285791D01*
X77363474Y-101364455D01*
X77350200Y-101426767D01*
X77340984Y-101470545D01*
X77336300Y-101493609D01*
X77335796Y-101496637D01*
X76990505Y-101496637D01*
X77040942Y-101246544D01*
X77056661Y-101168994D01*
X77071060Y-101098689D01*
X77083343Y-101039460D01*
X77092713Y-100995138D01*
X77098374Y-100969557D01*
X77099349Y-100965678D01*
X77099618Y-100960745D01*
X77096037Y-100956633D01*
X77086599Y-100953269D01*
X77069298Y-100950576D01*
X77042127Y-100948482D01*
X77003081Y-100946912D01*
X76950152Y-100945790D01*
X76881336Y-100945044D01*
X76794624Y-100944598D01*
X76688012Y-100944378D01*
X76559492Y-100944310D01*
X76523128Y-100944308D01*
X75940834Y-100944308D01*
X75946464Y-100916832D01*
X75950243Y-100898778D01*
X75958466Y-100859751D01*
X75970515Y-100802671D01*
X75985774Y-100730459D01*
X76003625Y-100646034D01*
X76023452Y-100552317D01*
X76041933Y-100465005D01*
X76131771Y-100040654D01*
X76664171Y-100040654D01*
X77196570Y-100040654D01*
X77243566Y-99799476D01*
X77258254Y-99724190D01*
X77271642Y-99655738D01*
X77282920Y-99598256D01*
X77291275Y-99555876D01*
X77295897Y-99532731D01*
X77296212Y-99531206D01*
X77301862Y-99504114D01*
X76782529Y-99500677D01*
X76672297Y-99499810D01*
X76569770Y-99498737D01*
X76477493Y-99497504D01*
X76398012Y-99496158D01*
X76333872Y-99494746D01*
X76287619Y-99493312D01*
X76261799Y-99491905D01*
X76257203Y-99491135D01*
X76258251Y-99478157D01*
X76264035Y-99444233D01*
X76273977Y-99392257D01*
X76287502Y-99325120D01*
X76304031Y-99245716D01*
X76322988Y-99156938D01*
X76333953Y-99106471D01*
X76354825Y-99010628D01*
X76374466Y-98919769D01*
X76392137Y-98837370D01*
X76407097Y-98766907D01*
X76418604Y-98711857D01*
X76425920Y-98675696D01*
X76427586Y-98666856D01*
X76438476Y-98605798D01*
X77024315Y-98599693D01*
X77610154Y-98593587D01*
X77667831Y-98343250D01*
X77685121Y-98267329D01*
X77700390Y-98198593D01*
X77712809Y-98140919D01*
X77721547Y-98098184D01*
X77725775Y-98074264D01*
X77726037Y-98071462D01*
X77725123Y-98067349D01*
X77721054Y-98063809D01*
X77712170Y-98060808D01*
X77696810Y-98058309D01*
X77673311Y-98056278D01*
X77640013Y-98054680D01*
X77595254Y-98053479D01*
X77537373Y-98052642D01*
X77464709Y-98052132D01*
X77375599Y-98051915D01*
X77268383Y-98051956D01*
X77141399Y-98052220D01*
X76992986Y-98052671D01*
X76857374Y-98053145D01*
X75988183Y-98056279D01*
X75958994Y-98196712D01*
X75951603Y-98231939D01*
X75939594Y-98288769D01*
X75923451Y-98364920D01*
X75903659Y-98458110D01*
X75880704Y-98566060D01*
X75855070Y-98686487D01*
X75827245Y-98817111D01*
X75797711Y-98955649D01*
X75766956Y-99099821D01*
X75742077Y-99216375D01*
X75709780Y-99367712D01*
X75677634Y-99518481D01*
X75646213Y-99665978D01*
X75616092Y-99807502D01*
X75587845Y-99940348D01*
X75562047Y-100061815D01*
X75539272Y-100169197D01*
X75520095Y-100259793D01*
X75505091Y-100330900D01*
X75498085Y-100364260D01*
X75485721Y-100422788D01*
X75469483Y-100498891D01*
X75450134Y-100589054D01*
X75428436Y-100689760D01*
X75405155Y-100797495D01*
X75381052Y-100908743D01*
X75356891Y-101019989D01*
X75333435Y-101127716D01*
X75311449Y-101228410D01*
X75291694Y-101318556D01*
X75274935Y-101394636D01*
X75261934Y-101453137D01*
X75254810Y-101484669D01*
X74980805Y-101484669D01*
X74987269Y-101451691D01*
X75000790Y-101386960D01*
X75011208Y-101339221D01*
X75025549Y-101272615D01*
X75037187Y-101214612D01*
X75045377Y-101169266D01*
X75049374Y-101140629D01*
X75049176Y-101132559D01*
X75035337Y-101131237D01*
X75001673Y-101131989D01*
X74952677Y-101134609D01*
X74892840Y-101138887D01*
X74866765Y-101141025D01*
X74690837Y-101155973D01*
X74650830Y-101334059D01*
X74637317Y-101394510D01*
X74621061Y-101467716D01*
X74602735Y-101550598D01*
X74583014Y-101640077D01*
X74562571Y-101733072D01*
X74542080Y-101826506D01*
X74522215Y-101917298D01*
X74503650Y-102002368D01*
X74487059Y-102078639D01*
X74473115Y-102143029D01*
X74462492Y-102192460D01*
X74455865Y-102223852D01*
X74453873Y-102234121D01*
X73274905Y-102234121D01*
X73279024Y-102231061D01*
X73281566Y-102224195D01*
X73274396Y-102216197D01*
X73259790Y-102221181D01*
X73248105Y-102235396D01*
X73247727Y-102236450D01*
X71493311Y-102236450D01*
X71475814Y-102222090D01*
X71394540Y-102144997D01*
X71319231Y-102063289D01*
X71255696Y-101982613D01*
X71236566Y-101954509D01*
X71214609Y-101920624D01*
X71101087Y-102039990D01*
X71049712Y-102091681D01*
X70994673Y-102143216D01*
X70942705Y-102188494D01*
X70901953Y-102220414D01*
X70863309Y-102248607D01*
X70833649Y-102271452D01*
X70817581Y-102285345D01*
X70815993Y-102287577D01*
X68685909Y-102287577D01*
X68688963Y-102282664D01*
X68713692Y-102261507D01*
X68744942Y-102249041D01*
X68784957Y-102242210D01*
X68812840Y-102239644D01*
X68902653Y-102232625D01*
X68829483Y-102153250D01*
X68799539Y-102120409D01*
X68756968Y-102073223D01*
X68705315Y-102015649D01*
X68648127Y-101951642D01*
X68588948Y-101885158D01*
X68566770Y-101860173D01*
X68464456Y-101744704D01*
X68377222Y-101645946D01*
X68303845Y-101562428D01*
X68243102Y-101492677D01*
X68193768Y-101435221D01*
X68154621Y-101388587D01*
X68124436Y-101351303D01*
X68101990Y-101321897D01*
X68086060Y-101298897D01*
X68075421Y-101280829D01*
X68068851Y-101266223D01*
X68066149Y-101257761D01*
X68061891Y-101235005D01*
X68061240Y-101207629D01*
X68061342Y-101206553D01*
X68332831Y-101206553D01*
X68421186Y-101289318D01*
X68528961Y-101374217D01*
X68654721Y-101444690D01*
X68796043Y-101499726D01*
X68950504Y-101538316D01*
X69056373Y-101554054D01*
X69143854Y-101560089D01*
X69247411Y-101561326D01*
X69359235Y-101558081D01*
X69471520Y-101550668D01*
X69576458Y-101539400D01*
X69633103Y-101530842D01*
X69806747Y-101492332D01*
X69961282Y-101439494D01*
X70097994Y-101371435D01*
X70218168Y-101287266D01*
X70323090Y-101186094D01*
X70414046Y-101067028D01*
X70476597Y-100957852D01*
X70901047Y-100957852D01*
X70907116Y-101041557D01*
X70911810Y-101069103D01*
X70946540Y-101180416D01*
X71001402Y-101278262D01*
X71075862Y-101362185D01*
X71169384Y-101431730D01*
X71281430Y-101486438D01*
X71411465Y-101525855D01*
X71460025Y-101535755D01*
X71542111Y-101546278D01*
X71639868Y-101551963D01*
X71745025Y-101552788D01*
X71849311Y-101548736D01*
X71944453Y-101539787D01*
X71964868Y-101536930D01*
X72127923Y-101501627D01*
X72146361Y-101494864D01*
X73037335Y-101494864D01*
X73049074Y-101498191D01*
X73082407Y-101501069D01*
X73134508Y-101503389D01*
X73202550Y-101505043D01*
X73283706Y-101505923D01*
X73328451Y-101506039D01*
X73619567Y-101506039D01*
X73695319Y-101148851D01*
X73718720Y-101038569D01*
X73744355Y-100917868D01*
X73770684Y-100793985D01*
X73796169Y-100674158D01*
X73819272Y-100565624D01*
X73833946Y-100496758D01*
X73896821Y-100201852D01*
X74239458Y-100196354D01*
X74358555Y-100193991D01*
X74457022Y-100190654D01*
X74538650Y-100185686D01*
X74607230Y-100178425D01*
X74666552Y-100168211D01*
X74720407Y-100154385D01*
X74772586Y-100136287D01*
X74826880Y-100113257D01*
X74887080Y-100084634D01*
X74890269Y-100083067D01*
X75029577Y-100001104D01*
X75154650Y-99899689D01*
X75265105Y-99779484D01*
X75360559Y-99641152D01*
X75440629Y-99485357D01*
X75504930Y-99312761D01*
X75553080Y-99124028D01*
X75584695Y-98919821D01*
X75589250Y-98874452D01*
X75594800Y-98720405D01*
X75582161Y-98581083D01*
X75551554Y-98456973D01*
X75503200Y-98348562D01*
X75437320Y-98256338D01*
X75354136Y-98180789D01*
X75253868Y-98122401D01*
X75246573Y-98119127D01*
X75217146Y-98106427D01*
X75189567Y-98095646D01*
X75161592Y-98086609D01*
X75130975Y-98079138D01*
X75095473Y-98073058D01*
X75052841Y-98068191D01*
X75000834Y-98064360D01*
X74937209Y-98061390D01*
X74859720Y-98059104D01*
X74766123Y-98057324D01*
X74654175Y-98055875D01*
X74521629Y-98054580D01*
X74414654Y-98053664D01*
X73770964Y-98048292D01*
X73764568Y-98076709D01*
X73760090Y-98097229D01*
X73751442Y-98137393D01*
X73739533Y-98192957D01*
X73725274Y-98259675D01*
X73709573Y-98333303D01*
X73708755Y-98337145D01*
X73697741Y-98388822D01*
X73682188Y-98461746D01*
X73662660Y-98553279D01*
X73639718Y-98660783D01*
X73613926Y-98781621D01*
X73585848Y-98913154D01*
X73556045Y-99052745D01*
X73525082Y-99197756D01*
X73493521Y-99345550D01*
X73476773Y-99423971D01*
X73419873Y-99690410D01*
X73367880Y-99933923D01*
X73320590Y-100155470D01*
X73277800Y-100356009D01*
X73239306Y-100536497D01*
X73204906Y-100697893D01*
X73174396Y-100841154D01*
X73147572Y-100967239D01*
X73124232Y-101077106D01*
X73104173Y-101171712D01*
X73087190Y-101252016D01*
X73073080Y-101318976D01*
X73061641Y-101373550D01*
X73052669Y-101416695D01*
X73045961Y-101449371D01*
X73041313Y-101472534D01*
X73038522Y-101487143D01*
X73037385Y-101494157D01*
X73037335Y-101494864D01*
X72146361Y-101494864D01*
X72276160Y-101447255D01*
X72409179Y-101374091D01*
X72526583Y-101282412D01*
X72627973Y-101172493D01*
X72712952Y-101044614D01*
X72736346Y-101000480D01*
X72764859Y-100940357D01*
X72789902Y-100879660D01*
X72812760Y-100814175D01*
X72834716Y-100739687D01*
X72857054Y-100651985D01*
X72881058Y-100546853D01*
X72896596Y-100474596D01*
X72915141Y-100387313D01*
X72934342Y-100297685D01*
X72952798Y-100212194D01*
X72969109Y-100137324D01*
X72981876Y-100079557D01*
X72982384Y-100077289D01*
X72992399Y-100032146D01*
X73006718Y-99966962D01*
X73024505Y-99885574D01*
X73044926Y-99791815D01*
X73067144Y-99689523D01*
X73090324Y-99582532D01*
X73110078Y-99491135D01*
X73137352Y-99365054D01*
X73168295Y-99222451D01*
X73201311Y-99070654D01*
X73234803Y-98916990D01*
X73267176Y-98768787D01*
X73296833Y-98633372D01*
X73306907Y-98587481D01*
X73329638Y-98483640D01*
X73350862Y-98385966D01*
X73369963Y-98297344D01*
X73386328Y-98220658D01*
X73399341Y-98158790D01*
X73408387Y-98114624D01*
X73412852Y-98091045D01*
X73413064Y-98089637D01*
X73418617Y-98049725D01*
X73127682Y-98053002D01*
X72836748Y-98056279D01*
X72827434Y-98099020D01*
X72822213Y-98123466D01*
X72812887Y-98167625D01*
X72800338Y-98227299D01*
X72785448Y-98298292D01*
X72769100Y-98376406D01*
X72763268Y-98404308D01*
X72743771Y-98496776D01*
X72720659Y-98605017D01*
X72695670Y-98720973D01*
X72670542Y-98836588D01*
X72647015Y-98943805D01*
X72640746Y-98972145D01*
X72591158Y-99196370D01*
X72538970Y-99433283D01*
X72486152Y-99673907D01*
X72434676Y-99909267D01*
X72386510Y-100130387D01*
X72383455Y-100144452D01*
X72355654Y-100272220D01*
X72332393Y-100378461D01*
X72313090Y-100465531D01*
X72297162Y-100535783D01*
X72284029Y-100591571D01*
X72273109Y-100635249D01*
X72263820Y-100669173D01*
X72255581Y-100695695D01*
X72247810Y-100717170D01*
X72239925Y-100735952D01*
X72234307Y-100748163D01*
X72181241Y-100833894D01*
X72111821Y-100901913D01*
X72027360Y-100951371D01*
X71929173Y-100981418D01*
X71860189Y-100990042D01*
X71757133Y-100988409D01*
X71670014Y-100969918D01*
X71599612Y-100934911D01*
X71546704Y-100883731D01*
X71521634Y-100841015D01*
X71509170Y-100807672D01*
X71501115Y-100770205D01*
X71497703Y-100726086D01*
X71499167Y-100672787D01*
X71505740Y-100607780D01*
X71517655Y-100528535D01*
X71535145Y-100432525D01*
X71558444Y-100317220D01*
X71578681Y-100222062D01*
X71600638Y-100120126D01*
X71626400Y-100000192D01*
X71654704Y-99868156D01*
X71684290Y-99729912D01*
X71713896Y-99591354D01*
X71742259Y-99458379D01*
X71761284Y-99369020D01*
X71788389Y-99241624D01*
X71817995Y-99102524D01*
X71848762Y-98958005D01*
X71879354Y-98814353D01*
X71908431Y-98677853D01*
X71934656Y-98554790D01*
X71949815Y-98483683D01*
X71970241Y-98387467D01*
X71988939Y-98298581D01*
X72005313Y-98219918D01*
X72018768Y-98154370D01*
X72028710Y-98104828D01*
X72034543Y-98074183D01*
X72035865Y-98065438D01*
X72024388Y-98060831D01*
X71992629Y-98056964D01*
X71944719Y-98053858D01*
X71884790Y-98051536D01*
X71816974Y-98050022D01*
X71745400Y-98049337D01*
X71674200Y-98049503D01*
X71607506Y-98050545D01*
X71549448Y-98052484D01*
X71504157Y-98055343D01*
X71475765Y-98059145D01*
X71468185Y-98062331D01*
X71464115Y-98076695D01*
X71455814Y-98112270D01*
X71443871Y-98166322D01*
X71428872Y-98236118D01*
X71411405Y-98318925D01*
X71392056Y-98412011D01*
X71371412Y-98512643D01*
X71370482Y-98517211D01*
X71271183Y-99000236D01*
X71171166Y-99478136D01*
X71072349Y-99941755D01*
X71064199Y-99979596D01*
X71042995Y-100078003D01*
X71020656Y-100181751D01*
X70998582Y-100284335D01*
X70978171Y-100379250D01*
X70960823Y-100459991D01*
X70953850Y-100492481D01*
X70929687Y-100620172D01*
X70912633Y-100743042D01*
X70902986Y-100856974D01*
X70901047Y-100957852D01*
X70476597Y-100957852D01*
X70487855Y-100938202D01*
X70532712Y-100835461D01*
X70572022Y-100720190D01*
X70604838Y-100597525D01*
X70630213Y-100472604D01*
X70647202Y-100350563D01*
X70654859Y-100236540D01*
X70652236Y-100135670D01*
X70645298Y-100083395D01*
X70614252Y-99980511D01*
X70561590Y-99881928D01*
X70490118Y-99791744D01*
X70447259Y-99753683D01*
X70827046Y-99753683D01*
X70833152Y-99759789D01*
X70839258Y-99753683D01*
X70833152Y-99747577D01*
X70827046Y-99753683D01*
X70447259Y-99753683D01*
X70433508Y-99741471D01*
X70802623Y-99741471D01*
X70808729Y-99747577D01*
X70814835Y-99741471D01*
X70808729Y-99735366D01*
X70802623Y-99741471D01*
X70433508Y-99741471D01*
X70402640Y-99714058D01*
X70382792Y-99699916D01*
X70343930Y-99674427D01*
X70287225Y-99638780D01*
X70216008Y-99594996D01*
X70133604Y-99545095D01*
X70043344Y-99491096D01*
X69948555Y-99435022D01*
X69886758Y-99398807D01*
X69787113Y-99337754D01*
X69708436Y-99282102D01*
X69648688Y-99229049D01*
X69605834Y-99175795D01*
X69577833Y-99119537D01*
X69562650Y-99057477D01*
X69558247Y-98986812D01*
X69559375Y-98948790D01*
X69575952Y-98840945D01*
X69612751Y-98745589D01*
X69668270Y-98664052D01*
X69741008Y-98597661D01*
X69829463Y-98547746D01*
X69932133Y-98515635D01*
X70047516Y-98502657D01*
X70063825Y-98502444D01*
X70157106Y-98509233D01*
X70242629Y-98528839D01*
X70316517Y-98559603D01*
X70374891Y-98599867D01*
X70413875Y-98647973D01*
X70416664Y-98653366D01*
X70430142Y-98686591D01*
X70433923Y-98717808D01*
X70429187Y-98758860D01*
X70427902Y-98766121D01*
X70416013Y-98831712D01*
X70675659Y-98831712D01*
X70762096Y-98831561D01*
X70827210Y-98830945D01*
X70874100Y-98829613D01*
X70905863Y-98827318D01*
X70925599Y-98823810D01*
X70936406Y-98818842D01*
X70941383Y-98812165D01*
X70942035Y-98810342D01*
X70946273Y-98792583D01*
X70954447Y-98754565D01*
X70965792Y-98699995D01*
X70979541Y-98632578D01*
X70994928Y-98556022D01*
X71003247Y-98514212D01*
X71057728Y-98239452D01*
X71018709Y-98205595D01*
X70952196Y-98158953D01*
X70865208Y-98115391D01*
X70761640Y-98076332D01*
X70645385Y-98043199D01*
X70520335Y-98017415D01*
X70491229Y-98012748D01*
X70413950Y-98004470D01*
X70320177Y-97999772D01*
X70217562Y-97998578D01*
X70113759Y-98000809D01*
X70016420Y-98006387D01*
X69933199Y-98015234D01*
X69911181Y-98018677D01*
X69737009Y-98056934D01*
X69582672Y-98108728D01*
X69447046Y-98175062D01*
X69329007Y-98256937D01*
X69227428Y-98355356D01*
X69141185Y-98471319D01*
X69069152Y-98605831D01*
X69010205Y-98759892D01*
X68985704Y-98843022D01*
X68973649Y-98890338D01*
X68965047Y-98932602D01*
X68959307Y-98975734D01*
X68955840Y-99025653D01*
X68954055Y-99088278D01*
X68953371Y-99167529D01*
X68952575Y-99375125D01*
X68991339Y-99456951D01*
X69006843Y-99488347D01*
X69022994Y-99516901D01*
X69041547Y-99544004D01*
X69064257Y-99571043D01*
X69092880Y-99599410D01*
X69129172Y-99630493D01*
X69174888Y-99665682D01*
X69231784Y-99706367D01*
X69301614Y-99753936D01*
X69386135Y-99809779D01*
X69487102Y-99875286D01*
X69606271Y-99951845D01*
X69660352Y-99986467D01*
X69774647Y-100063152D01*
X69866238Y-100132505D01*
X69935590Y-100194921D01*
X69983166Y-100250800D01*
X69999650Y-100277783D01*
X70015614Y-100323770D01*
X70026609Y-100385984D01*
X70032085Y-100456635D01*
X70031496Y-100527931D01*
X70024291Y-100592080D01*
X70022430Y-100601433D01*
X69992214Y-100697016D01*
X69945714Y-100785757D01*
X69887190Y-100859554D01*
X69886149Y-100860599D01*
X69811768Y-100921880D01*
X69725919Y-100967306D01*
X69626071Y-100997720D01*
X69509695Y-101013968D01*
X69416126Y-101017365D01*
X69302364Y-101011446D01*
X69204416Y-100993751D01*
X69123624Y-100965002D01*
X69061332Y-100925920D01*
X69018881Y-100877228D01*
X68997616Y-100819647D01*
X68995316Y-100791164D01*
X68998752Y-100743567D01*
X69008894Y-100674139D01*
X69025488Y-100584458D01*
X69038782Y-100519957D01*
X69044627Y-100492481D01*
X68764352Y-100492481D01*
X68674188Y-100492613D01*
X68605473Y-100493159D01*
X68555237Y-100494338D01*
X68520506Y-100496374D01*
X68498308Y-100499488D01*
X68485671Y-100503902D01*
X68479622Y-100509838D01*
X68478021Y-100513851D01*
X68474036Y-100531033D01*
X68465816Y-100568851D01*
X68454056Y-100624020D01*
X68439451Y-100693256D01*
X68422698Y-100773275D01*
X68404491Y-100860792D01*
X68402398Y-100870887D01*
X68332831Y-101206553D01*
X68061342Y-101206553D01*
X68064675Y-101171229D01*
X68072678Y-101121402D01*
X68085728Y-101053744D01*
X68091472Y-101025547D01*
X68119903Y-100888622D01*
X68146999Y-100760899D01*
X68172289Y-100644439D01*
X68195305Y-100541304D01*
X68215579Y-100453556D01*
X68232640Y-100383258D01*
X68246021Y-100332470D01*
X68255251Y-100303255D01*
X68256321Y-100300701D01*
X68266446Y-100279914D01*
X68277927Y-100262936D01*
X68293206Y-100249350D01*
X68314726Y-100238740D01*
X68344932Y-100230692D01*
X68386266Y-100224790D01*
X68441173Y-100220618D01*
X68512094Y-100217760D01*
X68601474Y-100215800D01*
X68711757Y-100214324D01*
X68767653Y-100213719D01*
X68867533Y-100212900D01*
X68961078Y-100212565D01*
X69045107Y-100212692D01*
X69116442Y-100213261D01*
X69171904Y-100214249D01*
X69208315Y-100215634D01*
X69220656Y-100216808D01*
X69238515Y-100223228D01*
X69260560Y-100237773D01*
X69289250Y-100262706D01*
X69327046Y-100300290D01*
X69376408Y-100352787D01*
X69417733Y-100398043D01*
X69471112Y-100456734D01*
X69522778Y-100513162D01*
X69568981Y-100563261D01*
X69605974Y-100602963D01*
X69628386Y-100626541D01*
X69657711Y-100655893D01*
X69675502Y-100669706D01*
X69686915Y-100670274D01*
X69697107Y-100659889D01*
X69698658Y-100657789D01*
X69712184Y-100634229D01*
X69715796Y-100621295D01*
X69706645Y-100608602D01*
X69682139Y-100585583D01*
X69646705Y-100556243D01*
X69627263Y-100541202D01*
X69555330Y-100483479D01*
X69478788Y-100415443D01*
X69395628Y-100335096D01*
X69303841Y-100240443D01*
X69201417Y-100129489D01*
X69112568Y-100030025D01*
X69024618Y-99930159D01*
X68951422Y-99846195D01*
X68891402Y-99775880D01*
X68842978Y-99716959D01*
X68804569Y-99667178D01*
X68774599Y-99624282D01*
X68751486Y-99586016D01*
X68733651Y-99550127D01*
X68719515Y-99514359D01*
X68707499Y-99476459D01*
X68696546Y-99436183D01*
X68682286Y-99355598D01*
X68675677Y-99257358D01*
X68676395Y-99146890D01*
X68684120Y-99029626D01*
X68698530Y-98910993D01*
X68719304Y-98796422D01*
X68739243Y-98715069D01*
X68799613Y-98539135D01*
X68878046Y-98379551D01*
X68974191Y-98236628D01*
X69087694Y-98110672D01*
X69218205Y-98001992D01*
X69365372Y-97910896D01*
X69528842Y-97837693D01*
X69708265Y-97782690D01*
X69832954Y-97756900D01*
X70035608Y-97731041D01*
X70235694Y-97722625D01*
X70430555Y-97731254D01*
G37*
G36*
X80843497Y-97843401D02*
G01*
X80898659Y-97845334D01*
X80936043Y-97849403D01*
X80958964Y-97856302D01*
X80970738Y-97866724D01*
X80974682Y-97881362D01*
X80974835Y-97886312D01*
X80964941Y-97915277D01*
X80934697Y-97933062D01*
X80883263Y-97940108D01*
X80871839Y-97940270D01*
X80816085Y-97940270D01*
X80816085Y-98123013D01*
X80815856Y-98193848D01*
X80814856Y-98244146D01*
X80812615Y-98277795D01*
X80808664Y-98298678D01*
X80802532Y-98310681D01*
X80793751Y-98317690D01*
X80792464Y-98318398D01*
X80774197Y-98327675D01*
X80761173Y-98328642D01*
X80740740Y-98321308D01*
X80733657Y-98318447D01*
X80723070Y-98313250D01*
X80715623Y-98304997D01*
X80710766Y-98289807D01*
X80707946Y-98263800D01*
X80706610Y-98223098D01*
X80706206Y-98163820D01*
X80706181Y-98125413D01*
X80706181Y-97943424D01*
X80632912Y-97935135D01*
X80592378Y-97929852D01*
X80570459Y-97923487D01*
X80561449Y-97912700D01*
X80559646Y-97894152D01*
X80559642Y-97892241D01*
X80561424Y-97874203D01*
X80569015Y-97861165D01*
X80585785Y-97852328D01*
X80615106Y-97846890D01*
X80660348Y-97844050D01*
X80724881Y-97843008D01*
X80767239Y-97842911D01*
X80843497Y-97843401D01*
G37*
G36*
X81143916Y-97844818D02*
G01*
X81171731Y-97852303D01*
X81178947Y-97857842D01*
X81188866Y-97876591D01*
X81203513Y-97910930D01*
X81219364Y-97952481D01*
X81240297Y-98007769D01*
X81264136Y-98066985D01*
X81279643Y-98103382D01*
X81311221Y-98174909D01*
X81371994Y-98011796D01*
X81432767Y-97848683D01*
X81499931Y-97848683D01*
X81567094Y-97848683D01*
X81567094Y-98080702D01*
X81567094Y-98312721D01*
X81524354Y-98312721D01*
X81481614Y-98312721D01*
X81475508Y-98166266D01*
X81469402Y-98019811D01*
X81407605Y-98165402D01*
X81374061Y-98241042D01*
X81346191Y-98293651D01*
X81322074Y-98323408D01*
X81299790Y-98330494D01*
X81277419Y-98315090D01*
X81253041Y-98277377D01*
X81224735Y-98217535D01*
X81210423Y-98183957D01*
X81188050Y-98131849D01*
X81168062Y-98087825D01*
X81152839Y-98056976D01*
X81145394Y-98044886D01*
X81139797Y-98050461D01*
X81135925Y-98079286D01*
X81133886Y-98130243D01*
X81133585Y-98167404D01*
X81132003Y-98238578D01*
X81126384Y-98287955D01*
X81115417Y-98318009D01*
X81097791Y-98331215D01*
X81072195Y-98330047D01*
X81051157Y-98322951D01*
X81045510Y-98309017D01*
X81041054Y-98275378D01*
X81037795Y-98226722D01*
X81035740Y-98167738D01*
X81034894Y-98103116D01*
X81035264Y-98037543D01*
X81036855Y-97975709D01*
X81039675Y-97922302D01*
X81043729Y-97882011D01*
X81049023Y-97859526D01*
X81050546Y-97857231D01*
X81072998Y-97847233D01*
X81107563Y-97843111D01*
X81143916Y-97844818D01*
G37*
G36*
X80002805Y-104355135D02*
G01*
X80076368Y-104380913D01*
X80132920Y-104422992D01*
X80171447Y-104480487D01*
X80190935Y-104552514D01*
X80193228Y-104590886D01*
X80190034Y-104619033D01*
X80181124Y-104666326D01*
X80167601Y-104728457D01*
X80150566Y-104801119D01*
X80131120Y-104880005D01*
X80110367Y-104960809D01*
X80089407Y-105039223D01*
X80069342Y-105110940D01*
X80051274Y-105171654D01*
X80036305Y-105217056D01*
X80027330Y-105239402D01*
X79979430Y-105313204D01*
X79916114Y-105368386D01*
X79837090Y-105405111D01*
X79742061Y-105423538D01*
X79686699Y-105425943D01*
X79629009Y-105423405D01*
X79583980Y-105414230D01*
X79540233Y-105396078D01*
X79539324Y-105395622D01*
X79492818Y-105367374D01*
X79457756Y-105333572D01*
X79433854Y-105291833D01*
X79420828Y-105239775D01*
X79418395Y-105175016D01*
X79426270Y-105095175D01*
X79444171Y-104997869D01*
X79471813Y-104880717D01*
X79476028Y-104864212D01*
X79502906Y-104761783D01*
X79525879Y-104679918D01*
X79546270Y-104615321D01*
X79565405Y-104564701D01*
X79584608Y-104524764D01*
X79605202Y-104492215D01*
X79628512Y-104463761D01*
X79643186Y-104448447D01*
X79712029Y-104395018D01*
X79792593Y-104361527D01*
X79886892Y-104347216D01*
X79913245Y-104346545D01*
X80002805Y-104355135D01*
G37*
G36*
X69888437Y-103069274D02*
G01*
X69950166Y-103070010D01*
X69995473Y-103071713D01*
X70028357Y-103074772D01*
X70052818Y-103079577D01*
X70072856Y-103086519D01*
X70092471Y-103095987D01*
X70094842Y-103097236D01*
X70148878Y-103136943D01*
X70183684Y-103189569D01*
X70200044Y-103256759D01*
X70200564Y-103319452D01*
X70194518Y-103370493D01*
X70182908Y-103436354D01*
X70166968Y-103512231D01*
X70147935Y-103593322D01*
X70127043Y-103674825D01*
X70105529Y-103751937D01*
X70084628Y-103819855D01*
X70065575Y-103873778D01*
X70049606Y-103908903D01*
X70048403Y-103910911D01*
X69994328Y-103976901D01*
X69923862Y-104030409D01*
X69846531Y-104065320D01*
X69815423Y-104071921D01*
X69768373Y-104078010D01*
X69709629Y-104083420D01*
X69643439Y-104087985D01*
X69574049Y-104091539D01*
X69505707Y-104093917D01*
X69442662Y-104094951D01*
X69389160Y-104094477D01*
X69349448Y-104092328D01*
X69327776Y-104088338D01*
X69325027Y-104085707D01*
X69327812Y-104071039D01*
X69335676Y-104035714D01*
X69347881Y-103982795D01*
X69363691Y-103915346D01*
X69382367Y-103836430D01*
X69403172Y-103749109D01*
X69425369Y-103656448D01*
X69448221Y-103561510D01*
X69470990Y-103467358D01*
X69492939Y-103377056D01*
X69513331Y-103293666D01*
X69531428Y-103220253D01*
X69546492Y-103159879D01*
X69557787Y-103115607D01*
X69564576Y-103090502D01*
X69564581Y-103090486D01*
X69568694Y-103083062D01*
X69578181Y-103077575D01*
X69596294Y-103073737D01*
X69626287Y-103071260D01*
X69671413Y-103069856D01*
X69734925Y-103069238D01*
X69806285Y-103069116D01*
X69888437Y-103069274D01*
G37*
G36*
X74402944Y-98588017D02*
G01*
X74525354Y-98590506D01*
X74626281Y-98597594D01*
X74708371Y-98610106D01*
X74774271Y-98628866D01*
X74826629Y-98654701D01*
X74868091Y-98688434D01*
X74901303Y-98730892D01*
X74910494Y-98746231D01*
X74926294Y-98775213D01*
X74936939Y-98799831D01*
X74943424Y-98825924D01*
X74946740Y-98859333D01*
X74947881Y-98905899D01*
X74947860Y-98966039D01*
X74946220Y-99046320D01*
X74941365Y-99110800D01*
X74932356Y-99167994D01*
X74919699Y-99221094D01*
X74878578Y-99342425D01*
X74825047Y-99449804D01*
X74760837Y-99540813D01*
X74687680Y-99613030D01*
X74607309Y-99664034D01*
X74600391Y-99667229D01*
X74556208Y-99682906D01*
X74498826Y-99697627D01*
X74436225Y-99709942D01*
X74376385Y-99718402D01*
X74327284Y-99721557D01*
X74307335Y-99720451D01*
X74288255Y-99719111D01*
X74250495Y-99717399D01*
X74199790Y-99715548D01*
X74150143Y-99714024D01*
X74011269Y-99710115D01*
X74019305Y-99658630D01*
X74024745Y-99628723D01*
X74034388Y-99580578D01*
X74047077Y-99519784D01*
X74061655Y-99451929D01*
X74069122Y-99417866D01*
X74082187Y-99358412D01*
X74098230Y-99284992D01*
X74116431Y-99201394D01*
X74135971Y-99111406D01*
X74156031Y-99018817D01*
X74175793Y-98927416D01*
X74194437Y-98840990D01*
X74211143Y-98763328D01*
X74225093Y-98698218D01*
X74235469Y-98649449D01*
X74241398Y-98621063D01*
X74248218Y-98587481D01*
X74402944Y-98588017D01*
G37*
G36*
X78845096Y-98585973D02*
G01*
X78944713Y-98588520D01*
X79023632Y-98592360D01*
X79085569Y-98598106D01*
X79134238Y-98606370D01*
X79173355Y-98617766D01*
X79206636Y-98632906D01*
X79234604Y-98650195D01*
X79280250Y-98692584D01*
X79320426Y-98750119D01*
X79348900Y-98813533D01*
X79352476Y-98825492D01*
X79360284Y-98877932D01*
X79361219Y-98946968D01*
X79355829Y-99025926D01*
X79344664Y-99108136D01*
X79328272Y-99186923D01*
X79320393Y-99215921D01*
X79275116Y-99343528D01*
X79220046Y-99449470D01*
X79153978Y-99534946D01*
X79075707Y-99601153D01*
X78984025Y-99649289D01*
X78877729Y-99680555D01*
X78847421Y-99686089D01*
X78814330Y-99689715D01*
X78765690Y-99692834D01*
X78706130Y-99695379D01*
X78640283Y-99697284D01*
X78572778Y-99698482D01*
X78508247Y-99698907D01*
X78451321Y-99698492D01*
X78406630Y-99697171D01*
X78378805Y-99694877D01*
X78372030Y-99692914D01*
X78371505Y-99687198D01*
X78373221Y-99672167D01*
X78377475Y-99646357D01*
X78384568Y-99608305D01*
X78394796Y-99556548D01*
X78408460Y-99489622D01*
X78425856Y-99406065D01*
X78447285Y-99304414D01*
X78473043Y-99183203D01*
X78503431Y-99040972D01*
X78536512Y-98886664D01*
X78602040Y-98581375D01*
X78845096Y-98585973D01*
G37*
D13*
%TO.C,R4*%
X70035000Y-50972936D02*
X70035000Y-51427064D01*
X68565000Y-50972936D02*
X68565000Y-51427064D01*
%TO.C,U1*%
X120535000Y-62200000D02*
X120535000Y-60250000D01*
X120535000Y-62200000D02*
X120535000Y-64150000D01*
X111665000Y-62200000D02*
X111665000Y-60250000D01*
X111665000Y-62200000D02*
X111665000Y-64150000D01*
X120800000Y-59740000D02*
X120470000Y-59500000D01*
X120800000Y-59260000D01*
X120800000Y-59740000D01*
G36*
X120800000Y-59740000D02*
G01*
X120470000Y-59500000D01*
X120800000Y-59260000D01*
X120800000Y-59740000D01*
G37*
%TO.C,D1*%
X128240000Y-82500000D02*
X128240000Y-84500000D01*
X128240000Y-82500000D02*
X132250000Y-82500000D01*
X128240000Y-84500000D02*
X132250000Y-84500000D01*
%TO.C,R7*%
X137945000Y-74597936D02*
X137945000Y-75052064D01*
X136475000Y-74597936D02*
X136475000Y-75052064D01*
%TO.C,C11*%
X71938748Y-55340000D02*
X72461252Y-55340000D01*
X71938748Y-56810000D02*
X72461252Y-56810000D01*
%TO.C,C5*%
X150445000Y-82563748D02*
X150445000Y-83086252D01*
X148975000Y-82563748D02*
X148975000Y-83086252D01*
%TD*%
M02*
